<?xml version="1.0" standalone="no"?>
<!DOCTYPE svg PUBLIC "-//W3C//DTD SVG 20010904//EN"
 "http://www.w3.org/TR/2001/REC-SVG-20010904/DTD/svg10.dtd">
<svg version="1.0" xmlns="http://www.w3.org/2000/svg"
 width="1000.000000pt" height="1000.000000pt" viewBox="0 0 1000.000000 1000.000000"
 preserveAspectRatio="xMidYMid meet">
<metadata>
Created by potrace 1.14, written by Peter Selinger 2001-2017
</metadata>
<g transform="translate(0.000000,1000.000000) scale(0.100000,-0.100000)"
fill="#000000" stroke="none">
<path d="M4728 9895 c-2 -2 -41 -6 -88 -9 -47 -3 -103 -8 -125 -11 -22 -3 -62
-7 -90 -10 -63 -6 -141 -18 -162 -25 -5 -1 -12 -2 -17 -1 -4 1 -47 -6 -95 -15
-47 -9 -99 -18 -116 -21 -41 -7 -60 -11 -60 -13 0 -1 -11 -4 -25 -7 -32 -6
-54 -11 -60 -13 -3 -1 -9 -3 -15 -4 -69 -11 -338 -90 -480 -141 -71 -26 -136
-47 -142 -47 -7 -1 -13 -5 -13 -10 0 -4 -8 -8 -17 -8 -10 -1 -36 -9 -58 -20
-22 -11 -44 -19 -48 -20 -5 0 -43 -16 -84 -36 -82 -39 -115 -52 -123 -50 -3 0
-19 -9 -37 -22 -17 -12 -38 -22 -46 -22 -9 0 -17 -3 -19 -7 -1 -5 -25 -19 -53
-33 -27 -13 -53 -28 -56 -33 -3 -5 -9 -8 -13 -7 -6 1 -82 -40 -199 -107 -77
-45 -261 -166 -269 -178 -4 -5 -8 -6 -8 -2 0 4 -11 -2 -25 -15 -13 -13 -47
-39 -75 -58 -45 -30 -86 -61 -150 -114 -9 -7 -38 -30 -65 -52 -223 -177 -554
-512 -715 -723 -14 -18 -30 -38 -35 -44 -6 -7 -29 -37 -53 -67 -23 -30 -47
-61 -52 -67 -6 -7 -8 -13 -5 -13 3 0 -3 -9 -13 -19 -28 -32 -39 -46 -52 -71
-7 -13 -21 -33 -31 -44 -11 -11 -19 -26 -19 -33 0 -7 -4 -13 -10 -13 -5 0 -10
-7 -10 -15 0 -8 -4 -15 -10 -15 -5 0 -10 -6 -10 -13 0 -8 -9 -22 -20 -32 -11
-10 -20 -23 -20 -28 0 -5 -15 -33 -33 -61 -19 -28 -47 -76 -63 -106 -16 -30
-33 -58 -37 -61 -5 -3 -9 -13 -11 -21 -1 -9 -7 -22 -13 -29 -10 -13 -147 -289
-149 -299 0 -3 -10 -25 -21 -50 -33 -69 -146 -363 -158 -410 -1 -3 -4 -12 -8
-20 -6 -14 -49 -157 -53 -172 -1 -5 -3 -11 -4 -15 -1 -5 -3 -12 -5 -18 -1 -5
-3 -12 -4 -15 -2 -3 -4 -12 -6 -20 -2 -8 -9 -35 -15 -60 -7 -25 -14 -52 -17
-60 -3 -8 -7 -22 -8 -30 -1 -8 -7 -37 -13 -65 -7 -27 -14 -63 -17 -80 -8 -38
-13 -60 -15 -60 -1 0 -3 -11 -5 -25 -1 -14 -5 -39 -9 -56 -3 -17 -8 -46 -11
-65 -2 -19 -7 -47 -10 -64 -4 -16 -8 -43 -10 -60 -1 -16 -6 -55 -9 -85 -25
-211 -31 -318 -30 -590 0 -312 8 -439 40 -670 12 -88 15 -104 19 -124 2 -12 7
-37 10 -56 7 -50 14 -91 21 -120 14 -62 14 -59 29 -130 12 -55 15 -69 44 -175
36 -131 94 -319 115 -369 8 -20 12 -36 8 -36 -4 0 -2 -4 3 -8 6 -4 16 -25 23
-47 7 -22 18 -50 23 -62 5 -13 13 -33 18 -45 5 -13 18 -44 30 -70 12 -26 21
-51 21 -55 0 -8 202 -416 209 -423 3 -3 17 -25 30 -50 14 -25 44 -75 68 -113
24 -37 43 -70 43 -73 0 -2 5 -10 10 -17 6 -7 36 -50 66 -97 31 -47 65 -94 75
-106 11 -11 19 -26 19 -32 0 -7 7 -15 15 -18 8 -4 15 -10 15 -16 0 -5 20 -35
45 -66 25 -31 49 -61 53 -67 14 -18 97 -119 114 -139 10 -11 18 -24 18 -28 0
-5 5 -6 10 -3 6 3 10 1 10 -5 0 -20 292 -320 439 -450 34 -30 73 -65 86 -77
14 -12 42 -34 62 -50 21 -15 44 -34 52 -41 25 -24 207 -160 253 -189 24 -15
50 -34 58 -41 18 -15 169 -112 175 -112 2 0 23 -13 47 -28 24 -16 63 -40 88
-53 25 -13 47 -26 50 -29 3 -3 28 -16 55 -29 28 -14 61 -33 75 -42 14 -9 27
-17 30 -17 3 -1 57 -25 120 -55 116 -55 284 -126 395 -167 33 -12 69 -26 80
-30 19 -8 92 -32 108 -36 4 -1 9 -3 12 -4 3 -1 8 -3 13 -4 4 -1 39 -12 77 -24
64 -20 183 -55 195 -57 16 -3 87 -19 95 -21 6 -1 42 -10 80 -19 64 -15 89 -20
152 -30 13 -2 26 -6 30 -8 5 -3 32 -8 62 -11 30 -4 64 -9 75 -11 12 -2 44 -7
71 -10 28 -3 64 -8 80 -10 159 -22 320 -30 590 -30 239 1 394 7 490 20 17 2
55 7 85 10 30 4 66 8 80 10 14 2 43 6 65 9 22 3 63 9 90 14 28 5 57 10 65 10
8 0 26 3 40 7 26 6 53 12 93 19 12 2 34 9 48 14 15 6 29 9 31 7 2 -2 25 2 51
10 26 8 49 14 52 15 3 0 6 0 8 1 1 0 9 2 17 4 8 2 26 7 40 10 14 3 36 8 49 11
13 3 32 9 43 15 10 5 18 7 18 3 0 -3 7 -1 15 6 8 7 15 10 15 7 0 -3 26 3 58
14 31 11 64 22 72 24 30 6 305 108 316 117 7 5 22 11 34 13 53 10 474 220 625
312 11 7 27 15 35 19 8 5 39 24 70 44 30 20 82 54 115 76 33 21 65 42 70 47 6
4 55 40 110 79 55 40 102 75 105 78 3 3 36 30 75 60 38 30 77 62 86 70 8 8 46
42 84 75 38 33 83 75 101 93 19 17 39 32 45 32 7 0 10 2 8 5 -3 2 42 53 100
113 150 154 211 222 287 318 21 27 45 56 52 64 24 28 129 169 166 222 19 29
49 72 66 96 16 23 30 47 30 52 0 6 5 10 10 10 6 0 10 5 10 11 0 9 54 93 70
109 3 3 6 12 8 20 2 8 9 22 16 30 16 19 176 311 192 350 3 8 22 49 41 90 70
150 200 484 218 560 2 8 13 44 24 79 12 35 23 74 26 85 2 12 16 64 30 116 26
96 84 370 90 425 4 30 12 87 21 135 2 14 7 54 10 90 3 36 7 70 9 77 26 82 26
768 0 983 -2 19 -7 60 -10 90 -3 30 -7 66 -9 80 -2 14 -9 63 -16 110 -6 47
-14 92 -17 100 -3 8 -7 24 -8 35 -4 31 -27 148 -33 165 -3 8 -6 22 -7 31 -1 9
-5 27 -8 40 -3 13 -6 26 -7 29 0 3 -12 46 -26 95 -14 50 -26 95 -28 100 -1 6
-11 37 -21 70 -10 33 -19 62 -20 65 -11 41 -36 113 -42 123 -4 6 -9 19 -10 28
-1 9 -12 37 -23 63 -11 26 -20 52 -20 57 0 5 -9 28 -19 52 -10 23 -52 116 -92
207 -40 91 -75 167 -78 170 -3 3 -22 37 -41 75 -19 39 -38 72 -42 73 -5 2 -8
12 -8 23 0 10 -4 19 -10 19 -5 0 -10 4 -10 9 0 11 -102 184 -158 268 -23 34
-42 67 -42 73 0 5 -4 10 -10 10 -5 0 -19 18 -30 40 -11 22 -25 40 -30 40 -6 0
-10 5 -10 11 0 10 -160 225 -199 266 -12 12 -21 24 -21 27 0 6 -63 77 -127
145 -29 30 -53 57 -53 60 0 8 -274 276 -345 338 -84 73 -105 90 -190 158 -27
22 -53 45 -57 50 -5 6 -8 6 -8 0 0 -5 -7 1 -16 13 -8 12 -19 22 -25 22 -5 0
-22 11 -37 24 -15 13 -50 40 -78 58 -27 19 -67 47 -87 62 -20 16 -37 25 -37
21 0 -5 -8 2 -19 13 -10 12 -21 22 -24 22 -9 0 -112 64 -115 73 -2 4 -8 7 -14
7 -6 0 -29 13 -53 29 -24 16 -53 32 -64 36 -11 3 -27 12 -33 19 -21 20 -463
235 -463 225 0 -2 -13 4 -30 13 -88 48 -515 197 -615 215 -14 3 -32 7 -40 10
-8 3 -20 7 -26 8 -6 2 -71 16 -145 33 -167 38 -233 51 -284 57 -22 2 -51 6
-65 9 -32 6 -168 24 -245 31 -33 4 -76 9 -95 12 -40 5 -666 13 -672 8z"/>
</g>
</svg>
