<?xml version="1.0" standalone="no"?>
<!DOCTYPE svg PUBLIC "-//W3C//DTD SVG 1.1//EN" "http://www.w3.org/Graphics/SVG/1.1/DTD/svg11.dtd" >
<svg xmlns="http://www.w3.org/2000/svg" xmlns:xlink="http://www.w3.org/1999/xlink" version="1.1">
<metadata>
Created by FontForge 20190801 at Mon Mar 17 21:26:25 2014
 By root
(c) Information and Communication Technology Agency of Sri Lanka.
</metadata>
<defs>
<font id="AdBhashitha" horiz-adv-x="714" >
  <font-face 
    font-family="AdBhashitha"
    font-weight="400"
    font-stretch="normal"
    units-per-em="1000"
    panose-1="2 4 5 3 5 2 1 2 2 3"
    ascent="727"
    descent="-273"
    x-height="545"
    cap-height="738"
    bbox="-141 -293 2515.23 1005"
    underline-thickness="59"
    underline-position="-116"
    unicode-range="U+000D-25CC"
  />
<missing-glyph horiz-adv-x="500" 
d="M125 943v-881h250v881h-250zM437 0h-375v1005h375v-1005z" />
    <glyph glyph-name="sin.k" unicode="&#xd9a;&#xdca;" horiz-adv-x="891" 
d="M767 766v-50q19 -8 29 -7q28 1 34 42q7 44 -16 57q-13 8 -28.5 2t-20.5 -20q2 -5 2 -24zM299 365l-6 -2l-14 -5q-13 -13 -27 -23l-27 -30q-48 -53 -108 -155q-2 -3 -1 -6t4 -3q13 1 30.5 -12.5t41.5 -28t54 -14.5q94 0 94 106v1q8 19 21 18q12 -1 20 -18q-6 -60 30 -89.5
t93 -12.5q48 14 68 56t11.5 86.5t-42.5 84.5t-84 51q-30 7 -78.5 7t-79.5 -11zM821 672l-8 -2q-27 -3 -46 4v-212q49 -54 69 -124.5t7 -145.5q-25 -146 -136 -179q-20 -8 -52 -3.5t-44 22.5q-6 12 4 22.5t22 -0.5q25 -16 68 2q65 26 84.5 93t0 134.5t-61.5 111.5
q-17 18 -53 42q-85 53 -175.5 46t-161.5 -63l-8 -9q105 7 144 -3q71 -17 114 -69.5t50 -125.5q4 -34 -12 -81q-19 -55 -61 -91t-97 -32q-32 2 -60 20.5t-43 47.5q-6 5 -10 -2q-15 -28 -43.5 -45.5t-61.5 -20.5q-15 -1 -28 2t-25.5 12t-20 15.5t-21 21t-18.5 19.5
q-22 24 -33 30q-4 1 -7 -1l-1 -1q-6 -12 -16 -22q-9 -5 -21 2.5t-8 17.5q7 21 32 66q36 69 95 142q19 24 43 52q3 3 9 8.5t10 10t5 7.5q12 41 -5 67t-54 1q-27 -18 -31 -85q-2 -32 -11.5 -45.5t-34.5 -18.5q-12 -3 -22 8.5t-13 25.5q-5 32 8 71q26 73 94 97q44 16 81 -7
t33 -68l21 19q20 18 42 32q89 69 222 64q81 -4 149 -53l2 268q0 27 -31 42q-7 4 -22 9q-18 6 -14 23.5t25 15.5q31 -7 56 -29q27 34 63 29q31 -5 43 -19q19 -19 25 -51t-2 -58q-14 -49 -48 -57z" />
    <glyph glyph-name="sin.ki" unicode="&#xd9a;&#xdd2;" horiz-adv-x="865" 
d="M708 496l5 1q31 7 43 44q21 63 -53 110q-31 10 -71 16t-87.5 3t-81.5 -18q-57 -25 -83 -60q-31 -44 -49 -113q95 77 225 72q84 -4 152 -55zM234 335l-7 -8l-20 -22q-44 -48 -109 -156q-2 -3 -1 -6t4 -2q13 1 30.5 -13t41.5 -28.5t54 -14.5q94 0 94 106q0 6 8 14q6 6 13 6
q14 -4 20 -19q-6 -58 30 -87.5t93 -14.5q51 13 70.5 54.5t9 86.5t-45 85.5t-81.5 51.5q-27 8 -78 7.5t-79 -11.5l-21 -6q-19 -19 -26 -23zM455 407l13 -3q67 -15 106.5 -68t44.5 -124q3 -37 -12 -81q-20 -56 -62 -92t-96 -30q-72 7 -103 67q-5 5 -10 -1q-14 -28 -42.5 -46
t-61.5 -21q-15 -1 -28 1.5t-27 12.5t-19.5 14.5t-21.5 22.5t-18 20q-3 3 -9 10t-11 11.5t-12 7.5q-6 1 -8 -1l-1 -1q-5 -14 -16 -22q-10 -7 -20.5 1t-8.5 19q4 12 32 66q36 69 95 142q31 39 43 52q3 3 9 8.5t10 10t5 7.5q12 41 -5 67t-54 1q-27 -18 -31 -85
q-2 -31 -11.5 -44.5t-33.5 -18.5q-12 -3 -22.5 8.5t-13.5 24.5q-5 32 8 71q26 72 94 97q43 15 78 -8.5t37 -66.5q0 4 0.5 4.5t3.5 0.5t7 3q0 60 29 121.5t76 102.5q46 41 102 53t131 8q84 -5 136 -57q28 -28 40 -59q15 -39 -1 -85.5t-53 -64.5q50 -55 72.5 -126.5
t9.5 -145.5q-11 -66 -45.5 -114t-91.5 -65q-20 -8 -52 -3.5t-44 22.5q-6 12 4 22.5t22 0.5q11 -7 34.5 -6t33.5 7q50 19 73.5 63.5t21 95.5t-21.5 100t-49 81q-20 19 -54 42q-85 52 -176 45t-161 -63l-8 -8q101 6 144 -4z" />
    <glyph glyph-name="sin.kii" unicode="&#xd9a;&#xdd3;" horiz-adv-x="862" 
d="M758 582q-8 29 -35 47q-45 -8 -65 -31q-4 -9 -8 -30q-2 -25 20.5 -42t47.5 -13q22 3 34 25t6 44zM385 595l-4 -6q-39 -58 -53 -114q95 77 225 72q33 -2 61 -9q-13 37 1 63q7 19 11 23q22 22 33 28q1 0 3 2q-33 8 -87 8q-133 -2 -190 -67zM278 360l-5 -1q-8 -2 -15 -5
q-19 -13 -27 -23l-27 -30q-44 -48 -109 -156q-1 -3 -0.5 -6t3.5 -2q13 1 30.5 -13t41.5 -28.5t54 -14.5q99 0 94 106l1 1q4 19 20 19q14 -4 20 -19q-6 -60 30 -89.5t93 -12.5q49 14 69 55.5t11 86.5t-43 85t-83 51q-28 8 -79 7.5t-79 -11.5zM777 502l-5 -5q-18 -18 -45 -24
q57 -55 82.5 -131t12.5 -155q-10 -65 -44.5 -113.5t-92.5 -65.5q-20 -8 -52 -3.5t-44 22.5q-6 12 5 22.5t21 0.5q13 -8 35 -7t34 8q64 26 84 92.5t0.5 135t-61.5 112.5q-19 20 -54 42q-83 51 -174.5 44.5t-162.5 -62.5l-8 -8q101 6 144 -4q73 -17 116 -69t49 -126
q4 -35 -13 -81q-20 -55 -62.5 -91.5t-95.5 -30.5q-73 7 -102 67q-7 4 -10 -1q-31 -60 -105 -67q-25 -2 -48 10.5t-33 23.5t-32 37q-2 2 -9 10t-12 12t-12 7q-6 1 -8 -1q0 -1 -1 -1q-4 -13 -15 -22q-11 -7 -21 0.5t-8 19.5q2 10 6.5 20.5t13.5 26.5t11 19q37 68 95 142
q25 32 44 52q3 4 12.5 13t11.5 13q11 40 -6 66t-54 2q-27 -18 -31 -85q-2 -32 -11 -45t-34 -18q-12 -3 -23 9t-12 24q-5 39 7 71q24 72 95 97q43 15 77.5 -8.5t36.5 -66.5q1 0 11 8q0 60 29 121.5t76 102.5q68 58 189 63q46 2 88.5 -9t79.5 -39t52 -70q11 -32 5 -58
q-7 -30 -22 -49z" />
    <glyph glyph-name="sin.ku" unicode="&#xd9a;&#xdd4;" horiz-adv-x="856" 
d="M219 335l-27 -30q-50 -54 -109 -155q-2 -9 3 -9q14 1 31.5 -12.5t41 -28t53.5 -14.5q95 0 95 106l5 11q7 7 16 8q13 -1 19 -18q-6 -57 30.5 -87t93.5 -15q41 11 62 40t19.5 65t-16 72t-45 64t-67.5 37q-32 8 -78.5 7t-79.5 -11q-17 -6 -20 -7q-13 -13 -27 -23zM615 11
l-5 -5q-13 -13 -17 -24q-15 -38 19.5 -68t83.5 -25q1 0 16 0.5t23 2t21.5 5.5t23 13t16.5 22q9 18 -9 36q-14 18 0 31t30 -3q33 -35 24 -84.5t-49 -74.5q-41 -26 -102.5 -23t-98.5 33q-25 19 -39 46q-15 31 -6 70.5t34 66.5q-9 7 -5.5 16.5t12.5 11.5t17 -4q12 -7 34 -6
t34 8q67 25 85.5 92.5t-2.5 135t-60 111.5q-17 18 -54 42q-84 52 -174.5 45.5t-161.5 -62.5l-8 -9q105 7 143 -3q73 -18 115.5 -69.5t49.5 -125.5q4 -34 -12 -81q-19 -55 -61.5 -91t-97.5 -32q-32 2 -59.5 20.5t-42.5 47.5q-6 5 -10 -2q-15 -28 -43.5 -45.5t-61.5 -20.5
q-15 -1 -28 2t-25.5 12t-20 15.5t-21 21t-18.5 19.5q-22 24 -33 30q-5 2 -8 -1q0 -1 -1 -1q-4 -13 -15 -22q-9 -7 -20 1t-9 19q4 16 32 66q47 86 94 142l44 52q3 3 9 8.5t10 10t5 7.5q12 41 -5 67t-54 1q-27 -18 -31 -85q-2 -32 -11.5 -45.5t-34.5 -18.5q-12 -3 -22 8.5
t-13 25.5q-5 32 8 71q26 73 94 97q44 16 81 -7t33 -68l21 19q27 23 42 32q87 68 221 64q88 -3 155.5 -58t97.5 -136.5t16 -165.5q-11 -66 -44.5 -114t-92.5 -65q-30 -8 -58 -2z" />
    <glyph glyph-name="sin.kuu" unicode="&#xd9a;&#xdd6;" horiz-adv-x="855" 
d="M271 354l-21 -6q-6 -8 -26 -24l-27 -29q-44 -48 -109 -156q-1 -3 -0.5 -6t3.5 -2q13 1 30.5 -13t41.5 -28.5t54 -14.5q94 0 94 106l1 1q4 19 20 19q14 -4 20 -19q-6 -58 30.5 -88.5t92.5 -13.5q39 12 60.5 41.5t21 65.5t-14.5 71.5t-44.5 63t-69.5 36.5q-27 8 -78 7.5
t-79 -11.5zM598 7l-4 4q-11 9 -12 10q-6 12 4 22.5t22 0.5q11 -7 34.5 -6t33.5 7q50 19 73.5 63.5t21 95.5t-21.5 100t-49 81q-19 19 -54 42q-85 52 -176 45t-161 -63l-8 -8q101 6 144 -4q73 -17 115 -69t49 -126q4 -34 -12 -81q-20 -56 -62 -92t-96 -30q-72 7 -103 67
q-5 5 -10 -1q-14 -28 -42.5 -46t-61.5 -21q-15 -1 -28 1.5t-27 12.5t-19.5 14.5t-21.5 22.5t-18 20q-3 3 -9 10t-11 11.5t-12 7.5q-6 1 -8 -1l-1 -1q-5 -14 -16 -22q-10 -7 -20.5 1t-8.5 19q4 12 32 66q36 69 95 142q31 39 43 52q3 3 9 8.5t10 10t5 7.5q12 41 -5 67t-54 1
q-27 -18 -31 -85q-2 -31 -11.5 -44.5t-33.5 -18.5q-12 -3 -22.5 8.5t-13.5 24.5q-5 32 8 71q26 72 94 97q45 16 82 -7t33 -68l21 20q22 21 42 31q72 68 221 64q88 -3 156 -58t97.5 -136.5t15.5 -165.5q-10 -65 -44.5 -113.5t-92.5 -65.5q4 -2 6.5 -4t4 -3t2.5 -1l14 -7
q7 -7 9 -14.5t-2.5 -14t-13.5 -9.5q-34 -5 -38 -9q-36 -20 -12 -44q27 -25 77 -23q91 6 95 60q0 8 -3 13q-5 6 -8 12q-3 4 -1.5 12t7.5 13q15 15 32 -4q9 -10 18 -53q8 -40 -20 -73.5t-69 -42.5q-32 -9 -85.5 -3t-77.5 28q-16 13 -28 37q-5 13 -5 30q-5 50 60 74
q-29 18 -42 31z" />
    <glyph glyph-name="sin.ke" unicode="&#xd9a;&#xdd9;" horiz-adv-x="1340" 
d="M708 328l-27 -29q-44 -48 -109 -156q-1 -3 -0.5 -6t3.5 -2q13 1 30.5 -13t41.5 -28.5t54 -14.5q99 0 94 106q0 6 8 14q6 6 13 6q14 -4 20 -19q-6 -58 30 -88t93 -14q40 11 61.5 40t20.5 65t-14.5 72t-44 64t-69.5 37q-35 9 -95 6t-83 -20zM1092 48l8 -3q34 -9 61 4
q63 28 83 94.5t1 134t-61 111.5q-20 19 -54 42q-83 51 -174.5 44.5t-162.5 -62.5q-9 -11 -12 -11q83 16 148 -1q74 -18 116.5 -69.5t48.5 -125.5q4 -35 -13 -81q-20 -55 -62.5 -91.5t-95.5 -30.5q-73 7 -102 67q-7 4 -10 -1q-31 -60 -105 -67q-25 -2 -48 10.5t-33 23.5
t-32 37q-2 2 -9 10t-12 12t-12 7q-6 1 -8 -1q0 -1 -1 -1q-4 -13 -15 -22q-11 -7 -21 0.5t-8 19.5q2 10 6.5 20.5t13.5 26.5t11 19q37 68 95 142q25 32 44 52q3 4 12.5 13t11.5 13q11 40 -6 66t-54 2q-27 -18 -31 -85q-2 -32 -11 -45t-34 -18q-12 -3 -23 9t-12 24q-5 39 7 71
q24 72 95 97q43 15 77.5 -8.5t36.5 -66.5q146 119 284 115q132 -4 211.5 -116.5t57.5 -243.5q-10 -65 -44.5 -113.5t-92.5 -65.5q-20 -8 -52 -3.5t-44 22.5q-6 11 3 19.5t23 3.5zM320 268q-12 34 -66 30q-53 -22 -38 -72q8 -25 40.5 -30t50.5 13q25 23 13 59zM444 182l-3 24
q-10 78 -101 98q25 -16 25 -61q0 -51 -44 -75t-91.5 -7t-55.5 66q-9 49 25 82t84 39q61 7 115.5 -21t74.5 -82q30 -80 -9.5 -147.5t-123.5 -89.5q-58 -16 -120.5 -1.5t-108.5 54.5q-81 69 -81 183q0 69 30.5 125t84.5 90q75 47 176 42q85 -5 135 -55q6 -18 -3.5 -28.5
t-27.5 0.5q-64 52 -159 40.5t-146 -74.5q-49 -61 -49 -141q0 -74 56 -121t139 -47q125 0 166 66q3 5 12 41z" />
    <glyph glyph-name="sin.kee" unicode="&#xd9a;&#xdda;" horiz-adv-x="1346" 
d="M1232 763v-50q19 -8 29 -7q28 1 34 42q7 42 -16 57q-13 8 -29 2t-21 -20q3 -12 3 -24zM764 362l-6 -2l-14 -5q-19 -14 -27 -23l-27 -30q-50 -54 -109 -155q-2 -9 3 -9q14 1 31.5 -12.5t41 -28t53.5 -14.5q95 0 95 106v1q5 20 21 18q13 -1 19 -18q-6 -58 31 -88t93 -14
q48 14 68 56t11.5 86.5t-42.5 84.5t-84 51q-30 7 -78.5 7t-79.5 -11zM1286 669l-7 -2q-18 -5 -48 4l1 -212q101 -112 76 -270q-11 -66 -44.5 -114t-92.5 -65q-18 -8 -50.5 -3.5t-44.5 22.5q-6 12 4 22.5t22 -0.5q12 -7 34 -6t34 8q67 25 85.5 92.5t-2.5 135t-60 111.5
q-17 18 -54 42q-84 52 -174.5 45.5t-161.5 -62.5l-8 -9q105 7 143 -3q73 -18 115.5 -69.5t49.5 -125.5q4 -34 -12 -81q-19 -55 -61.5 -91t-97.5 -32q-32 2 -59.5 20.5t-42.5 47.5q-6 5 -10 -2q-15 -28 -43.5 -45.5t-61.5 -20.5q-15 -1 -28 2t-25.5 12t-20 15.5t-21 21
t-18.5 19.5q-22 24 -33 30q-5 2 -8 -1q0 -1 -1 -1q-4 -13 -15 -22q-9 -7 -20 1t-9 19q4 16 32 66q47 86 94 142l44 52q3 3 9 8.5t10 10t5 7.5q12 41 -5 67t-54 1q-27 -18 -31 -85q-2 -32 -11.5 -45.5t-34.5 -18.5q-12 -3 -22 8.5t-13 25.5q-5 32 8 71q26 73 94 97
q44 16 81 -7t33 -68q11 10 63 51q89 69 221 64q84 -4 149 -53l3 268q-4 28 -31 42q-7 4 -22 9q-12 4 -14.5 14t4.5 18t21 7q35 -9 55 -29q29 34 64 29q31 -5 43 -19q20 -20 25.5 -51.5t-3.5 -57.5q-13 -47 -47 -57zM320 268q-12 34 -66 30q-53 -22 -38 -72q8 -25 40.5 -30
t50.5 13q25 23 13 59zM444 182l-3 24q-10 78 -101 98q25 -16 25 -61q0 -51 -44 -75t-91.5 -7t-55.5 66q-9 49 25 82t84 39q61 7 115.5 -21t74.5 -82q30 -80 -9.5 -147.5t-123.5 -89.5q-58 -16 -120.5 -1.5t-108.5 54.5q-81 69 -81 183q0 69 30.5 125t84.5 90q75 47 176 42
q85 -5 135 -55q6 -18 -3.5 -28.5t-27.5 0.5q-64 52 -159 40.5t-146 -74.5q-49 -61 -49 -141q0 -74 56 -121t139 -47q125 0 166 66q3 5 12 41z" />
    <glyph glyph-name="sin.kai" unicode="&#xd9a;&#xddb;" horiz-adv-x="1821" 
d="M803 268q-12 34 -66 30q-53 -22 -38 -72q8 -25 40.5 -30t50.5 13q25 23 13 59zM927 182l-3 24q-10 78 -101 98q25 -16 25 -61q0 -51 -44 -75t-91.5 -7t-55.5 66q-9 49 25 82t84 39q61 7 115.5 -21t74.5 -82q30 -80 -9.5 -147.5t-123.5 -89.5q-58 -16 -120.5 -1.5
t-108.5 54.5q-81 69 -81 183q0 69 30.5 125t84.5 90q75 47 176 42q85 -5 135 -55q6 -18 -3.5 -28.5t-27.5 0.5q-64 52 -159 40.5t-146 -74.5q-49 -61 -49 -141q0 -74 56 -121t139 -47q125 0 166 66q3 5 12 41zM1189 327l-27 -29q-44 -48 -109 -156q-1 -3 -0.5 -6t3.5 -2
q13 1 30.5 -13t41.5 -28.5t54 -14.5q99 0 94 106q0 6 8 14q6 6 13 6q14 -4 20 -19q-6 -58 30 -88t93 -14q40 11 61.5 40t20.5 65t-14.5 72t-44 64t-69.5 37q-35 9 -95 6t-83 -20zM1576 45q24 -15 66 3q65 26 84.5 93t-0.5 135t-61 112q-19 20 -54 42q-83 51 -174.5 44.5
t-162.5 -62.5q-9 -11 -12 -11q83 16 148 -1q74 -18 116.5 -69.5t48.5 -125.5q4 -35 -13 -81q-20 -55 -62.5 -91.5t-95.5 -30.5q-73 7 -102 67q-7 4 -10 -1q-31 -60 -105 -67q-25 -2 -48 10.5t-33 23.5t-32 37q-2 2 -9 10t-12 12t-12 7q-6 1 -8 -1q0 -1 -1 -1q-4 -13 -15 -22
q-11 -7 -21 0.5t-8 19.5q2 10 6.5 20.5t13.5 26.5t11 19q37 68 95 142q25 32 44 52q3 4 12.5 13t11.5 13q11 40 -6 66t-54 2q-27 -18 -31 -85q-2 -32 -11 -45t-34 -18q-12 -3 -23 9t-12 24q-5 39 7 71q24 72 95 97q43 15 77.5 -8.5t36.5 -66.5q146 119 284 115
q132 -4 211.5 -116.5t57.5 -243.5q-10 -65 -44.5 -113.5t-92.5 -65.5q-20 -8 -52 -3.5t-44 22.5q-6 12 5.5 20.5t23.5 0.5zM325 268q-12 34 -66 30q-53 -22 -38 -72q8 -25 40.5 -30t50.5 13q25 23 13 59zM449 182l-3 24q-10 78 -101 98q25 -16 25 -61q0 -51 -44 -75
t-91.5 -7t-55.5 66q-9 49 25 82t84 39q61 7 115.5 -21t74.5 -82q30 -80 -9.5 -147.5t-123.5 -89.5q-58 -16 -120.5 -1.5t-108.5 54.5q-81 69 -81 183q0 69 30.5 125t84.5 90q75 47 176 42q85 -5 135 -55q6 -18 -3.5 -28.5t-27.5 0.5q-64 52 -159 40.5t-146 -74.5
q-49 -61 -49 -141q0 -74 56 -121t139 -47q125 0 166 66q3 5 12 41z" />
    <glyph glyph-name="sin.ko" unicode="&#xd9a;&#xddc;" horiz-adv-x="1585" 
d="M1310 82q-3 9 3.5 16.5t17.5 7t19 -12.5q30 -42 63 -40q33 3 48.5 66.5t16.5 126.5q1 30 -0.5 58.5t-7 63t-20 56.5t-35.5 24q-37 3 -65 -39q-11 -17 -25.5 -13.5t-14.5 23.5q12 38 52 58t79 10q40 -10 74 -62q21 -32 31 -98q21 -136 -16 -221q-25 -57 -65 -82
q-40 -24 -91 -5t-64 63zM708 333l-27 -29q-44 -48 -109 -156q-1 -3 -0.5 -6t3.5 -2q13 1 30.5 -13t41.5 -28.5t54 -14.5q99 0 94 106q0 6 8 14q6 6 13 6q14 -4 20 -19q-6 -58 30 -88t93 -14q40 11 61.5 40t20.5 65t-14.5 72t-44 64t-69.5 37q-35 9 -95 6t-83 -20zM1092 53
q13 -8 35 -7t34 8q64 26 84 92.5t0.5 135t-61.5 112.5q-20 20 -54 42q-83 51 -174.5 44.5t-162.5 -62.5q-9 -11 -12 -11q83 16 148 -1q74 -18 116.5 -69.5t48.5 -125.5q4 -35 -13 -81q-20 -55 -62.5 -91.5t-95.5 -30.5q-73 7 -102 67q-7 4 -10 -1q-31 -60 -105 -67
q-25 -2 -48 10.5t-33 23.5t-32 37q-25 26 -33 29q-6 1 -8 -1q0 -1 -1 -1q-4 -13 -15 -22q-11 -7 -21 0.5t-8 19.5q2 10 6.5 20.5t13.5 26.5t11 19q37 68 95 142q25 32 44 52q3 4 12.5 13t11.5 13q11 40 -6 66t-54 2q-27 -18 -31 -85q-2 -32 -11 -45t-34 -18q-12 -3 -23 9
t-12 24q-5 39 7 71q24 72 95 97q43 15 77.5 -8.5t36.5 -66.5q146 119 284 115q132 -4 211.5 -116.5t57.5 -243.5q-10 -65 -44.5 -113.5t-92.5 -65.5q-20 -8 -52 -3.5t-44 22.5q-6 12 4 20t22 3zM320 268q-12 34 -66 30q-53 -22 -38 -72q8 -25 40.5 -30t50.5 13q25 23 13 59z
M444 182l-3 24q-10 78 -101 98q25 -16 25 -61q0 -51 -44 -75t-91.5 -7t-55.5 66q-9 49 25 82t84 39q61 7 115.5 -21t74.5 -82q30 -80 -9.5 -147.5t-123.5 -89.5q-58 -16 -120.5 -1.5t-108.5 54.5q-81 69 -81 183q0 69 30.5 125t84.5 90q75 47 176 42q85 -5 135 -55
q6 -18 -3.5 -28.5t-27.5 0.5q-64 52 -159 40.5t-146 -74.5q-49 -61 -49 -141q0 -74 56 -121t139 -47q125 0 166 66q3 5 12 41z" />
    <glyph glyph-name="sin.koo" unicode="&#xd9a;&#xddd;" horiz-adv-x="1594" 
d="M717 333l-27 -29q-44 -48 -109 -156q-1 -3 -0.5 -6t3.5 -2q13 1 30.5 -13t41.5 -28.5t54 -14.5q99 0 94 106q0 6 8 14q6 6 13 6q14 -4 20 -19q-6 -58 30 -87.5t93 -14.5q51 14 70.5 55.5t8.5 86.5t-45 85t-80 51q-35 10 -95 6.5t-83 -20.5zM1101 53q13 -8 35 -7t34 8
q64 26 84 92.5t0.5 135t-61.5 112.5q-19 20 -54 42q-83 51 -174.5 44.5t-162.5 -62.5q-9 -11 -12 -11q83 16 148 -1q74 -18 116.5 -69.5t48.5 -125.5q4 -35 -13 -81q-20 -55 -62.5 -91.5t-95.5 -30.5q-73 7 -102 67q-7 4 -10 -1q-31 -60 -105 -67q-25 -2 -48 10.5t-33 23.5
t-32 37q-2 2 -9 10t-12 12t-12 7q-6 1 -8 -1q0 -1 -1 -1q-4 -13 -15 -22q-11 -7 -21 0.5t-8 19.5q2 10 6.5 20.5t13.5 26.5t11 19q37 68 95 142q25 32 44 52q3 4 12.5 13t11.5 13q11 40 -6 66t-54 2q-27 -18 -31 -85q-2 -32 -11 -45t-34 -18q-12 -3 -23 9t-12 24q-5 39 7 71
q24 72 95 97q43 15 77.5 -8.5t36.5 -66.5q146 119 284 115q132 -4 211.5 -116.5t57.5 -243.5q-10 -65 -44.5 -113.5t-92.5 -65.5q-20 -8 -52 -3.5t-44 22.5q-6 13 4 22t22 1zM1510 772q3 -12 3 -24v-47q6 -10 29 -10q28 1 34 42q7 42 -16 57q-13 8 -29 2t-21 -20zM1513 657
v-242q2 -2 3.5 -5.5t2.5 -5.5q24 -41 31 -98q17 -141 -17 -221q-25 -57 -65 -82q-40 -24 -91 -5.5t-64 63.5q-2 9 4 16.5t16.5 7t19.5 -12.5q31 -42 64 -40q35 3 49.5 66.5t14.5 126.5q0 196 -63 202q-37 3 -65 -39q-11 -17 -25.5 -13.5t-14.5 23.5q12 38 52 58t79 10
q13 -4 26 -11l2 294q-4 28 -32 42q-6 5 -22 9q-18 6 -13.5 23.5t25.5 15.5q35 -9 55 -29q29 34 64 29q31 -5 43 -19q20 -20 25.5 -51.5t-3.5 -57.5q-13 -46 -48 -57q-26 -9 -53 3zM320 268q-12 34 -66 30q-53 -22 -38 -72q8 -25 40.5 -30t50.5 13q25 23 13 59zM444 182
l-3 24q-10 78 -101 98q25 -16 25 -61q0 -51 -44 -75t-91.5 -7t-55.5 66q-9 49 25 82t84 39q61 7 115.5 -21t74.5 -82q30 -80 -9.5 -147.5t-123.5 -89.5q-58 -16 -120.5 -1.5t-108.5 54.5q-81 69 -81 183q0 69 30.5 125t84.5 90q75 47 176 42q85 -5 135 -55q6 -18 -3.5 -28.5
t-27.5 0.5q-64 52 -159 40.5t-146 -74.5q-49 -61 -49 -141q0 -74 56 -121t139 -47q125 0 166 66q3 5 12 41z" />
    <glyph glyph-name="sin.kau" unicode="&#xd9a;&#xdde;" horiz-adv-x="1705" 
d="M717 333l-27 -29q-44 -48 -109 -156q-1 -3 -0.5 -6t3.5 -2q13 1 30.5 -13t41.5 -28.5t54 -14.5q99 0 94 106q0 6 8 14q6 6 13 6q14 -4 20 -19q-6 -58 30 -87.5t93 -14.5q51 14 70.5 55.5t8.5 86.5t-45 85t-80 51q-35 10 -95 6.5t-83 -20.5zM1101 53q13 -8 35 -7t34 8
q64 26 84 92.5t0.5 135t-61.5 112.5q-19 20 -54 42q-83 51 -174.5 44.5t-162.5 -62.5q-9 -11 -12 -11q83 16 148 -1q74 -18 116.5 -69.5t48.5 -125.5q4 -35 -13 -81q-20 -55 -62.5 -91.5t-95.5 -30.5q-73 7 -102 67q-7 4 -10 -1q-31 -60 -105 -67q-25 -2 -48 10.5t-33 23.5
t-32 37q-2 2 -9 10t-12 12t-12 7q-6 1 -8 -1q0 -1 -1 -1q-4 -13 -15 -22q-11 -7 -21 0.5t-8 19.5q2 10 6.5 20.5t13.5 26.5t11 19q37 68 95 142q25 32 44 52q3 4 12.5 13t11.5 13q11 40 -6 66t-54 2q-27 -18 -31 -85q-2 -32 -11 -45t-34 -18q-12 -3 -23 9t-12 24q-5 39 7 71
q24 72 95 97q43 15 77.5 -8.5t36.5 -66.5q146 119 284 115q132 -4 211.5 -116.5t57.5 -243.5q-10 -65 -44.5 -113.5t-92.5 -65.5q-20 -8 -52 -3.5t-44 22.5q-6 12 5 22.5t21 0.5zM1415 484q20 -2 23 -17t-16 -23q-30 -8 -42.5 -44t0 -71t44.5 -40q16 -5 35.5 4t23.5 27
q3 19 -4.5 35t-26.5 16q-18 5 -18 24q0 55 55 80.5t101 -4.5q25 -16 40 -44t20.5 -66t7 -62t0.5 -61q-4 -157 -112 -225q-44 -29 -110.5 -6.5t-78.5 75.5q0 20 16 24t24 -14q8 -29 44 -42.5t65 -3.5q53 18 72 93.5t14 165.5q-9 142 -81 129q-24 -5 -32 -28q29 -13 41.5 -44
t-0.5 -62q-24 -53 -93 -53q-38 0 -62.5 28t-29.5 67q-6 48 14.5 89.5t65.5 52.5zM320 268q-12 34 -66 30q-53 -22 -38 -72q8 -25 40.5 -30t50.5 13q25 23 13 59zM444 182l-3 24q-10 78 -101 98q25 -16 25 -61q0 -51 -44 -75t-91.5 -7t-55.5 66q-9 49 25 82t84 39
q61 7 115.5 -21t74.5 -82q30 -80 -9.5 -147.5t-123.5 -89.5q-58 -16 -120.5 -1.5t-108.5 54.5q-81 69 -81 183q0 69 30.5 125t84.5 90q75 47 176 42q85 -5 135 -55q6 -18 -3.5 -28.5t-27.5 0.5q-64 52 -159 40.5t-146 -74.5q-49 -61 -49 -141q0 -74 56 -121t139 -47
q125 0 166 66q3 5 12 41z" />
    <glyph glyph-name="sin.kra" unicode="&#xd9a;&#xdca;&#x200d;&#xdbb;" horiz-adv-x="865" 
d="M276 362q-1 0 -4 -1.5t-7.5 -3t-9.5 -2.5q-15 -17 -26 -23l-27 -30q-53 -58 -109 -156q-3 -8 3 -8q13 1 30.5 -12.5t41.5 -28t54 -14.5q94 0 94 106q1 0 1 1q6 19 20 18q15 -4 20 -18q-6 -59 30 -89.5t93 -13.5q64 20 78.5 82t-22.5 122t-103 75q-28 7 -78 6.5t-79 -10.5
zM700 496l44 -39q101 -112 76 -269q-7 -38 -19 -64q-10 -178 -75 -259q-38 -47 -86 -66.5t-117 -26.5q-53 -4 -105 6q-171 34 -241 151q-7 19 6.5 27t28.5 -5q30 -50 87 -81q55 -30 138.5 -33.5t150.5 18.5q62 20 104 63t53 95q5 25 8 37q-27 -26 -70 -40q-20 -8 -52 -3.5
t-44 22.5q-6 12 4 22.5t22 -0.5q15 -7 34.5 -6t33.5 7q49 20 73 64.5t21.5 94.5t-21 99t-49.5 82q-19 20 -54 42q-84 52 -175 45.5t-162 -62.5l-8 -9q101 6 144 -4q73 -17 115 -69t49 -126q4 -36 -12 -80q-19 -55 -61 -91t-97 -32q-32 2 -60 20.5t-43 46.5q-5 11 -10 -1
q-14 -28 -42.5 -46t-61.5 -21q-15 -1 -28 1.5t-27 12.5t-19.5 14.5t-21.5 22.5t-18 20q-3 3 -9 10t-11 11.5t-12 7.5q-6 5 -8 -1h-1q-5 -12 -16 -23q-10 -7 -20.5 1.5t-8.5 19.5q3 9 32 65q47 86 95 143q26 33 43 51q3 4 12.5 13t11.5 14q11 40 -5.5 66t-53.5 2
q-27 -18 -31 -85q-2 -31 -11.5 -45t-33.5 -19q-12 -3 -22.5 9t-13.5 25q-5 32 8 71q26 74 94 97q46 15 82.5 -7.5t32.5 -67.5l21 19q21 20 42 32q84 69 221 63q83 -4 149 -52z" />
    <glyph glyph-name="sin.kri" unicode="&#xd9a;&#xdca;&#x200d;&#xdbb;&#xdd2;" horiz-adv-x="862" 
d="M547 549q86 -4 152 -55l5 2q30 4 43 43q21 64 -53 110q-48 18 -114 20.5t-126 -19.5q-57 -25 -83 -60q-31 -41 -49 -112q47 37 107.5 55t117.5 16zM272 363l-3 -1l-18 -6q-15 -17 -26 -23l-27 -30q-53 -58 -109 -156q-3 -8 3 -8q13 1 30.5 -12.5t41.5 -28t54 -14.5
q94 0 94 106q1 0 1 1q6 19 20 18q15 -4 20 -18q-6 -59 30 -89.5t93 -13.5q64 20 78.5 82t-22.5 122t-103 75q-28 7 -78 6.5t-79 -10.5zM816 189l-3 -12q-10 -39 -16 -52q-10 -178 -75 -259q-38 -47 -86 -66.5t-117 -26.5q-53 -5 -105 6q-171 34 -241 151q-7 19 6.5 27
t28.5 -5q30 -50 87 -81q55 -30 138.5 -33.5t150.5 18.5q62 20 104 63t53 95q5 25 8 37q-27 -27 -70 -40q-20 -8 -52 -3.5t-44 22.5q-6 11 4.5 20t21.5 2q15 -7 34.5 -6t33.5 7q49 20 73 64.5t21.5 94.5t-21 99t-49.5 82q-19 19 -54 42q-84 52 -175 45.5t-162 -62.5l-8 -9
q101 6 144 -4q73 -17 115 -69t49 -126q4 -36 -12 -80q-19 -55 -61 -91t-97 -32q-32 2 -60 20.5t-43 46.5q-5 11 -10 -1q-14 -28 -42.5 -46t-61.5 -21q-15 -1 -28 1.5t-27 12.5t-19.5 14.5t-21.5 22.5t-18 20q-3 3 -9 10t-11 11.5t-12 7.5q-6 5 -8 -1h-1q-5 -12 -16 -23
q-10 -7 -20.5 1.5t-8.5 19.5q3 9 32 65q47 86 95 143q26 33 43 51q3 4 12.5 13t11.5 14q11 40 -5.5 66t-53.5 2q-27 -18 -31 -85q-2 -31 -11.5 -45t-33.5 -19q-12 -3 -22.5 9t-13.5 25q-5 32 8 71q26 74 94 97q44 14 78.5 -8.5t36.5 -66.5q0 3 0.5 4t1.5 0.5t3.5 0.5t5.5 3
q0 60 29 121t76 102q80 71 233 62q86 -5 136 -57q28 -28 40 -60q15 -39 -1 -85t-53 -64q49 -55 71 -127t11 -146z" />
    <glyph glyph-name="sin.krii" unicode="&#xd9a;&#xdca;&#x200d;&#xdbb;&#xdd3;" horiz-adv-x="862" 
d="M755 581q-7 28 -35 48q-44 -7 -65 -32q-5 -12 -8 -30q-2 -25 20.5 -42t47.5 -13q20 4 33 26t7 43zM382 595l-8 -11q-35 -48 -49 -109q47 37 107.5 55t117.5 16q33 -2 61 -9q-13 37 1 63q8 20 11 23q19 20 33 28q0 1 1 1q2 0 3 1q-40 9 -88 9q-132 0 -190 -67zM275 360
l-20 -7q-17 -17 -27 -23l-27 -30q-53 -58 -109 -156q-3 -8 3 -8q13 1 30.5 -12.5t41.5 -28t54 -14.5q99 0 94 106q1 0 1 1q6 19 20 18q15 -4 20 -18q-6 -59 30 -89.5t93 -13.5q48 14 68.5 55.5t12 87t-42.5 85.5t-84 51q-29 7 -79 6.5t-79 -10.5zM747 11l10 41
q-32 -32 -75 -44q-20 -8 -52 -3.5t-44 22.5q-4 7 0 16t11.5 11t14.5 -5q13 -8 35 -7t34 8q49 20 72.5 64.5t21 95t-21.5 99.5t-49 81q-20 20 -54 42q-84 52 -175 45.5t-162 -62.5l-8 -9q101 6 144 -4q73 -17 116 -69t49 -126q4 -34 -13 -80q-19 -55 -61.5 -91t-96.5 -32
q-32 2 -60 20.5t-42 46.5q-6 6 -10 -1q-31 -60 -105 -67q-25 -2 -48 10.5t-33 23.5t-32 37q-2 2 -9 10t-12 12t-12 7q-6 5 -8 -1h-1q-5 -13 -15 -23q-11 -7 -21 1t-8 20q2 10 7 20.5t13.5 25t10.5 19.5q45 82 95 143q20 26 44 51q3 5 12.5 14t11.5 13q11 40 -5.5 66t-54.5 2
q-27 -18 -31 -85q-2 -32 -11 -45.5t-34 -18.5q-12 -3 -22 8.5t-13 25.5q-5 32 8 71q27 76 94 97q43 14 77.5 -8.5t36.5 -66.5q0 3 0.5 4t1.5 0.5t3.5 0.5t5.5 3q0 60 29 121t76 102q69 59 189 64q72 3 135 -27t85 -92q11 -32 5 -58q-7 -29 -22 -48q-20 -23 -50 -29
q56 -53 81.5 -130.5t13.5 -156.5q-5 -32 -14 -54q-5 -88 -20 -153t-56 -116q-38 -48 -86 -67t-118 -26q-52 -4 -104 6q-172 34 -242 151q-6 18 7.5 26t27.5 -4q31 -52 87 -81q55 -30 138.5 -33.5t150.5 18.5q62 21 103 63.5t54 94.5z" />
    <glyph glyph-name="sin.kre" unicode="&#xd9a;&#xdca;&#x200d;&#xdbb;&#xdd9;" horiz-adv-x="1345" 
d="M753 362l-21 -7q-15 -17 -26 -23l-27 -30q-53 -58 -109 -156q-3 -8 3 -8q13 1 30.5 -12.5t41.5 -28t54 -14.5q94 0 94 106q1 0 1 1q6 19 20 18q15 -4 20 -18q-6 -59 30 -89.5t93 -13.5q49 15 69 57t11 87t-43.5 84.5t-83.5 50.5q-28 7 -78 6.5t-79 -10.5zM1177 496
l44 -39q101 -112 76 -269q-7 -38 -19 -64q-10 -178 -75 -259q-38 -47 -86 -66.5t-117 -26.5q-52 -4 -105 6q-171 34 -241 151q-7 19 6.5 27t28.5 -5q30 -50 87 -81q55 -30 138.5 -33.5t150.5 18.5q62 20 104 63t53 95q5 25 8 37q-26 -26 -70 -40q-20 -8 -52 -3.5t-44 22.5
q-6 12 4 22.5t22 -0.5q15 -7 34.5 -6t33.5 7q49 20 73 64.5t21.5 94.5t-21 99t-49.5 82q-20 20 -54 42q-84 52 -175 45.5t-162 -62.5l-8 -9q101 6 144 -4q73 -17 115 -69t49 -126q4 -36 -12 -80q-19 -55 -61 -91t-97 -32q-32 2 -60 20.5t-43 46.5q-5 11 -10 -1
q-14 -28 -42.5 -46t-61.5 -21q-15 -1 -28 1.5t-27 12.5t-19.5 14.5t-21.5 22.5t-18 20q-3 3 -9 10t-11 11.5t-12 7.5q-6 5 -8 -1h-1q-5 -12 -16 -23q-10 -7 -20.5 1.5t-8.5 19.5q3 9 32 65q47 86 95 143q26 33 43 51q3 4 12.5 13t11.5 14q11 40 -5.5 66t-53.5 2
q-27 -18 -31 -85q-2 -31 -11.5 -45t-33.5 -19q-12 -3 -22.5 9t-13.5 25q-5 32 8 71q26 74 94 97q46 15 82.5 -7.5t32.5 -67.5l21 19q21 20 42 32q84 69 221 63q83 -4 149 -52zM320 268q-12 34 -66 30q-53 -22 -38 -72q8 -25 40.5 -30t50.5 13q25 23 13 59zM444 182l-3 24
q-10 78 -101 98q25 -16 25 -61q0 -51 -44 -75t-91.5 -7t-55.5 66q-9 49 25 82t84 39q61 7 115.5 -21t74.5 -82q30 -80 -9.5 -147.5t-123.5 -89.5q-58 -16 -120.5 -1.5t-108.5 54.5q-81 69 -81 183q0 69 30.5 125t84.5 90q75 47 176 42q85 -5 135 -55q6 -18 -3.5 -28.5
t-27.5 0.5q-64 52 -159 40.5t-146 -74.5q-49 -61 -49 -141q0 -74 56 -121t139 -47q125 0 166 66q3 5 12 41z" />
    <glyph glyph-name="sin.kree" unicode="&#xd9a;&#xdca;&#x200d;&#xdbb;&#xdda;" horiz-adv-x="1335" 
d="M1218 763v-50q19 -8 29 -7q28 1 34 42q7 42 -16 57q-13 8 -29 2t-21 -20q3 -12 3 -24zM750 362l-20 -7q-17 -17 -27 -23l-27 -30q-53 -58 -109 -156q-3 -8 3 -8q13 1 30.5 -12.5t41.5 -28t54 -14.5q95 0 95 106v1q6 19 21 18q13 -4 20 -18q-8 -58 29.5 -89t93.5 -14
q47 14 67 55.5t12 87t-41.5 85.5t-84.5 51q-29 7 -79 6.5t-79 -10.5zM1280 135l-1 -14q-6 -83 -21 -145t-53 -111q-36 -47 -84.5 -66.5t-119.5 -26.5q-51 -4 -105 6q-76 13 -140 52t-101 99q-7 19 6.5 27t28.5 -5q30 -50 87 -81q56 -30 139.5 -34t149.5 19q62 21 104 63.5
t53 94.5l9 42q-31 -33 -75 -45q-18 -8 -50.5 -3.5t-44.5 22.5q-3 7 0.5 16t10.5 11t14 -5q16 -7 35.5 -6t33.5 7q49 20 72.5 64.5t21 95t-21.5 99.5t-49 81q-20 20 -53 42q-85 53 -175.5 46t-161.5 -63l-8 -9q102 6 143 -4q74 -17 117.5 -69.5t47.5 -125.5q2 -42 -12 -80
q-19 -55 -61 -91t-97 -32q-32 2 -60 20.5t-43 46.5q-5 5 -10 -1q-31 -60 -105 -67q-13 -1 -25 2t-20 6t-20 13t-16 14t-16.5 18.5t-15.5 17.5q-2 2 -9 10t-12 12t-12 7q-4 3 -8 -1h-1q-5 -13 -15 -23q-10 -7 -20.5 1.5t-8.5 19.5q3 15 32 65q42 80 94 143q20 26 44 51
q3 4 12.5 13t11.5 14q11 39 -6 65.5t-53 2.5q-28 -19 -32 -85q-2 -32 -11 -45.5t-34 -18.5q-12 -3 -22 8.5t-13 25.5q-5 32 8 71q27 76 94 97q45 15 81.5 -7t32.5 -68l21 19q6 5 20.5 15.5t21.5 16.5q82 69 221 63q86 -4 149 -52l3 268q-4 31 -31 42l-22 9q-12 5 -14.5 15
t4.5 17.5t21 6.5q35 -9 55 -29q29 34 64 29q31 -5 43 -19q20 -20 25.5 -51.5t-3.5 -57.5q-13 -45 -47 -58q-24 -6 -55 2l1 -213q102 -108 76 -269q-5 -31 -14 -53zM320 268q-12 34 -66 30q-53 -22 -38 -72q8 -25 40.5 -30t50.5 13q25 23 13 59zM444 182l-3 24
q-10 78 -101 98q25 -16 25 -61q0 -51 -44 -75t-91.5 -7t-55.5 66q-9 49 25 82t84 39q61 7 115.5 -21t74.5 -82q30 -80 -9.5 -147.5t-123.5 -89.5q-58 -16 -120.5 -1.5t-108.5 54.5q-81 69 -81 183q0 69 30.5 125t84.5 90q75 47 176 42q85 -5 135 -55q6 -18 -3.5 -28.5
t-27.5 0.5q-64 52 -159 40.5t-146 -74.5q-49 -61 -49 -141q0 -74 56 -121t139 -47q125 0 166 66q3 5 12 41z" />
    <glyph glyph-name="sin.krai" unicode="&#xd9a;&#xdca;&#x200d;&#xdbb;&#xddb;" horiz-adv-x="1825" 
d="M799 268q-12 34 -66 30q-53 -22 -38 -72q8 -25 40.5 -30t50.5 13q25 23 13 59zM923 182l-3 24q-10 78 -101 98q25 -16 25 -61q0 -51 -44 -75t-91.5 -7t-55.5 66q-9 49 25 82t84 39q61 7 115.5 -21t74.5 -82q30 -80 -9.5 -147.5t-123.5 -89.5q-58 -16 -120.5 -1.5
t-108.5 54.5q-81 69 -81 183q0 69 30.5 125t84.5 90q75 47 176 42q85 -5 135 -55q6 -18 -3.5 -28.5t-27.5 0.5q-64 52 -159 40.5t-146 -74.5q-49 -61 -49 -141q0 -74 56 -121t139 -47q125 0 166 66q3 5 12 41zM1240 362q-1 0 -4 -1.5t-7.5 -3t-9.5 -2.5q-15 -17 -26 -23
l-27 -30q-53 -58 -109 -156q-3 -8 3 -8q13 1 30.5 -12.5t41.5 -28t54 -14.5q94 0 94 106q1 0 1 1q6 19 20 18q15 -4 20 -18q-6 -59 30 -89.5t93 -13.5q49 15 69 57t11 87t-43.5 84.5t-83.5 50.5q-28 7 -78 6.5t-79 -10.5zM1664 496l44 -39q101 -112 76 -269q-7 -38 -19 -64
q-10 -178 -75 -259q-38 -47 -86 -66.5t-117 -26.5q-53 -4 -105 6q-171 34 -241 151q-7 19 6.5 27t28.5 -5q30 -50 87 -81q55 -30 138.5 -33.5t150.5 18.5q62 20 104 63t53 95q5 25 8 37q-27 -26 -70 -40q-20 -8 -52 -3.5t-44 22.5q-6 12 4 22.5t22 -0.5q15 -7 34.5 -6
t33.5 7q49 20 73 64.5t21.5 94.5t-21 99t-49.5 82q-20 20 -54 42q-84 52 -175 45.5t-162 -62.5l-8 -9q101 6 144 -4q73 -17 115 -69t49 -126q4 -36 -12 -80q-19 -55 -61 -91t-97 -32q-32 2 -60 20.5t-43 46.5q-5 11 -10 -1q-14 -28 -42.5 -46t-61.5 -21q-15 -1 -28 1.5
t-27 12.5t-19.5 14.5t-21.5 22.5t-18 20q-3 3 -9 10t-11 11.5t-12 7.5q-6 5 -8 -1h-1q-5 -12 -16 -23q-10 -7 -20.5 1.5t-8.5 19.5q3 9 32 65q47 86 95 143q26 33 43 51q3 4 12.5 13t11.5 14q11 40 -5.5 66t-53.5 2q-27 -18 -31 -85q-2 -31 -11.5 -45t-33.5 -19
q-12 -3 -22.5 9t-13.5 25q-5 32 8 71q26 74 94 97q46 15 82.5 -7.5t32.5 -67.5l21 19q21 20 42 32q84 69 221 63q83 -4 149 -52zM320 268q-12 34 -66 30q-53 -22 -38 -72q8 -25 40.5 -30t50.5 13q25 23 13 59zM444 182l-3 24q-10 78 -101 98q25 -16 25 -61q0 -51 -44 -75
t-91.5 -7t-55.5 66q-9 49 25 82t84 39q61 7 115.5 -21t74.5 -82q30 -80 -9.5 -147.5t-123.5 -89.5q-58 -16 -120.5 -1.5t-108.5 54.5q-81 69 -81 183q0 69 30.5 125t84.5 90q75 47 176 42q85 -5 135 -55q6 -18 -3.5 -28.5t-27.5 0.5q-64 52 -159 40.5t-146 -74.5
q-49 -61 -49 -141q0 -74 56 -121t139 -47q125 0 166 66q3 5 12 41z" />
    <glyph glyph-name="sin.kro" unicode="&#xd9a;&#xdca;&#x200d;&#xdbb;&#xddc;" horiz-adv-x="1588" 
d="M1308 73q-3 9 3.5 16.5t17.5 7t19 -12.5q30 -42 63 -40q33 3 48.5 66.5t16.5 126.5q1 30 -0.5 58.5t-7 63t-20 56.5t-35.5 24q-37 3 -65 -39q-11 -17 -25.5 -13.5t-14.5 23.5q12 38 52 58t79 10q40 -10 74 -62q21 -32 31 -98q21 -136 -16 -221q-25 -57 -65 -82
q-40 -24 -91 -5t-64 63zM759 362l-21 -7q-15 -17 -26 -23l-27 -30q-53 -58 -109 -156q-3 -8 3 -8q13 1 30.5 -12.5t41.5 -28t54 -14.5q94 0 94 106q1 0 1 1q6 19 20 18q15 -4 20 -18q-6 -59 30 -89.5t93 -13.5q64 20 78.5 82t-22.5 122t-103 75q-28 7 -78 6.5t-79 -10.5z
M1183 496l44 -39q101 -112 76 -269q-7 -38 -19 -64q-10 -178 -75 -259q-38 -47 -86 -66.5t-117 -26.5q-52 -4 -105 6q-171 34 -241 151q-7 19 6.5 27t28.5 -5q30 -50 87 -81q55 -30 138.5 -33.5t150.5 18.5q62 20 104 63t53 95q5 25 8 37q-26 -26 -70 -40q-20 -8 -52 -3.5
t-44 22.5q-6 12 4 22.5t22 -0.5q15 -7 34.5 -6t33.5 7q49 20 73 64.5t21.5 94.5t-21 99t-49.5 82q-20 20 -54 42q-84 52 -175 45.5t-162 -62.5l-8 -9q101 6 144 -4q73 -17 115 -69t49 -126q4 -36 -12 -80q-19 -55 -61 -91t-97 -32q-32 2 -60 20.5t-43 46.5q-5 11 -10 -1
q-14 -28 -42.5 -46t-61.5 -21q-15 -1 -28 1.5t-27 12.5t-19.5 14.5t-21.5 22.5t-18 20q-3 3 -9 10t-11 11.5t-12 7.5q-6 5 -8 -1h-1q-5 -12 -16 -23q-10 -7 -20.5 1.5t-8.5 19.5q3 9 32 65q47 86 95 143q26 33 43 51q3 4 12.5 13t11.5 14q11 40 -5.5 66t-53.5 2
q-27 -18 -31 -85q-2 -31 -11.5 -45t-33.5 -19q-12 -3 -22.5 9t-13.5 25q-5 32 8 71q26 74 94 97q46 15 82.5 -7.5t32.5 -67.5l21 19q21 20 42 32q84 69 221 63q83 -4 149 -52zM320 268q-12 34 -66 30q-53 -22 -38 -72q8 -25 40.5 -30t50.5 13q25 23 13 59zM444 182l-3 24
q-10 78 -101 98q25 -16 25 -61q0 -51 -44 -75t-91.5 -7t-55.5 66q-9 49 25 82t84 39q61 7 115.5 -21t74.5 -82q30 -80 -9.5 -147.5t-123.5 -89.5q-58 -16 -120.5 -1.5t-108.5 54.5q-81 69 -81 183q0 69 30.5 125t84.5 90q75 47 176 42q85 -5 135 -55q6 -18 -3.5 -28.5
t-27.5 0.5q-64 52 -159 40.5t-146 -74.5q-49 -61 -49 -141q0 -74 56 -121t139 -47q125 0 166 66q3 5 12 41z" />
    <glyph glyph-name="sin.kroo" unicode="&#xd9a;&#xdca;&#x200d;&#xdbb;&#xddd;" horiz-adv-x="1601" 
d="M1504 772q3 -12 3 -24v-47q6 -10 29 -10q28 1 34 42q7 42 -16 57q-13 8 -29 2t-21 -20zM1507 657v-242q2 -2 3.5 -5.5t2.5 -5.5q24 -41 31 -98q17 -141 -17 -221q-25 -57 -65 -82q-40 -24 -91 -5.5t-64 63.5q-2 9 4 16.5t16.5 7t19.5 -12.5q31 -42 64 -40q35 3 49.5 66.5
t14.5 126.5q0 196 -63 202q-37 3 -65 -39q-11 -17 -25.5 -13.5t-14.5 23.5q12 38 52 58t79 10q13 -4 26 -11l2 294q-4 28 -32 42q-6 5 -22 9q-18 6 -13.5 23.5t25.5 15.5q35 -9 55 -29q29 34 64 29q31 -5 43 -19q20 -20 25.5 -51.5t-3.5 -57.5q-13 -46 -48 -57q-26 -9 -53 3
zM759 362l-21 -7q-15 -17 -26 -23l-27 -30q-53 -58 -109 -156q-3 -8 3 -8q13 1 30.5 -12.5t41.5 -28t54 -14.5q94 0 94 106q1 0 1 1q6 19 20 18q15 -4 20 -18q-6 -59 30 -89.5t93 -13.5q64 20 78.5 82t-22.5 122t-103 75q-28 7 -78 6.5t-79 -10.5zM1183 496l44 -39
q101 -112 76 -269q-7 -38 -19 -64q-10 -178 -75 -259q-38 -47 -86 -66.5t-117 -26.5q-52 -4 -105 6q-171 34 -241 151q-7 19 6.5 27t28.5 -5q30 -50 87 -81q55 -30 138.5 -33.5t150.5 18.5q62 20 104 63t53 95q5 25 8 37q-26 -26 -70 -40q-20 -8 -52 -3.5t-44 22.5
q-6 12 4 22.5t22 -0.5q15 -7 34.5 -6t33.5 7q49 20 73 64.5t21.5 94.5t-21 99t-49.5 82q-20 20 -54 42q-84 52 -175 45.5t-162 -62.5l-8 -9q101 6 144 -4q73 -17 115 -69t49 -126q4 -36 -12 -80q-19 -55 -61 -91t-97 -32q-32 2 -60 20.5t-43 46.5q-5 11 -10 -1
q-14 -28 -42.5 -46t-61.5 -21q-15 -1 -28 1.5t-27 12.5t-19.5 14.5t-21.5 22.5t-18 20q-3 3 -9 10t-11 11.5t-12 7.5q-6 5 -8 -1h-1q-5 -12 -16 -23q-10 -7 -20.5 1.5t-8.5 19.5q3 9 32 65q47 86 95 143q26 33 43 51q3 4 12.5 13t11.5 14q11 40 -5.5 66t-53.5 2
q-27 -18 -31 -85q-2 -31 -11.5 -45t-33.5 -19q-12 -3 -22.5 9t-13.5 25q-5 32 8 71q26 74 94 97q46 15 82.5 -7.5t32.5 -67.5l21 19q21 20 42 32q84 69 221 63q83 -4 149 -52zM320 268q-12 34 -66 30q-53 -22 -38 -72q8 -25 40.5 -30t50.5 13q25 23 13 59zM444 182l-3 24
q-10 78 -101 98q25 -16 25 -61q0 -51 -44 -75t-91.5 -7t-55.5 66q-9 49 25 82t84 39q61 7 115.5 -21t74.5 -82q30 -80 -9.5 -147.5t-123.5 -89.5q-58 -16 -120.5 -1.5t-108.5 54.5q-81 69 -81 183q0 69 30.5 125t84.5 90q75 47 176 42q85 -5 135 -55q6 -18 -3.5 -28.5
t-27.5 0.5q-64 52 -159 40.5t-146 -74.5q-49 -61 -49 -141q0 -74 56 -121t139 -47q125 0 166 66q3 5 12 41z" />
    <glyph glyph-name="sin.krau" unicode="&#xd9a;&#xdca;&#x200d;&#xdbb;&#xdde;" horiz-adv-x="1672" 
d="M1391 485q20 -2 23 -17t-16 -23q-30 -8 -42.5 -44t0 -71t44.5 -40q16 -5 35.5 4t23.5 27q3 19 -4.5 35t-26.5 16q-18 4 -18 24q0 55 55 80.5t101 -4.5q25 -16 40 -44t20.5 -66t7 -62t0.5 -61q-4 -157 -112 -225q-44 -29 -110.5 -6.5t-78.5 75.5q0 20 16 24t24 -14
q8 -29 44 -42.5t65 -3.5q53 18 72 93.5t14 165.5q-9 142 -81 129q-24 -5 -32 -28q29 -13 41.5 -44t-0.5 -62q-24 -53 -93 -53q-38 0 -62.5 28t-29.5 67q-6 48 14.5 89.5t65.5 52.5zM747 362l-21 -7q-15 -17 -26 -23l-27 -30q-53 -58 -109 -156q-3 -8 3 -8q13 1 30.5 -12.5
t41.5 -28t54 -14.5q94 0 94 106q1 0 1 1q6 19 20 18q15 -4 20 -18q-6 -59 30 -89.5t93 -13.5q64 20 78.5 82t-22.5 122t-103 75q-28 7 -78 6.5t-79 -10.5zM1171 496l44 -39q101 -112 76 -269q-7 -38 -19 -64q-10 -178 -75 -259q-38 -47 -86 -66.5t-117 -26.5q-52 -4 -105 6
q-171 34 -241 151q-7 19 6.5 27t28.5 -5q30 -50 87 -81q55 -30 138.5 -33.5t150.5 18.5q62 20 104 63t53 95q5 25 8 37q-27 -26 -70 -40q-20 -8 -52 -3.5t-44 22.5q-6 12 4 22.5t22 -0.5q15 -7 34.5 -6t33.5 7q49 20 73 64.5t21.5 94.5t-21 99t-49.5 82q-20 20 -54 42
q-84 52 -175 45.5t-162 -62.5l-8 -9q101 6 144 -4q73 -17 115 -69t49 -126q4 -36 -12 -80q-19 -55 -61 -91t-97 -32q-32 2 -60 20.5t-43 46.5q-5 11 -10 -1q-14 -28 -42.5 -46t-61.5 -21q-15 -1 -28 1.5t-27 12.5t-19.5 14.5t-21.5 22.5t-18 20q-3 3 -9 10t-11 11.5t-12 7.5
q-6 5 -8 -1h-1q-5 -12 -16 -23q-10 -7 -20.5 1.5t-8.5 19.5q3 9 32 65q47 86 95 143q26 33 43 51q3 4 12.5 13t11.5 14q11 40 -5.5 66t-53.5 2q-27 -18 -31 -85q-2 -31 -11.5 -45t-33.5 -19q-12 -3 -22.5 9t-13.5 25q-5 32 8 71q26 74 94 97q46 15 82.5 -7.5t32.5 -67.5
l21 19q21 20 42 32q84 69 221 63q83 -4 149 -52zM320 268q-12 34 -66 30q-53 -22 -38 -72q8 -25 40.5 -30t50.5 13q25 23 13 59zM444 182l-3 24q-10 78 -101 98q25 -16 25 -61q0 -51 -44 -75t-91.5 -7t-55.5 66q-9 49 25 82t84 39q61 7 115.5 -21t74.5 -82
q30 -80 -9.5 -147.5t-123.5 -89.5q-58 -16 -120.5 -1.5t-108.5 54.5q-81 69 -81 183q0 69 30.5 125t84.5 90q75 47 176 42q85 -5 135 -55q6 -18 -3.5 -28.5t-27.5 0.5q-64 52 -159 40.5t-146 -74.5q-49 -61 -49 -141q0 -74 56 -121t139 -47q125 0 166 66q3 5 12 41z" />
    <glyph glyph-name="sin.kya" unicode="&#xd9a;&#xdca;&#x200d;&#xdba;" horiz-adv-x="1301" 
d="M997 260l-18 -27q-6 -9 -28 -39.5t-34 -52t-19 -44.5q33 11 49 8t43 -20q50 -31 121 -20q36 6 65 35t34.5 69t-24.5 84q-11 15 -51 56t-55.5 74t-10.5 78q7 54 62.5 78t97.5 -12q32 -28 33.5 -66.5t-32.5 -63.5q-18 -8 -33 5t-4 28q24 24 10.5 50t-38.5 24
q-43 -5 -53 -38q-3 -9 -3.5 -18.5t0 -17.5t5 -17t6.5 -15t9.5 -15t11 -13t13 -13.5t12.5 -12t13.5 -12t12.5 -10.5q82 -74 78 -149q4 -42 -16.5 -81t-55.5 -61.5t-78 -30t-83 11.5q-14 6 -37.5 20t-37 20.5t-34 5.5t-40.5 -16q-2 -16 -2 -21q-2 -14 -12.5 -18.5t-19.5 1.5
t-9 20q3 91 48 160q15 23 41 60t36 53q51 97 18 157q-19 34 -48 30q-11 -2 -18 -8q-17 -23 -31 -31t-19.5 -7t-19.5 7q-16 10 -16 27t10 27q26 33 70.5 43.5t83.5 -15t45 -87.5q-1 -23 1 -34.5t-3 -31t-6 -27.5t-8.5 -24t-10 -22t-10.5 -21t-11 -20zM242 333l-27 -29
q-44 -48 -109 -156q-1 -3 -0.5 -6t3.5 -2q13 1 30.5 -13t41.5 -28.5t54 -14.5q99 0 94 106q0 6 8 14q6 6 13 6q14 -4 20 -19q-6 -58 30 -88t93 -14q40 11 61.5 40t20.5 65t-14.5 72t-44 64t-69.5 37q-35 9 -95 6t-83 -20zM626 53q13 -8 35 -7t34 8q64 26 84 92.5t0.5 135
t-61.5 112.5q-20 20 -54 42q-83 51 -174.5 44.5t-162.5 -62.5q-9 -11 -12 -11q83 16 148 -1q74 -18 116.5 -69.5t48.5 -125.5q4 -35 -13 -81q-20 -55 -62.5 -91.5t-95.5 -30.5q-73 7 -102 67q-7 4 -10 -1q-31 -60 -105 -67q-25 -2 -48 10.5t-33 23.5t-32 37q-25 26 -33 29
q-6 1 -8 -1q0 -1 -1 -1q-4 -13 -15 -22q-11 -7 -21 0.5t-8 19.5q2 10 6.5 20.5t13.5 26.5t11 19q37 68 95 142q25 32 44 52q3 4 12.5 13t11.5 13q11 40 -6 66t-54 2q-27 -18 -31 -85q-2 -32 -11 -45t-34 -18q-12 -3 -23 9t-12 24q-5 39 7 71q24 72 95 97q43 15 77.5 -8.5
t36.5 -66.5q146 119 284 115q132 -4 211.5 -116.5t57.5 -243.5q-10 -65 -44.5 -113.5t-92.5 -65.5q-20 -8 -52 -3.5t-44 22.5q-6 12 5 22.5t21 0.5z" />
    <glyph glyph-name="sin.kyu" unicode="&#xd9a;&#xdca;&#x200d;&#xdba;&#xdd4;" horiz-adv-x="1296" 
d="M978 261q-10 -16 -35 -48t-41 -59t-23 -55q19 8 35 8t27 -4.5t30 -15.5q51 -31 121 -20q38 6 69 34.5t40 69t-19 84.5q-15 22 -55 58.5t-61 70.5t-16 79q7 55 62 77t98 -12q33 -24 33.5 -64.5t-32.5 -64.5q-18 -8 -33 4.5t-3 28.5q24 24 10.5 50t-39.5 24q-43 -5 -53 -39
q-16 -57 54 -121q6 -5 27 -23q81 -66 77 -148q3 -21 -5 -56v-321q-3 -21 -22 -21h-280q-40 0 -60 6q-44 13 -66 43.5t-10 73.5q6 26 24 44q24 24 65.5 29.5t71.5 -4.5q19 -8 16.5 -23.5t-22.5 -17.5q-57 15 -95 -8q-20 -12 -22 -36t13 -41q21 -24 53 -24q22 0 65 18t75 17
q41 -1 86.5 -19t66.5 -17v235q-36 -36 -87 -47.5t-100 8.5q-14 6 -37.5 20t-37 20.5t-34 5.5t-40.5 -16q0 -5 -1 -11t-1 -10q-4 -23 -22 -21.5t-18 24.5q2 88 47 160q11 17 37 54t37 58q53 98 19 158q-20 34 -49 29q-10 -1 -18 -8q-12 -17 -22 -26t-19 -10t-13.5 0t-14.5 5
q-16 10 -16 27t10 27q26 34 70.5 45t83.5 -15t45 -88q-1 -25 1.5 -35.5t-3 -30.5t-6 -27t-8 -24.5t-9.5 -22t-10.5 -21t-10.5 -20.5zM229 333l-27 -29q-44 -48 -109 -156q-1 -3 -0.5 -6t3.5 -2q13 1 30.5 -13t41.5 -28.5t54 -14.5q99 0 94 106q0 6 8 14q6 6 13 6
q14 -4 20 -19q-6 -58 30 -88t93 -14q40 11 61.5 40t20.5 65t-14.5 72t-44 64t-69.5 37q-35 9 -95 6t-83 -20zM613 53q13 -8 35 -7t34 8q64 26 84 92.5t0.5 135t-61.5 112.5q-19 20 -54 42q-83 51 -174.5 44.5t-162.5 -62.5q-9 -11 -12 -11q83 16 148 -1q74 -18 116.5 -69.5
t48.5 -125.5q4 -35 -13 -81q-20 -55 -62.5 -91.5t-95.5 -30.5q-73 7 -102 67q-7 4 -10 -1q-31 -60 -105 -67q-25 -2 -48 10.5t-33 23.5t-32 37q-2 2 -9 10t-12 12t-12 7q-6 1 -8 -1q0 -1 -1 -1q-4 -13 -15 -22q-11 -7 -21 0.5t-8 19.5q2 10 6.5 20.5t13.5 26.5t11 19
q37 68 95 142q25 32 44 52q3 4 12.5 13t11.5 13q11 40 -6 66t-54 2q-27 -18 -31 -85q-2 -32 -11 -45t-34 -18q-12 -3 -23 9t-12 24q-5 39 7 71q24 72 95 97q43 15 77.5 -8.5t36.5 -66.5q146 119 284 115q132 -4 211.5 -116.5t57.5 -243.5q-10 -65 -44.5 -113.5t-92.5 -65.5
q-20 -8 -52 -3.5t-44 22.5q-6 12 5 22.5t21 0.5z" />
    <glyph glyph-name="sin.kyuu" unicode="&#xd9a;&#xdca;&#x200d;&#xdba;&#xdd6;" horiz-adv-x="1290" 
d="M979 258q-10 -16 -35 -48.5t-41.5 -59.5t-23.5 -55q7 3 13 5t12 2t10 1t10 -0.5t8.5 -2t10 -3.5t8.5 -4t10 -5t10 -5q59 -30 122 -20q37 6 69 35t41 69t-20 84q-15 21 -56.5 58t-62 71t-14.5 79q8 57 62.5 79.5t98.5 -13.5q32 -26 33 -64.5t-32 -65.5q-19 -8 -34 4.5
t-3 28.5q24 24 10.5 50t-39.5 24q-42 -5 -52 -38q-3 -9 -3.5 -18.5t0 -17.5t5 -17t6.5 -15t9.5 -15t11 -13t13 -13.5t12.5 -12t13.5 -12t12.5 -10.5q82 -74 78 -149q2 -36 -4 -51v-314q0 -32 -38 -32q-14 0 -62 24t-83 24q-34 0 -75.5 -23t-97.5 -20q-40 2 -66.5 36.5
t-17.5 80.5q4 23 25 44q47 46 137 25q18 -7 16 -23.5t-23 -16.5q-58 14 -94 -9q-20 -13 -22.5 -36.5t12.5 -40.5q9 -10 22.5 -17t19.5 -7q30 0 75 38t86 38q34 0 62.5 -17.5t48.5 -34.5t34 -16v228q-37 -37 -87.5 -48.5t-100.5 7.5q-15 6 -38 20t-36.5 21t-34.5 6t-41 -17
q0 -5 -0.5 -11t-0.5 -10q-2 -15 -12.5 -19.5t-19.5 2.5t-9 20q3 90 47 160q14 22 40 58.5t38 54.5q51 97 18 156q-19 34 -48 31q-11 -2 -19 -9q-24 -31 -40 -36.5t-29 6.5q-16 10 -16 26.5t10 26.5q26 34 70.5 45t83.5 -15t45 -88q-1 -23 1 -34.5t-3 -31t-6 -27.5t-8.5 -24
t-10 -22t-10.5 -21t-11 -20zM228 333l-27 -29q-44 -48 -109 -156q-1 -3 -0.5 -6t3.5 -2q13 1 30.5 -13t41.5 -28.5t54 -14.5q99 0 94 106q0 6 8 14q6 6 13 6q14 -4 20 -19q-6 -58 30 -87.5t93 -14.5q51 14 70.5 55.5t8.5 86.5t-45 85t-80 51q-35 10 -95 6.5t-83 -20.5z
M612 53q13 -8 35 -7t34 8q65 26 84.5 93t-0.5 135t-61 112q-20 20 -54 42q-83 51 -174.5 44.5t-162.5 -62.5q-9 -11 -12 -11q83 16 148 -1q74 -18 116.5 -69.5t48.5 -125.5q4 -35 -13 -81q-20 -55 -62.5 -91.5t-95.5 -30.5q-73 7 -102 67q-7 4 -10 -1q-31 -60 -105 -67
q-25 -2 -48 10.5t-33 23.5t-32 37q-25 26 -33 29q-6 1 -8 -1q0 -1 -1 -1q-4 -13 -15 -22q-11 -7 -21 0.5t-8 19.5q2 10 6.5 20.5t13.5 26.5t11 19q37 68 95 142q25 32 44 52q3 4 12.5 13t11.5 13q11 40 -6 66t-54 2q-27 -18 -31 -85q-2 -32 -11 -45t-34 -18q-12 -3 -23 9
t-12 24q-5 39 7 71q24 72 95 97q43 15 77.5 -8.5t36.5 -66.5q146 119 284 115q132 -4 211.5 -116.5t57.5 -243.5q-10 -65 -44.5 -113.5t-92.5 -65.5q-20 -8 -52 -3.5t-44 22.5q-6 12 5 22.5t21 0.5z" />
    <glyph glyph-name="sin.kyo" unicode="&#xd9a;&#xdca;&#x200d;&#xdba;&#xddc;" horiz-adv-x="2009" 
d="M1738 76q-3 9 3 17t17 7t20 -14q30 -43 64 -40t49 66t16 128q6 196 -63 202q-40 4 -66 -39q-11 -18 -25.5 -14t-14.5 24q12 38 52.5 57.5t79.5 9.5q40 -10 74 -61q23 -36 31 -98q16 -132 -17 -221q-22 -57 -65 -82q-40 -24 -91 -5.5t-64 63.5zM1448 265l-4 -7
q-8 -15 -47.5 -67t-48.5 -89q19 8 36 7.5t25.5 -4t30.5 -14.5q61 -31 122 -21q58 9 87 66t-13 122q-13 17 -52.5 57t-55 72.5t-9.5 78.5q8 55 60 78t101 -12q32 -24 31.5 -64.5t-31.5 -64.5q-18 -8 -33 4.5t-3 28.5q24 24 10.5 50t-39.5 24q-43 -6 -53 -39q-3 -10 -4 -20
t2 -20t5 -17.5t9.5 -17.5t11 -15t14.5 -15t14 -13t15 -14t14 -12q82 -70 78 -149q8 -88 -72 -142t-161 -18q-14 6 -38 20.5t-37.5 21t-34 5t-40.5 -17.5q0 -4 -0.5 -10t-0.5 -11q-4 -22 -23 -20t-18 24q3 89 47 159q14 21 39.5 58t37.5 55q51 99 18 158q-19 34 -48 29
q-10 -2 -18 -8q-12 -17 -22 -26t-19 -10t-13.5 0t-14.5 5q-16 10 -16 27t10 27q26 33 70.5 43.5t83.5 -15t45 -87.5q4 -40 -4 -76.5t-16.5 -53.5t-27.5 -50zM707 333l-27 -29q-44 -48 -109 -156q-1 -3 -0.5 -6t3.5 -2q13 1 30.5 -13t41.5 -28.5t54 -14.5q99 0 94 106
q0 6 8 14q6 6 13 6q14 -4 20 -19q-6 -58 30 -88t93 -14q40 11 61.5 40t20.5 65t-14.5 72t-44 64t-69.5 37q-35 9 -95 6t-83 -20zM1091 53q13 -8 35 -7t34 8q64 26 84 92.5t0.5 135t-61.5 112.5q-19 20 -54 42q-83 51 -174.5 44.5t-162.5 -62.5q-9 -11 -12 -11q83 16 148 -1
q74 -18 116.5 -69.5t48.5 -125.5q4 -35 -13 -81q-20 -55 -62.5 -91.5t-95.5 -30.5q-73 7 -102 67q-7 4 -10 -1q-31 -60 -105 -67q-25 -2 -48 10.5t-33 23.5t-32 37q-2 2 -9 10t-12 12t-12 7q-6 1 -8 -1q0 -1 -1 -1q-4 -13 -15 -22q-11 -7 -21 0.5t-8 19.5q2 10 6.5 20.5
t13.5 26.5t11 19q37 68 95 142q25 32 44 52q3 4 12.5 13t11.5 13q11 40 -6 66t-54 2q-27 -18 -31 -85q-2 -32 -11 -45t-34 -18q-12 -3 -23 9t-12 24q-5 39 7 71q24 72 95 97q43 15 77.5 -8.5t36.5 -66.5q146 119 284 115q132 -4 211.5 -116.5t57.5 -243.5
q-10 -65 -44.5 -113.5t-92.5 -65.5q-20 -8 -52 -3.5t-44 22.5q-6 12 5 22.5t21 0.5zM320 268q-12 34 -66 30q-53 -22 -38 -72q8 -25 40.5 -30t50.5 13q25 23 13 59zM444 182l-3 24q-10 78 -101 98q25 -16 25 -61q0 -51 -44 -75t-91.5 -7t-55.5 66q-9 49 25 82t84 39
q61 7 115.5 -21t74.5 -82q30 -80 -9.5 -147.5t-123.5 -89.5q-58 -16 -120.5 -1.5t-108.5 54.5q-81 69 -81 183q0 69 30.5 125t84.5 90q75 47 176 42q85 -5 135 -55q6 -18 -3.5 -28.5t-27.5 0.5q-64 52 -159 40.5t-146 -74.5q-49 -61 -49 -141q0 -74 56 -121t139 -47
q125 0 166 66q3 5 12 41z" />
    <glyph glyph-name="sin.kyoo" unicode="&#xd9a;&#xdca;&#x200d;&#xdba;&#xddd;" horiz-adv-x="2009" 
d="M1460 260l-18 -27q-6 -9 -28 -39.5t-34 -52t-19 -44.5q33 11 49 8t43 -20q50 -31 121 -20q36 6 65 35t34.5 69t-24.5 84q-11 15 -51 56t-55.5 74t-10.5 78q7 54 62.5 78t97.5 -12q32 -28 33.5 -66.5t-32.5 -63.5q-18 -8 -33 5t-4 28q24 24 10.5 50t-38.5 24
q-43 -5 -53 -38q-3 -9 -3.5 -18.5t0 -17.5t5 -17t6.5 -15t9.5 -15t11 -13t13 -13.5t12.5 -12t13.5 -12t12.5 -10.5q82 -74 78 -149q4 -42 -16.5 -81t-55.5 -61.5t-78 -30t-83 11.5q-14 6 -37.5 20t-37 20.5t-34 5.5t-40.5 -16q-2 -16 -2 -21q-2 -14 -12.5 -18.5t-19.5 1.5
t-9 20q3 91 48 160q15 23 41 60t36 53q51 97 18 157q-19 34 -48 30q-10 -1 -18 -8q-17 -23 -31 -31t-19.5 -7t-19.5 7q-16 10 -16 27t10 27q26 33 70.5 43.5t83.5 -15t45 -87.5q-1 -23 1 -34.5t-3 -31t-6 -27.5t-8.5 -24t-10 -22t-10.5 -21t-11 -20zM1903 783q3 -10 3 -23
v-47q6 -11 29 -11q28 4 34 42q7 42 -16 57q-13 8 -29 2t-21 -20zM1905 669l-2 -203q25 -15 48 -50q22 -33 31 -99q19 -127 -17 -220q-22 -56 -64 -82q-40 -24 -90.5 -5t-64.5 63q-3 9 3 17t17 7t20 -14q28 -43 63 -40q56 4 65 194q1 28 -0.5 58t-7 63.5t-20 56t-35.5 24.5
q-39 3 -65 -39q-11 -17 -25.5 -14t-14.5 24q12 35 45.5 54.5t71.5 15.5l2 281q-4 28 -31 42q-2 1 -11.5 4t-11.5 5q-18 6 -13.5 22.5t25.5 16.5q40 -14 55 -29q28 33 64 29q27 -3 43 -19q18 -21 24.5 -52t-2.5 -57q-13 -47 -48 -58q-26 -9 -54 4zM713 333l-27 -29
q-44 -48 -109 -156q-1 -3 -0.5 -6t3.5 -2q13 1 30.5 -13t41.5 -28.5t54 -14.5q99 0 94 106q0 6 8 14q6 6 13 6q14 -4 20 -19q-6 -58 30 -88t93 -14q40 11 61.5 40t20.5 65t-14.5 72t-44 64t-69.5 37q-35 9 -95 6t-83 -20zM1097 53q13 -8 35 -7t34 8q64 26 84 92.5t0.5 135
t-61.5 112.5q-19 20 -54 42q-83 51 -174.5 44.5t-162.5 -62.5q-9 -11 -12 -11q83 16 148 -1q74 -18 116.5 -69.5t48.5 -125.5q4 -35 -13 -81q-20 -55 -62.5 -91.5t-95.5 -30.5q-73 7 -102 67q-7 4 -10 -1q-31 -60 -105 -67q-25 -2 -48 10.5t-33 23.5t-32 37q-2 2 -9 10
t-12 12t-12 7q-6 1 -8 -1q0 -1 -1 -1q-4 -13 -15 -22q-11 -7 -21 0.5t-8 19.5q2 10 6.5 20.5t13.5 26.5t11 19q37 68 95 142q25 32 44 52q3 4 12.5 13t11.5 13q11 40 -6 66t-54 2q-27 -18 -31 -85q-2 -32 -11 -45t-34 -18q-12 -3 -23 9t-12 24q-5 39 7 71q24 72 95 97
q43 15 77.5 -8.5t36.5 -66.5q146 119 284 115q132 -4 211.5 -116.5t57.5 -243.5q-10 -65 -44.5 -113.5t-92.5 -65.5q-20 -8 -52 -3.5t-44 22.5q-6 12 5 22.5t21 0.5zM320 268q-12 34 -66 30q-53 -22 -38 -72q8 -25 40.5 -30t50.5 13q25 23 13 59zM444 182l-3 24
q-10 78 -101 98q25 -16 25 -61q0 -51 -44 -75t-91.5 -7t-55.5 66q-9 49 25 82t84 39q61 7 115.5 -21t74.5 -82q30 -80 -9.5 -147.5t-123.5 -89.5q-58 -16 -120.5 -1.5t-108.5 54.5q-81 69 -81 183q0 69 30.5 125t84.5 90q75 47 176 42q85 -5 135 -55q6 -18 -3.5 -28.5
t-27.5 0.5q-64 52 -159 40.5t-146 -74.5q-49 -61 -49 -141q0 -74 56 -121t139 -47q125 0 166 66q3 5 12 41z" />
    <glyph glyph-name="sin.rka" unicode="&#xdbb;&#xdca;&#x200d;&#xd9a;" horiz-adv-x="872" 
d="M510 599q13 -13 27 -17q19 2 25.5 18.5t-2.5 31t-27 12.5q-17 -2 -25 -16.5t2 -28.5zM278 365l-21 -7q-15 -17 -26 -23l-27 -30q-53 -58 -109 -156q-3 -8 3 -8q13 1 30.5 -12.5t41.5 -28t54 -14.5q94 0 94 106q1 0 1 1q6 19 20 18q15 -4 20 -18q-6 -59 30 -89.5t93 -13.5
q64 20 78.5 82t-22.5 122t-103 75q-28 7 -78 6.5t-79 -10.5zM567 551l10 -1q5 -1 17 -2.5t16 -3.5q108 -27 169 -132.5t43 -220.5q-10 -65 -44.5 -113t-92.5 -65q-20 -8 -52 -3.5t-44 22.5q-6 12 4 22.5t22 -0.5q15 -7 34.5 -6t33.5 7q49 20 73 64.5t21.5 94.5t-21 99
t-49.5 82q-19 19 -54 42q-84 52 -175 45.5t-162 -62.5l-8 -9q101 6 144 -4q73 -17 115 -69t49 -126q4 -36 -12 -80q-19 -55 -61 -91t-97 -32q-32 2 -60 20.5t-43 46.5q-5 11 -10 -1q-14 -28 -42.5 -46t-61.5 -21q-15 -1 -28 1.5t-27 12.5t-19.5 14.5t-21.5 22.5t-18 20
q-3 3 -9 10t-11 11.5t-12 7.5q-6 5 -8 -1h-1q-5 -12 -16 -23q-10 -7 -20.5 1.5t-8.5 19.5q3 9 32 65q47 86 95 143q26 33 43 51q3 4 12.5 13t11.5 14q11 40 -5.5 66t-53.5 2q-27 -18 -31 -85q-2 -31 -11.5 -45t-33.5 -19q-12 -3 -22.5 9t-13.5 25q-5 32 8 71q26 74 94 97
q46 15 82.5 -7.5t32.5 -67.5l21 19q21 20 42 32q49 41 124 57q-12 2 -22 6q-42 22 -55.5 71t9.5 89q40 72 148 72q67 0 113 -43q54 -51 32 -148q-10 -18 -25 -14t-15 24q8 40 1 60q-10 28 -40 46.5t-73 17.5q-42 0 -76 -22t-36 -57q-4 -48 55 -67q-23 36 5 75.5t79 27.5
q35 -8 48 -55q5 -20 -3 -43q-10 -21 -34 -34z" />
    <glyph glyph-name="sin.kh" unicode="&#xd9b;&#xdca;" horiz-adv-x="713" 
d="M112 86q0 -4 -2 -6l5 -6q4 -6 7 -9.5t7 -6.5t6.5 -4t8.5 -4.5t10 -5.5q24 -6 40 -3q20 3 33 23t10 41q-4 27 -34 40t-55 1q-17 -8 -24 -20q-5 -7 -12 -40zM26 252l2 14q10 71 65.5 117t130.5 55q93 12 160 -31q61 -39 80 -111.5t-9 -138.5q-19 -48 -49 -80q-10 -5 1 -10
q69 -17 120 26.5t79 128.5q20 60 15 138q-7 151 -105 214q-67 45 -164.5 55t-170.5 -11q-62 -14 -80 -24q-8 -1 -16.5 6t-7.5 15q6 17 20 23q-28 39 -18 79q4 37 35 61.5t78.5 34.5t84.5 13t77 3q137 -3 231 -70q24 -16 36 -46.5t3 -58.5q-2 -14 -12.5 -18.5t-19.5 1.5
t-9 20q3 30 -19.5 52.5t-61 34.5t-74 18t-73.5 8q-65 4 -150.5 -15t-85.5 -59q-4 -24 23 -44q102 34 236 16q143 -20 214 -97t79 -214q3 -79 -14 -149q-23 -97 -87 -160q-45 -44 -103 -48.5t-108 29.5q-5 1 -7 -1t-10 -8t-11 -7.5t-11.5 -6t-12 -4t-13.5 0.5q-20 15 -3 32
q4 3 13 9.5t14 10.5q43 32 73 72q25 35 31 76t-7.5 77t-53.5 61t-100 27q-87 2 -135.5 -30.5t-55.5 -89.5q-6 -56 13 -111q5 12 19 27q25 26 59.5 29t62 -11.5t44 -44.5t8.5 -64t-36 -56.5t-63 -18.5q-15 1 -32 6q-18 4 -38 20q-45 37 -67 103t-14 125z" />
    <glyph glyph-name="sin.khi" unicode="&#xd9b;&#xdd2;" horiz-adv-x="716" 
d="M122 90q0 -4 -2 -6l5 -6q4 -6 7 -9.5t7 -6.5t6.5 -4t8.5 -4.5t10 -5.5q24 -6 40 -3q20 3 33 23t10 41q-4 27 -34 40t-55 1q-17 -8 -24 -20q-5 -7 -12 -40zM631 364l-2 26q-5 65 -38.5 114.5t-84.5 77.5t-109 41t-119 11q-7 0 -23 -1q-29 -4 -59.5 -2t-55.5 7.5t-39 27
t-9 56.5q5 36 36 61t76.5 35t85 13.5t77.5 2.5q142 -5 230 -70q25 -18 37 -47.5t3 -57.5q-4 -22 -22.5 -20t-18.5 24q3 29 -19.5 51.5t-61 34.5t-74.5 18t-73 8q-69 3 -153.5 -14.5t-84.5 -58.5q0 -40 102 -32q87 8 164.5 -6t141 -49.5t102 -100.5t41.5 -153q3 -79 -14 -149
q-25 -99 -87 -160q-45 -44 -103 -48.5t-108 29.5q-5 1 -7 -1t-10 -8t-11 -7.5t-11.5 -6t-12 -4t-13.5 0.5q-20 15 -3 32q4 3 13 9.5t14 10.5q43 32 73 72q25 35 31 76t-7.5 77t-53.5 61t-100 27q-87 2 -135.5 -30.5t-55.5 -89.5q-6 -56 13 -111q5 12 19 27q25 26 59.5 29
t62 -11.5t44 -44.5t8.5 -64t-36 -56.5t-63 -18.5q-15 1 -32 6q-18 4 -38 20q-44 37 -65.5 102t-15.5 126q8 78 63.5 127t134.5 59q93 12 160 -31q61 -39 80 -111.5t-9 -138.5q-19 -48 -49 -80q-10 -5 1 -10q69 -17 120 26.5t79 128.5q21 64 15 138z" />
    <glyph glyph-name="sin.khii" unicode="&#xd9b;&#xdd3;" horiz-adv-x="717" 
d="M586 711q-12 18 -48 31q-10 -2 -24 -12q-13 -11 -14 -31.5t8 -31.5q9 -14 28 -20t37 4q16 12 18.5 31.5t-5.5 28.5zM123 88l-2 -6l5 -6q4 -6 7 -9.5t7 -6.5t6.5 -4t8.5 -4.5t10 -5.5q24 -6 40 -3q20 3 33 23t10 41q-4 27 -34 40t-55 1q-17 -8 -24 -20q-5 -7 -12 -40z
M420 659l57 -17q-17 20 -20 52q-4 36 28 65q-107 30 -226 10q-74 -11 -97 -25.5t-31 -39.5q0 -34 70 -34q19 0 54.5 1.5t57 1.5t51.5 -3t56 -11zM632 362v9q0 51 -12 85q-17 46 -50 80.5t-76.5 53.5t-88.5 29t-94 12q-13 1 -54 -0.5t-68 -1t-55.5 11t-36.5 31.5
q-15 38 0.5 68.5t50.5 48.5t71 28t68 12q163 10 254 -32q24 -11 37 -18.5t29.5 -23t25.5 -35.5q11 -27 -1 -61.5t-38 -42.5t-51 -6q83 -48 116 -135q18 -46 23 -116q4 -71 -14 -149q-25 -99 -87 -160q-45 -44 -103 -48.5t-108 29.5q-4 1 -7 -1q-2 -2 -10 -8t-11 -7.5
t-11.5 -6t-12 -4t-13.5 0.5q-20 15 -3 32q4 3 13 9.5t14 10.5q43 32 73 72q25 35 31 76t-7.5 77t-53.5 61t-100 27q-87 2 -135.5 -30.5t-55.5 -89.5q-6 -56 13 -111q5 12 19 27q25 26 59.5 29t62 -11.5t44 -44.5t8.5 -64t-36 -56.5t-63 -18.5q-15 1 -32 6q-18 4 -38 20
q-44 37 -65.5 102t-15.5 126q8 78 63.5 127t134.5 59q93 12 160 -31q61 -39 80 -111.5t-9 -138.5q-19 -48 -49 -80q-10 -5 1 -10q69 -17 120 26.5t79 128.5q15 45 15 138z" />
    <glyph glyph-name="sin.khu" unicode="&#xd9b;&#xdd4;" horiz-adv-x="698" 
d="M123 68q17 -18 40.5 -22.5t43.5 8.5t24 42q0 32 -21.5 48.5t-47.5 13t-39 -24.5q-13 -22 -12 -50q5 -7 12 -15zM400 70l15 -4q18 -5 35 -3q53 3 94 46.5t62 113.5q33 108 9 216.5t-99 186.5q-41 43 -100.5 62.5t-120.5 14.5t-114 -31q-33 -15 -59 -38q-4 -3 -9.5 -8
t-9 -7.5t-8.5 -5t-11 -2.5q-8 1 -13 7t-3 14q7 25 70 64q112 67 240 44q103 -18 174 -92.5t97 -170t16 -197.5q-4 -43 -12 -71l-8 -28l-2 -384q-3 -21 -23 -21q-70 -3 -222.5 -1t-222.5 1q-49 0 -69 6q-44 13 -65.5 43.5t-10.5 73.5q6 25 25 44q47 47 137 25q18 -8 16 -24
t-23 -16q-58 13 -95 -9q-20 -12 -22 -36t13 -41q16 -18 54 -24q4 -1 23 -1h17q36 0 93.5 18t98.5 18q47 0 104.5 -18t87.5 -18h43v271q-12 -20 -32 -40q-70 -67 -167 -41q-12 3 -47 24q-7 -6 -16 -11.5t-10 -6.5q-21 -14 -36 -9q-8 5 -9.5 14.5t5.5 17.5q4 4 14 10t14 9
q43 30 73 72q25 35 31 76t-8 77t-54 61t-100 27q-84 3 -133.5 -26.5t-58.5 -80.5q-9 -47 9 -105q5 -15 8 -21q6 18 14 29q29 41 82.5 35t78.5 -48q4 -8 6.5 -14.5t3 -9t1.5 -12.5t2 -14q-2 -41 -21 -64q-26 -32 -69.5 -35.5t-73.5 21.5q-53 41 -74 131t2 152
q19 57 70.5 90.5t115.5 42.5q90 11 160 -31q62 -38 80.5 -112t-9.5 -139q-19 -48 -54 -87z" />
    <glyph glyph-name="sin.khuu" unicode="&#xd9b;&#xdd6;" horiz-adv-x="712" 
d="M134 71q16 -18 40 -22.5t44.5 8.5t24.5 42q0 32 -21.5 49t-48 13.5t-39.5 -25.5q-14 -24 -11 -50q3 -5 11 -15zM613 -158v249q-10 -19 -32 -40q-70 -67 -167 -41q-21 5 -48 25q-7 -6 -15.5 -12t-9.5 -7q-19 -14 -36 -9q-21 14 -3 32q4 4 13.5 10t13.5 9q43 30 73 72
q25 35 31 76t-7.5 77t-53.5 61t-100 27q-84 3 -133.5 -26.5t-58.5 -80.5q-9 -47 8 -105q1 -1 3.5 -9t5.5 -12q3 11 13 29q28 40 83 34.5t79 -47.5q9 -16 13 -50q-6 -44 -22 -64q-27 -31 -70 -34.5t-73 20.5q-52 41 -73.5 131t1.5 152q19 57 70.5 90.5t116.5 42.5
q94 12 160 -31q62 -39 80.5 -111.5t-9.5 -139.5q-16 -40 -49 -79l-7 -8q33 -9 51 -7q53 3 93.5 46t62.5 114q33 104 8 216t-98 187q-62 64 -159 75.5t-176 -29.5q-27 -13 -59 -38q-3 -2 -8.5 -7.5t-8.5 -8t-8.5 -5t-12.5 -2.5q-18 1 -16 21q7 25 70 64q110 66 240 44
q104 -18 174.5 -92.5t96.5 -170t16 -197.5q-4 -43 -12 -71l-8 -28v-381q-2 -14 -16 -18.5t-26 3.5q-45 25 -75.5 34.5t-56 9.5t-63.5 -2q-40 -1 -110.5 -23t-129.5 -27q-49 -4 -82 10q-37 15 -54.5 45t-7.5 67q7 26 25 44q47 46 137 25q18 -7 16 -23.5t-23 -16.5
q-61 14 -95 -9q-19 -12 -21.5 -36t12.5 -41q21 -24 54 -24q67 0 155 54q78 43 165.5 31t152.5 -64z" />
    <glyph glyph-name="sin.khe" unicode="&#xd9b;&#xdd9;" horiz-adv-x="1190" 
d="M320 268q-12 34 -66 30q-53 -22 -38 -72q8 -25 40.5 -30t50.5 13q25 23 13 59zM444 182l-3 24q-10 78 -101 98q25 -16 25 -61q0 -51 -44 -75t-91.5 -7t-55.5 66q-9 49 25 82t84 39q61 7 115.5 -21t74.5 -82q30 -80 -9.5 -147.5t-123.5 -89.5q-58 -16 -120.5 -1.5
t-108.5 54.5q-81 69 -81 183q0 69 30.5 125t84.5 90q75 47 176 42q85 -5 135 -55q6 -18 -3.5 -28.5t-27.5 0.5q-64 52 -159 40.5t-146 -74.5q-49 -61 -49 -141q0 -74 56 -121t139 -47q125 0 166 66q3 5 12 41zM717 96q0 36 -28 53t-57 5t-32 -48q-2 -22 8.5 -38t27 -21
t33.5 -3t31 16t17 36zM759 100v2q-6 -44 -22 -65q-27 -31 -70 -34.5t-73 20.5q-52 41 -73.5 131t1.5 152q19 57 70.5 90.5t116.5 42.5q94 12 160 -31q62 -39 80.5 -111.5t-9.5 -139.5q-20 -50 -49 -79q-8 -8 1 -10q69 -17 120 26.5t79 128.5q34 105 9 216t-99 187
q-62 64 -159 75.5t-176 -29.5q-27 -13 -59 -38q-3 -2 -8.5 -7.5t-8.5 -8t-8.5 -5t-11.5 -2.5q-19 1 -17 21q7 25 70 64q111 66 241 44q70 -12 126 -51t89.5 -93.5t54 -121.5t19 -134t-14.5 -131q-27 -107 -83 -161q-46 -43 -102 -48.5t-108 29.5q-3 2 -8 0q-3 -2 -13 -10
t-13.5 -9.5t-15 -6t-16.5 0.5q-21 14 -3 32q4 4 13.5 10t13.5 9q38 27 73 72q26 34 31.5 75t-8 77.5t-54 61.5t-99.5 27q-84 3 -133.5 -27t-58.5 -80q-10 -49 8 -105q8 -16 9 -16.5t2 1.5q11 39 46 52.5t72 0.5t55 -43q4 -8 6.5 -14.5t3 -9t1.5 -13t2 -14.5z" />
    <glyph glyph-name="sin.khee" unicode="&#xd9b;&#xdda;" horiz-adv-x="1207" 
d="M599 86q0 -4 -2 -6l5 -6q4 -6 7 -9.5t7 -6.5t6.5 -4t8.5 -4.5t10 -5.5q24 -6 40 -3q20 3 33 23t10 41q-4 27 -34 40t-55 1q-17 -8 -24 -20q-5 -7 -12 -40zM513 252q8 78 63.5 127t134.5 59q93 12 160 -31q61 -39 80 -111.5t-9 -138.5q-19 -48 -49 -80q-10 -5 1 -10
q69 -17 120 26.5t79 128.5q20 60 15 138q-7 151 -105 214q-67 45 -164.5 55t-170.5 -11q-62 -14 -80 -24q-8 -1 -16.5 6t-7.5 15q6 17 20 23q-28 39 -18 79q4 37 35 61.5t78.5 34.5t84.5 13t77 3q137 -3 231 -70q24 -16 36 -46.5t3 -58.5q-2 -14 -12.5 -18.5t-19.5 1.5
t-9 20q3 30 -19.5 52.5t-61 34.5t-74 18t-73.5 8q-65 4 -150.5 -15t-85.5 -59q-4 -24 23 -44q102 34 236 16q143 -20 214 -97t79 -214q3 -79 -14 -149q-23 -97 -87 -160q-45 -44 -103 -48.5t-108 29.5q-4 1 -7 -1q-2 -2 -10 -8t-11 -7.5t-11.5 -6t-12 -4t-13.5 0.5
q-20 15 -3 32q4 3 13 9.5t14 10.5q43 32 73 72q25 35 31 76t-7.5 77t-53.5 61t-100 27q-87 2 -135.5 -30.5t-55.5 -89.5q-6 -56 13 -111q5 12 19 27q25 26 59.5 29t62 -11.5t44 -44.5t8.5 -64t-36 -56.5t-63 -18.5q-15 1 -32 6q-18 4 -38 20q-44 37 -65.5 102t-15.5 126z
M320 268q-12 34 -66 30q-53 -22 -38 -72q8 -25 40.5 -30t50.5 13q25 23 13 59zM444 182l-3 24q-10 78 -101 98q25 -16 25 -61q0 -51 -44 -75t-91.5 -7t-55.5 66q-9 49 25 82t84 39q61 7 115.5 -21t74.5 -82q30 -80 -9.5 -147.5t-123.5 -89.5q-58 -16 -120.5 -1.5
t-108.5 54.5q-81 69 -81 183q0 69 30.5 125t84.5 90q75 47 176 42q85 -5 135 -55q6 -18 -3.5 -28.5t-27.5 0.5q-64 52 -159 40.5t-146 -74.5q-49 -61 -49 -141q0 -74 56 -121t139 -47q125 0 166 66q3 5 12 41z" />
    <glyph glyph-name="sin.khai" unicode="&#xd9b;&#xddb;" horiz-adv-x="1686" 
d="M1209 92q0 36 -28 53t-57 5t-32 -48q-2 -22 8.5 -38t27 -21t33.5 -3t31 16t17 36zM1251 96v2q-6 -44 -22 -65q-27 -31 -70 -34.5t-73 20.5q-52 41 -73.5 131t1.5 152q19 57 70.5 90.5t116.5 42.5q94 12 160 -31q62 -39 80.5 -111.5t-9.5 -139.5q-20 -50 -49 -79
q-8 -8 1 -10q69 -17 120 26.5t79 128.5q34 105 9 216t-99 187q-62 64 -159 75.5t-176 -29.5q-27 -13 -59 -38q-3 -2 -8.5 -7.5t-8.5 -8t-8.5 -5t-11.5 -2.5q-19 1 -17 21q7 25 70 64q111 66 241 44q70 -12 126 -51t89.5 -93.5t54 -121.5t19 -134t-14.5 -131
q-27 -107 -83 -161q-46 -43 -102 -48.5t-108 29.5q-3 2 -8 0q-3 -2 -13 -10t-13.5 -9.5t-15 -6t-16.5 0.5q-21 14 -3 32q4 4 13.5 10t13.5 9q38 27 73 72q26 34 31.5 75t-8 77.5t-54 61.5t-99.5 27q-84 3 -133.5 -27t-58.5 -80q-10 -49 8 -105q1 -1 2 -5q7 -10 9 -10
q11 39 46 52.5t72 0.5t55 -43q4 -8 6.5 -14.5t3 -9t1.5 -13t2 -14.5zM320 268q-12 34 -66 30q-53 -22 -38 -72q8 -25 40.5 -30t50.5 13q25 23 13 59zM444 182l-3 24q-10 78 -101 98q25 -16 25 -61q0 -51 -44 -75t-91.5 -7t-55.5 66q-9 49 25 82t84 39q61 7 115.5 -21
t74.5 -82q30 -80 -9.5 -147.5t-123.5 -89.5q-58 -16 -120.5 -1.5t-108.5 54.5q-81 69 -81 183q0 69 30.5 125t84.5 90q75 47 176 42q85 -5 135 -55q6 -18 -3.5 -28.5t-27.5 0.5q-64 52 -159 40.5t-146 -74.5q-49 -61 -49 -141q0 -74 56 -121t139 -47q125 0 166 66q3 5 12 41
zM803 268q-12 34 -66 30q-53 -22 -38 -72q8 -25 40.5 -30t50.5 13q25 23 13 59zM927 182l-3 24q-10 78 -101 98q25 -16 25 -61q0 -51 -44 -75t-91.5 -7t-55.5 66q-9 49 25 82t84 39q61 7 115.5 -21t74.5 -82q30 -80 -9.5 -147.5t-123.5 -89.5q-58 -16 -120.5 -1.5
t-108.5 54.5q-81 69 -81 183q0 69 30.5 125t84.5 90q75 47 176 42q85 -5 135 -55q6 -18 -3.5 -28.5t-27.5 0.5q-64 52 -159 40.5t-146 -74.5q-49 -61 -49 -141q0 -74 56 -121t139 -47q125 0 166 66q3 5 12 41z" />
    <glyph glyph-name="sin.kho" unicode="&#xd9b;&#xddc;" horiz-adv-x="1456" 
d="M1187 73q-3 9 3.5 16.5t17.5 7t19 -12.5q30 -42 63 -40q33 3 48.5 66.5t16.5 126.5q1 30 -0.5 58.5t-7 63t-20 56.5t-35.5 24q-37 3 -65 -39q-11 -17 -25.5 -13.5t-14.5 23.5q12 38 52 58t79 10q40 -10 74 -62q21 -32 31 -98q21 -136 -16 -221q-25 -57 -65 -82
q-40 -24 -91 -5t-64 63zM723 92q0 36 -28 53t-57 5t-32 -48q-2 -22 8.5 -38t27 -21t33.5 -3t31 16t17 36zM765 96v2q-6 -44 -22 -65q-27 -31 -70 -34.5t-73 20.5q-52 41 -73.5 131t1.5 152q19 57 70.5 90.5t116.5 42.5q94 12 160 -31q62 -39 80.5 -111.5t-9.5 -139.5
q-20 -50 -49 -79q-8 -8 1 -10q69 -17 120 26.5t79 128.5q34 105 9 216t-99 187q-62 64 -159 75.5t-176 -29.5q-27 -13 -59 -38q-3 -2 -8.5 -7.5t-8.5 -8t-8.5 -5t-11.5 -2.5q-19 1 -17 21q7 25 70 64q111 66 241 44q70 -12 126 -51t89.5 -93.5t54 -121.5t19 -134t-14.5 -131
q-27 -107 -83 -161q-46 -43 -102 -48.5t-108 29.5q-3 2 -8 0q-3 -2 -13 -10t-13.5 -9.5t-15 -6t-16.5 0.5q-21 14 -3 32q4 4 13.5 10t13.5 9q38 27 73 72q26 34 31.5 75t-8 77.5t-54 61.5t-99.5 27q-84 3 -133.5 -27t-58.5 -80q-10 -49 8 -105q8 -16 9 -16.5t2 1.5
q11 39 46 52.5t72 0.5t55 -43q4 -8 6.5 -14.5t3 -9t1.5 -13t2 -14.5zM320 268q-12 34 -66 30q-53 -22 -38 -72q8 -25 40.5 -30t50.5 13q25 23 13 59zM444 182l-3 24q-10 78 -101 98q25 -16 25 -61q0 -51 -44 -75t-91.5 -7t-55.5 66q-9 49 25 82t84 39q61 7 115.5 -21
t74.5 -82q30 -80 -9.5 -147.5t-123.5 -89.5q-58 -16 -120.5 -1.5t-108.5 54.5q-81 69 -81 183q0 69 30.5 125t84.5 90q75 47 176 42q85 -5 135 -55q6 -18 -3.5 -28.5t-27.5 0.5q-64 52 -159 40.5t-146 -74.5q-49 -61 -49 -141q0 -74 56 -121t139 -47q125 0 166 66q3 5 12 41
z" />
    <glyph glyph-name="sin.khoo" unicode="&#xd9b;&#xddd;" horiz-adv-x="1469" 
d="M1384 785q3 -12 3 -24v-47q6 -10 29 -10q28 1 34 42q7 42 -16 57q-13 8 -29 2t-21 -20zM1387 670v-242q2 -2 3.5 -5.5t2.5 -5.5q24 -41 31 -98q17 -141 -17 -221q-25 -57 -65 -82q-40 -24 -91 -5.5t-64 63.5q-2 9 4 16.5t16.5 7t19.5 -12.5q31 -42 64 -40q35 3 49.5 66.5
t14.5 126.5q0 196 -63 202q-37 3 -65 -39q-11 -17 -25.5 -13.5t-14.5 23.5q12 38 52 58t79 10q13 -4 26 -11l2 294q-4 28 -32 42q-6 5 -22 9q-18 6 -13.5 23.5t25.5 15.5q35 -9 55 -29q29 34 64 29q31 -5 43 -19q20 -20 25.5 -51.5t-3.5 -57.5q-13 -46 -48 -57q-26 -9 -53 3
zM722 92q0 36 -28 53t-57 5t-32 -48q-2 -22 8.5 -38t27 -21t33.5 -3t31 16t17 36zM764 96v2q-6 -44 -22 -65q-27 -31 -70 -34.5t-73 20.5q-52 41 -73.5 131t1.5 152q19 57 70.5 90.5t116.5 42.5q94 12 160 -31q62 -39 80.5 -111.5t-9.5 -139.5q-20 -50 -49 -79q-8 -8 1 -10
q69 -17 120 26.5t79 128.5q34 105 9 216t-99 187q-62 64 -159 75.5t-176 -29.5q-27 -13 -59 -38q-3 -2 -8.5 -7.5t-8.5 -8t-8.5 -5t-11.5 -2.5q-19 1 -17 21q7 25 70 64q111 66 241 44q70 -12 126 -51t89.5 -93.5t54 -121.5t19 -134t-14.5 -131q-27 -107 -83 -161
q-46 -43 -102 -48.5t-108 29.5q-3 2 -8 0q-3 -2 -13 -10t-13.5 -9.5t-15 -6t-16.5 0.5q-21 14 -3 32q4 4 13.5 10t13.5 9q38 27 73 72q26 34 31.5 75t-8 77.5t-54 61.5t-99.5 27q-84 3 -133.5 -27t-58.5 -80q-10 -49 8 -105q8 -16 9 -16.5t2 1.5q11 39 46 52.5t72 0.5
t55 -43q4 -8 6.5 -14.5t3 -9t1.5 -13t2 -14.5zM320 268q-12 34 -66 30q-53 -22 -38 -72q8 -25 40.5 -30t50.5 13q25 23 13 59zM444 182l-3 24q-10 78 -101 98q25 -16 25 -61q0 -51 -44 -75t-91.5 -7t-55.5 66q-9 49 25 82t84 39q61 7 115.5 -21t74.5 -82q30 -80 -9.5 -147.5
t-123.5 -89.5q-58 -16 -120.5 -1.5t-108.5 54.5q-81 69 -81 183q0 69 30.5 125t84.5 90q75 47 176 42q85 -5 135 -55q6 -18 -3.5 -28.5t-27.5 0.5q-64 52 -159 40.5t-146 -74.5q-49 -61 -49 -141q0 -74 56 -121t139 -47q125 0 166 66q3 5 12 41z" />
    <glyph glyph-name="sin.khau" unicode="&#xd9b;&#xdde;" horiz-adv-x="1538" 
d="M1263 484q20 -2 23 -17t-16 -23q-30 -8 -42.5 -44t0 -71t44.5 -40q16 -5 35.5 4t23.5 27q3 19 -4.5 35t-26.5 16q-18 5 -18 24q0 55 55 80.5t101 -4.5q25 -16 40 -44t20.5 -66t7 -62t0.5 -61q-4 -157 -112 -225q-44 -29 -110.5 -6.5t-78.5 75.5q0 20 16 24t24 -14
q8 -29 44 -42.5t65 -3.5q53 18 72 93.5t14 165.5q-9 142 -81 129q-24 -5 -32 -28q29 -13 41.5 -44t-0.5 -62q-24 -53 -93 -53q-38 0 -62.5 28t-29.5 67q-6 48 14.5 89.5t65.5 52.5zM718 92q0 36 -28 53t-57 5t-32 -48q-2 -22 8.5 -38t27 -21t33.5 -3t31 16t17 36zM760 96v2
q-6 -44 -22 -65q-27 -31 -70 -34.5t-73 20.5q-52 41 -73.5 131t1.5 152q19 57 70.5 90.5t116.5 42.5q94 12 160 -31q62 -39 80.5 -111.5t-9.5 -139.5q-20 -50 -49 -79q-8 -8 1 -10q69 -17 120 26.5t79 128.5q34 105 9 216t-99 187q-62 64 -159 75.5t-176 -29.5
q-27 -13 -59 -38q-3 -2 -8.5 -7.5t-8.5 -8t-8.5 -5t-11.5 -2.5q-19 1 -17 21q7 25 70 64q111 66 241 44q70 -12 126 -51t89.5 -93.5t54 -121.5t19 -134t-14.5 -131q-27 -107 -83 -161q-46 -43 -102 -48.5t-108 29.5q-3 2 -8 0q-3 -2 -13 -10t-13.5 -9.5t-15 -6t-16.5 0.5
q-21 14 -3 32q4 4 13.5 10t13.5 9q38 27 73 72q26 34 31.5 75t-8 77.5t-54 61.5t-99.5 27q-84 3 -133.5 -27t-58.5 -80q-10 -49 8 -105q8 -16 9 -16.5t2 1.5q11 39 46 52.5t72 0.5t55 -43q4 -8 6.5 -14.5t3 -9t1.5 -13t2 -14.5zM320 268q-12 34 -66 30q-53 -22 -38 -72
q8 -25 40.5 -30t50.5 13q25 23 13 59zM444 182l-3 24q-10 78 -101 98q25 -16 25 -61q0 -51 -44 -75t-91.5 -7t-55.5 66q-9 49 25 82t84 39q61 7 115.5 -21t74.5 -82q30 -80 -9.5 -147.5t-123.5 -89.5q-58 -16 -120.5 -1.5t-108.5 54.5q-81 69 -81 183q0 69 30.5 125t84.5 90
q75 47 176 42q85 -5 135 -55q6 -18 -3.5 -28.5t-27.5 0.5q-64 52 -159 40.5t-146 -74.5q-49 -61 -49 -141q0 -74 56 -121t139 -47q125 0 166 66q3 5 12 41z" />
    <glyph glyph-name="sin.khra" unicode="&#xd9b;&#xdca;&#x200d;&#xdbb;" horiz-adv-x="719" 
d="M126 125q-13 -18 -12 -49q4 -8 12 -15q17 -18 40.5 -22.5t43.5 8t24 41.5q0 32 -21.5 49t-47.5 13t-39 -25zM359 21l-13 -7q-39 -20 -49 -17q-19 12 -4 31q5 5 15 11.5t13 8.5q40 27 73 72q25 35 31 76t-8 77t-54 61t-100 27q-84 3 -133 -27t-59 -81q-9 -46 9 -104
q5 -15 8 -21q6 18 14 29q29 41 82.5 35t78.5 -48q4 -8 6.5 -14.5t3 -9t1.5 -12.5t2 -14q-2 -41 -21 -64q-26 -32 -69.5 -35.5t-73.5 21.5q-53 42 -74 130.5t2 151.5q19 55 71 90t115 44q91 11 160 -32q62 -38 80.5 -111.5t-9.5 -138.5q-21 -52 -49 -80q-14 -7 11 -11l34 -3
q53 2 94 45.5t62 113.5q33 107 8.5 217.5t-98.5 186.5q-62 64 -160 75t-175 -29q-33 -15 -59 -38q-4 -3 -11.5 -9.5t-13 -10t-13.5 -4.5q-20 6 -16 21q7 26 70 65q111 66 240 43q78 -14 138.5 -60t94.5 -110.5t48 -139t6 -149.5q-2 -23 -12 -71q7 -228 -74 -328
q-62 -78 -209 -92q-55 -5 -105 5q-139 28 -211 151q-6 18 7 26.5t27 -3.5q37 -63 83 -88q112 -59 264 -8q62 21 104.5 63t54.5 94q4 17 7.5 39.5t3.5 24.5q-19 -29 -35 -45q-67 -64 -167 -41q-36 7 -47 21z" />
    <glyph glyph-name="sin.khri" unicode="&#xd9b;&#xdca;&#x200d;&#xdbb;&#xdd2;" horiz-adv-x="717" 
d="M131 130q-13 -18 -12 -50l12 -14q16 -18 39.5 -23t44 8t24.5 42q0 32 -21.5 48.5t-47.5 13t-39 -24.5zM623 358l-2 27q-5 65 -38 114.5t-84 77t-109 40.5t-120 11q-7 0 -29.5 -1.5t-33.5 -2t-32 0.5t-31.5 4t-25.5 9.5t-21.5 16.5t-10.5 25.5t-2 35.5q4 35 36 59.5
t77.5 35.5t86.5 15t76 2q137 -7 230 -70q25 -16 37 -46.5t3 -58.5q-4 -22 -22.5 -20t-18.5 24q3 29 -19.5 51.5t-61 34.5t-74.5 18t-73 8q-69 3 -153.5 -14.5t-84.5 -58.5q0 -40 101 -32q88 8 165 -6t140 -49.5t101.5 -100.5t43.5 -153q4 -69 -14 -149q7 -228 -73 -327
q-37 -46 -88 -65.5t-122 -26.5q-53 -5 -104 5q-137 27 -212 151q-6 18 7.5 26.5t27.5 -3.5q38 -64 83 -89q111 -58 263 -7q62 21 104.5 63t54.5 94q4 17 7.5 39.5t3.5 24.5q-7 -10 -14 -19.5t-13 -16.5t-7 -9q-64 -64 -168 -41q-36 7 -47 21q-7 -7 -30 -17t-31 -8
q-22 14 -4 32l8 6t10 7t10 7q38 27 72 72q26 33 31.5 74t-8 77.5t-54 62t-99.5 27.5q-84 2 -133.5 -28t-58.5 -80q-9 -43 8 -104q2 -2 4.5 -9.5t4.5 -11.5q7 20 13 28q28 41 82.5 35.5t79.5 -48.5q4 -8 6.5 -14.5t3 -9t1.5 -12.5t2 -14q-6 -44 -22 -63q-27 -31 -69 -34.5
t-73 20.5q-53 41 -75 129.5t2 152.5q19 55 72 89.5t115 43.5q91 13 160 -31q62 -39 80.5 -112.5t-9.5 -137.5q-19 -48 -49 -80q-14 -10 17 -13l27 -2q101 4 151 160q20 60 15 138z" />
    <glyph glyph-name="sin.khrii" unicode="&#xd9b;&#xdca;&#x200d;&#xdbb;&#xdd3;" horiz-adv-x="719" 
d="M577 708q-12 18 -48 31q-11 -1 -24 -12t-14 -31.5t8 -31.5q9 -14 28 -20t37 4q16 12 18.5 31.5t-5.5 28.5zM130 131l-6 -13q-7 -21 -6 -37l12 -14q16 -18 39.5 -23t44 8t24.5 42q0 32 -21.5 48.5t-47.5 13t-39 -24.5zM411 656l18 -5l39 -12q-17 20 -20 52q-4 36 28 65
q-107 30 -226 10q-74 -11 -97 -25.5t-31 -39.5q0 -34 70 -34q13 0 53.5 1.5t59.5 1t50 -3.5t56 -10zM623 359v18q0 40 -13 76q-21 60 -73.5 100.5t-110 56t-124.5 18.5q-13 1 -54 -0.5t-68 -1t-55.5 11t-36.5 31.5q-15 38 0.5 69t50.5 48.5t71 27.5t69 12q163 10 253 -32
q27 -13 39 -19.5t28 -22t25 -35.5q11 -27 -1 -61.5t-38 -42.5q-25 -7 -51 -6q84 -49 117 -135q18 -46 23 -116q5 -77 -15 -149q7 -228 -73 -327q-37 -46 -87.5 -65.5t-121.5 -26.5q-53 -5 -105 5q-139 28 -211 151q-6 18 7 26.5t27 -3.5q38 -64 83 -89q111 -59 264 -7
q62 21 104.5 63t54.5 94q4 17 7.5 39.5t3.5 24.5q-19 -29 -35 -45q-65 -65 -167 -41q-36 7 -47 21q-9 -7 -31.5 -17t-30.5 -8q-19 14 -4 32q4 3 13.5 9.5t14.5 10.5q43 30 73 72q25 34 30.5 75t-8 77.5t-53.5 61.5t-100 27q-84 2 -133.5 -28t-58.5 -80q-10 -48 9 -104
q2 -10 8 -21q5 17 14 28q28 41 82 35.5t79 -48.5q4 -8 6.5 -14.5t3 -9t1.5 -12.5t2 -14q-2 -40 -21 -63q-26 -32 -69.5 -35.5t-73.5 21.5q-53 42 -74 130.5t2 151.5q19 55 71.5 89.5t114.5 43.5q92 13 160 -31q62 -39 80.5 -112.5t-9.5 -137.5q-21 -52 -49 -80
q-13 -9 12 -13q17 -3 33 -2q101 3 151 160q15 45 15 138z" />
    <glyph glyph-name="sin.khre" unicode="&#xd9b;&#xdca;&#x200d;&#xdbb;&#xdd9;" horiz-adv-x="1190" 
d="M603 125q-13 -18 -12 -49q5 -8 12 -15q17 -18 40.5 -22.5t43.5 8t24 41.5q0 32 -21.5 49t-47.5 13t-39 -25zM836 21q-10 -8 -31.5 -17t-30.5 -7q-19 12 -4 31q5 5 15 11.5t13 8.5q40 27 73 72q25 35 31 76t-8 77t-54 61t-100 27q-84 3 -133 -27t-59 -81q-9 -46 9 -104
q5 -15 8 -21q6 18 14 29q29 41 82.5 35t78.5 -48q4 -8 6.5 -14.5t3 -9t1.5 -12.5t2 -14q-2 -41 -21 -64q-26 -32 -69.5 -35.5t-73.5 21.5q-53 42 -74 130.5t2 151.5q19 55 71 90t115 44q91 11 160 -32q62 -38 80.5 -111.5t-9.5 -138.5q-21 -52 -49 -80q-14 -7 11 -11l34 -3
q53 2 94 45.5t62 113.5q33 107 8.5 217.5t-98.5 186.5q-62 64 -160 75t-175 -29q-33 -15 -59 -38q-4 -3 -11.5 -9.5t-13 -10t-13.5 -4.5q-20 6 -16 21q7 26 70 65q111 66 240 43q78 -14 138.5 -60t94.5 -110.5t48 -139t6 -149.5q-2 -23 -12 -71q7 -228 -74 -328
q-62 -78 -209 -92q-55 -5 -105 5q-139 28 -211 151q-6 18 7 26.5t27 -3.5q37 -63 83 -88q112 -59 264 -8q62 21 104.5 63t54.5 94q4 17 7.5 39.5t3.5 24.5q-19 -29 -35 -45q-67 -64 -167 -41q-36 7 -47 21zM320 268q-12 34 -66 30q-53 -22 -38 -72q8 -25 40.5 -30t50.5 13
q25 23 13 59zM444 182l-3 24q-10 78 -101 98q25 -16 25 -61q0 -51 -44 -75t-91.5 -7t-55.5 66q-9 49 25 82t84 39q61 7 115.5 -21t74.5 -82q30 -80 -9.5 -147.5t-123.5 -89.5q-58 -16 -120.5 -1.5t-108.5 54.5q-81 69 -81 183q0 69 30.5 125t84.5 90q75 47 176 42
q85 -5 135 -55q6 -18 -3.5 -28.5t-27.5 0.5q-64 52 -159 40.5t-146 -74.5q-49 -61 -49 -141q0 -74 56 -121t139 -47q125 0 166 66q3 5 12 41z" />
    <glyph glyph-name="sin.khree" unicode="&#xd9b;&#xdca;&#x200d;&#xdbb;&#xdda;" horiz-adv-x="1197" 
d="M607 132q-13 -18 -12 -50q5 -8 12 -15q17 -18 40.5 -22.5t43.5 8.5t24 42q0 32 -21.5 48.5t-47.5 13t-39 -24.5zM1085 222l7 27q10 39 8 111q-6 148 -105 213q-69 45 -164.5 55.5t-170.5 -10.5q-58 -13 -80 -24q-8 -2 -16.5 5.5t-7.5 15.5q5 15 20 23q-28 38 -18 78
q4 36 35.5 61.5t77.5 35.5t86 13.5t76 2.5q139 -5 231 -70q24 -16 36 -46.5t3 -58.5q-4 -23 -22.5 -21t-18.5 24q3 30 -19.5 52t-61 34.5t-74.5 18.5t-73 8q-26 1 -62.5 -1.5t-77 -10t-68.5 -24t-28 -38.5q-4 -24 23 -44q108 34 237 16q143 -20 214.5 -97.5t78.5 -213.5
q5 -78 -15 -149q7 -229 -73 -327q-38 -46 -88.5 -65.5t-120.5 -26.5q-55 -5 -105 5q-139 28 -211 151q-6 19 7 27.5t27 -5.5q38 -64 83 -88q111 -59 264 -7q62 21 104.5 63t54.5 94q4 16 7.5 39.5t3.5 24.5q-21 -32 -35 -46q-64 -62 -167 -41q-37 8 -47 22q-9 -7 -31.5 -17
t-30.5 -8q-8 5 -9.5 14.5t5.5 17.5q4 4 14 10t14 9q43 30 73 72q25 35 31 76t-8 77t-54 61t-100 27q-84 3 -133.5 -26.5t-58.5 -80.5q-9 -47 9 -105q4 -12 8 -21q5 15 14 29q28 40 82.5 35t78.5 -48q4 -8 6.5 -14.5t3 -9t1.5 -12.5t2 -14q-2 -40 -21 -63
q-26 -30 -69.5 -34.5t-73.5 20.5q-52 44 -73.5 131t1.5 151q20 56 72 90.5t114 42.5q92 13 160 -31q62 -38 80.5 -112t-9.5 -139q-20 -50 -49 -79q-13 -9 12 -13q17 -3 33 -2q53 1 92.5 45t58.5 115zM320 268q-12 34 -66 30q-53 -22 -38 -72q8 -25 40.5 -30t50.5 13
q25 23 13 59zM444 182l-3 24q-10 78 -101 98q25 -16 25 -61q0 -51 -44 -75t-91.5 -7t-55.5 66q-9 49 25 82t84 39q61 7 115.5 -21t74.5 -82q30 -80 -9.5 -147.5t-123.5 -89.5q-58 -16 -120.5 -1.5t-108.5 54.5q-81 69 -81 183q0 69 30.5 125t84.5 90q75 47 176 42
q85 -5 135 -55q6 -18 -3.5 -28.5t-27.5 0.5q-64 52 -159 40.5t-146 -74.5q-49 -61 -49 -141q0 -74 56 -121t139 -47q125 0 166 66q3 5 12 41z" />
    <glyph glyph-name="sin.khrai" unicode="&#xd9b;&#xdca;&#x200d;&#xdbb;&#xddb;" horiz-adv-x="1677" 
d="M1099 125q-13 -18 -12 -49q5 -8 12 -15q17 -18 40.5 -22.5t43.5 8t24 41.5q0 32 -21.5 49t-47.5 13t-39 -25zM1332 21q-10 -8 -31.5 -17t-30.5 -7q-19 12 -4 31q5 5 15 11.5t13 8.5q40 27 73 72q25 35 31 76t-8 77t-54 61t-100 27q-84 3 -133 -27t-59 -81q-9 -46 9 -104
q5 -15 8 -21q6 18 14 29q29 41 82.5 35t78.5 -48q4 -8 6.5 -14.5t3 -9t1.5 -12.5t2 -14q-2 -41 -21 -64q-26 -32 -69.5 -35.5t-73.5 21.5q-53 42 -74 130.5t2 151.5q19 55 71 90t115 44q91 11 160 -32q62 -38 80.5 -111.5t-9.5 -138.5q-21 -52 -49 -80q-14 -7 11 -11l34 -3
q53 2 94 45.5t62 113.5q33 107 8.5 217.5t-98.5 186.5q-62 64 -160 75t-175 -29q-33 -15 -59 -38q-4 -3 -11.5 -9.5t-13 -10t-13.5 -4.5q-20 6 -16 21q7 26 70 65q111 66 240 43q78 -14 138.5 -60t94.5 -110.5t48 -139t6 -149.5q-2 -23 -12 -71q7 -228 -74 -328
q-62 -78 -209 -92q-55 -5 -105 5q-139 28 -211 151q-6 18 7 26.5t27 -3.5q37 -63 83 -88q112 -59 264 -8q62 21 104.5 63t54.5 94q4 17 7.5 39.5t3.5 24.5q-19 -29 -35 -45q-67 -64 -167 -41q-36 7 -47 21zM320 268q-12 34 -66 30q-53 -22 -38 -72q8 -25 40.5 -30t50.5 13
q25 23 13 59zM444 182l-3 24q-10 78 -101 98q25 -16 25 -61q0 -51 -44 -75t-91.5 -7t-55.5 66q-9 49 25 82t84 39q61 7 115.5 -21t74.5 -82q30 -80 -9.5 -147.5t-123.5 -89.5q-58 -16 -120.5 -1.5t-108.5 54.5q-81 69 -81 183q0 69 30.5 125t84.5 90q75 47 176 42
q85 -5 135 -55q6 -18 -3.5 -28.5t-27.5 0.5q-64 52 -159 40.5t-146 -74.5q-49 -61 -49 -141q0 -74 56 -121t139 -47q125 0 166 66q3 5 12 41zM800 268q-12 34 -66 30q-53 -22 -38 -72q8 -25 40.5 -30t50.5 13q25 23 13 59zM924 182l-3 24q-10 78 -101 98q25 -16 25 -61
q0 -51 -44 -75t-91.5 -7t-55.5 66q-9 49 25 82t84 39q61 7 115.5 -21t74.5 -82q30 -80 -9.5 -147.5t-123.5 -89.5q-58 -16 -120.5 -1.5t-108.5 54.5q-81 69 -81 183q0 69 30.5 125t84.5 90q75 47 176 42q85 -5 135 -55q6 -18 -3.5 -28.5t-27.5 0.5q-64 52 -159 40.5
t-146 -74.5q-49 -61 -49 -141q0 -74 56 -121t139 -47q125 0 166 66q3 5 12 41z" />
    <glyph glyph-name="sin.khro" unicode="&#xd9b;&#xdca;&#x200d;&#xdbb;&#xddc;" horiz-adv-x="1456" 
d="M1178 73q-3 9 3.5 16.5t17.5 7t19 -12.5q30 -42 63 -40q33 3 48.5 66.5t16.5 126.5q1 30 -0.5 58.5t-7 63t-20 56.5t-35.5 24q-37 3 -65 -39q-11 -17 -25.5 -13.5t-14.5 23.5q12 38 52 58t79 10q40 -10 74 -62q21 -32 31 -98q21 -136 -16 -221q-25 -57 -65 -82
q-40 -24 -91 -5t-64 63zM619 133q-13 -18 -12 -49q5 -8 12 -15q17 -18 40.5 -22.5t43.5 8t24 41.5q0 32 -21.5 49t-47.5 13t-39 -25zM852 29q-10 -8 -31.5 -17t-30.5 -7q-19 12 -4 31q5 5 15 11.5t13 8.5q40 27 73 72q25 35 31 76t-8 77t-54 61t-100 27q-84 3 -133 -27
t-59 -81q-9 -46 9 -104q5 -15 8 -21q6 18 14 29q29 41 82.5 35t78.5 -48q4 -8 6.5 -14.5t3 -9t1.5 -12.5t2 -14q-2 -41 -21 -64q-26 -32 -69.5 -35.5t-73.5 21.5q-53 42 -74 130.5t2 151.5q19 55 71 90t115 44q91 11 160 -32q62 -38 80.5 -111.5t-9.5 -138.5
q-21 -52 -49 -80q-14 -7 11 -11q16 -3 34 -3q53 2 94 45.5t62 113.5q33 107 8.5 217.5t-98.5 186.5q-62 64 -160 75t-175 -29q-33 -15 -59 -38q-4 -3 -11.5 -9.5t-13 -10t-13.5 -4.5q-20 6 -16 21q7 26 70 65q111 66 240 43q78 -14 138.5 -60t94.5 -110.5t48 -139t6 -149.5
q-2 -23 -12 -71q7 -228 -74 -328q-62 -78 -209 -92q-55 -5 -105 5q-139 28 -211 151q-6 18 7 26.5t27 -3.5q37 -63 83 -88q112 -59 264 -8q62 21 104.5 63t54.5 94q4 17 7.5 39.5t3.5 24.5q-19 -29 -35 -45q-67 -64 -167 -41q-36 7 -47 21zM320 268q-12 34 -66 30
q-53 -22 -38 -72q8 -25 40.5 -30t50.5 13q25 23 13 59zM444 182l-3 24q-10 78 -101 98q25 -16 25 -61q0 -51 -44 -75t-91.5 -7t-55.5 66q-9 49 25 82t84 39q61 7 115.5 -21t74.5 -82q30 -80 -9.5 -147.5t-123.5 -89.5q-58 -16 -120.5 -1.5t-108.5 54.5q-81 69 -81 183
q0 69 30.5 125t84.5 90q75 47 176 42q85 -5 135 -55q6 -18 -3.5 -28.5t-27.5 0.5q-64 52 -159 40.5t-146 -74.5q-49 -61 -49 -141q0 -74 56 -121t139 -47q125 0 166 66q3 5 12 41z" />
    <glyph glyph-name="sin.khroo" unicode="&#xd9b;&#xdca;&#x200d;&#xdbb;&#xddd;" horiz-adv-x="1499" 
d="M1371 785q3 -12 3 -24v-47q6 -10 29 -10q28 1 34 42q7 42 -16 57q-13 8 -29 2t-21 -20zM1374 670v-242q1 -2 2.5 -5.5t3.5 -5.5q24 -41 31 -98q16 -132 -17 -221q-22 -57 -65 -82q-40 -24 -91 -5.5t-64 63.5q-2 9 4 16.5t16.5 7t19.5 -12.5q31 -42 64 -40q33 3 48.5 66.5
t16.5 126.5q6 196 -63 202q-40 4 -66 -39q-10 -16 -25 -13t-15 23q12 37 53 57.5t79 10.5q9 -2 26 -11l1 294q0 27 -31 42q-7 4 -22 9q-18 6 -14 23.5t25 15.5q31 -7 56 -29q27 34 63 29q31 -5 43 -19q19 -19 25 -51t-2 -58q-13 -46 -48 -57q-27 -9 -54 3zM609 133
q-13 -18 -12 -49q5 -8 12 -15q17 -18 40.5 -22.5t43.5 8t24 41.5q0 32 -21.5 49t-47.5 13t-39 -25zM842 29q-10 -8 -31.5 -17t-30.5 -7q-19 12 -4 31q5 5 15 11.5t13 8.5q40 27 73 72q25 35 31 76t-8 77t-54 61t-100 27q-84 3 -133 -27t-59 -81q-9 -46 9 -104q5 -15 8 -21
q6 18 14 29q29 41 82.5 35t78.5 -48q4 -8 6.5 -14.5t3 -9t1.5 -12.5t2 -14q-2 -41 -21 -64q-26 -32 -69.5 -35.5t-73.5 21.5q-53 42 -74 130.5t2 151.5q19 55 71 90t115 44q91 11 160 -32q62 -38 80.5 -111.5t-9.5 -138.5q-21 -52 -49 -80q-14 -7 11 -11q16 -3 34 -3
q53 2 94 45.5t62 113.5q33 107 8.5 217.5t-98.5 186.5q-62 64 -160 75t-175 -29q-33 -15 -59 -38q-4 -3 -11.5 -9.5t-13 -10t-13.5 -4.5q-20 6 -16 21q7 26 70 65q111 66 240 43q78 -14 138.5 -60t94.5 -110.5t48 -139t6 -149.5q-2 -23 -12 -71q7 -228 -74 -328
q-62 -78 -209 -92q-55 -5 -105 5q-139 28 -211 151q-6 18 7 26.5t27 -3.5q37 -63 83 -88q112 -59 264 -8q62 21 104.5 63t54.5 94q4 17 7.5 39.5t3.5 24.5q-19 -29 -35 -45q-67 -64 -167 -41q-36 7 -47 21zM320 268q-12 34 -66 30q-53 -22 -38 -72q8 -25 40.5 -30t50.5 13
q25 23 13 59zM444 182l-3 24q-10 78 -101 98q25 -16 25 -61q0 -51 -44 -75t-91.5 -7t-55.5 66q-9 49 25 82t84 39q61 7 115.5 -21t74.5 -82q30 -80 -9.5 -147.5t-123.5 -89.5q-58 -16 -120.5 -1.5t-108.5 54.5q-81 69 -81 183q0 69 30.5 125t84.5 90q75 47 176 42
q85 -5 135 -55q6 -18 -3.5 -28.5t-27.5 0.5q-64 52 -159 40.5t-146 -74.5q-49 -61 -49 -141q0 -74 56 -121t139 -47q125 0 166 66q3 5 12 41z" />
    <glyph glyph-name="sin.khrau" unicode="&#xd9b;&#xdca;&#x200d;&#xdbb;&#xdde;" horiz-adv-x="1538" 
d="M1267 484q20 -2 23 -17t-16 -23q-30 -8 -42.5 -44t0 -71t44.5 -40q16 -5 35.5 4t23.5 27q3 19 -4.5 35t-26.5 16q-18 5 -18 24q0 55 55 80.5t101 -4.5q25 -16 40 -44t20.5 -66t7 -62t0.5 -61q-4 -157 -112 -225q-44 -29 -110.5 -6.5t-78.5 75.5q0 20 16 24t24 -14
q8 -29 44 -42.5t65 -3.5q53 18 72 93.5t14 165.5q-9 142 -81 129q-24 -5 -32 -28q29 -13 41.5 -44t-0.5 -62q-24 -53 -93 -53q-38 0 -62.5 28t-29.5 67q-6 48 14.5 89.5t65.5 52.5zM612 125q-13 -18 -12 -49q4 -8 12 -15q17 -18 40.5 -22.5t43.5 8t24 41.5q0 32 -21.5 49
t-47.5 13t-39 -25zM845 21q-10 -8 -31.5 -17t-30.5 -7q-19 12 -4 31q5 5 15 11.5t13 8.5q40 27 73 72q25 35 31 76t-8 77t-54 61t-100 27q-84 3 -133 -27t-59 -81q-9 -46 9 -104q5 -15 8 -21q6 18 14 29q29 41 82.5 35t78.5 -48q4 -8 6.5 -14.5t3 -9t1.5 -12.5t2 -14
q-2 -41 -21 -64q-26 -32 -69.5 -35.5t-73.5 21.5q-53 42 -74 130.5t2 151.5q19 55 71 90t115 44q91 11 160 -32q62 -38 80.5 -111.5t-9.5 -138.5q-21 -52 -49 -80q-14 -7 11 -11l34 -3q53 2 94 45.5t62 113.5q33 107 8.5 217.5t-98.5 186.5q-62 64 -160 75t-175 -29
q-33 -15 -59 -38q-4 -3 -11.5 -9.5t-13 -10t-13.5 -4.5q-20 6 -16 21q7 26 70 65q111 66 240 43q78 -14 138.5 -60t94.5 -110.5t48 -139t6 -149.5q-2 -23 -12 -71q7 -228 -74 -328q-62 -78 -209 -92q-55 -5 -105 5q-139 28 -211 151q-6 18 7 26.5t27 -3.5q37 -63 83 -88
q112 -59 264 -8q62 21 104.5 63t54.5 94q4 17 7.5 39.5t3.5 24.5q-19 -29 -35 -45q-67 -64 -167 -41q-36 7 -47 21zM320 268q-12 34 -66 30q-53 -22 -38 -72q8 -25 40.5 -30t50.5 13q25 23 13 59zM444 182l-3 24q-10 78 -101 98q25 -16 25 -61q0 -51 -44 -75t-91.5 -7
t-55.5 66q-9 49 25 82t84 39q61 7 115.5 -21t74.5 -82q30 -80 -9.5 -147.5t-123.5 -89.5q-58 -16 -120.5 -1.5t-108.5 54.5q-81 69 -81 183q0 69 30.5 125t84.5 90q75 47 176 42q85 -5 135 -55q6 -18 -3.5 -28.5t-27.5 0.5q-64 52 -159 40.5t-146 -74.5q-49 -61 -49 -141
q0 -74 56 -121t139 -47q125 0 166 66q3 5 12 41z" />
    <glyph glyph-name="sin.khya" unicode="&#xd9b;&#xdca;&#x200d;&#xdba;" horiz-adv-x="1153" 
d="M847 260q-9 -14 -35 -48t-41.5 -61t-22.5 -54q33 11 49 8t43 -20q50 -31 121 -20q36 6 65 35t34.5 69t-24.5 84q-11 15 -51 56t-55.5 74t-10.5 78q7 54 62.5 78t97.5 -12q32 -28 33.5 -66.5t-32.5 -63.5q-18 -8 -33 5t-4 28q24 24 10.5 50t-38.5 24q-43 -5 -53 -38
q-3 -9 -3.5 -18.5t0 -17.5t5 -17t6.5 -15t9.5 -15t11 -13t13 -13.5t12.5 -12t13.5 -12t12.5 -10.5q82 -74 78 -149q4 -42 -16.5 -81t-55.5 -61.5t-78 -30t-83 11.5q-14 6 -37.5 20t-37 20.5t-34 5.5t-40.5 -16q-2 -16 -2 -21q-2 -14 -12.5 -18.5t-19.5 1.5t-9 20
q3 91 48 160q15 23 41 60t36 53q51 97 18 157q-19 34 -48 30q-11 -2 -18 -8q-17 -23 -31 -31t-19.5 -7t-19.5 7q-16 10 -16 27t10 27q26 33 70.5 43.5t83.5 -15t45 -87.5q-1 -23 1 -34.5t-3 -31t-6 -27.5t-8.5 -24t-10 -22t-10.5 -21t-11 -20zM228 96q0 36 -28 53t-57 5
t-32 -48q-2 -22 8.5 -38t27 -21t33.5 -3t31 16t17 36zM270 100v2q-6 -44 -22 -65q-27 -31 -70 -34.5t-73 20.5q-52 41 -73.5 131t1.5 152q19 57 70.5 90.5t116.5 42.5q94 12 160 -31q62 -39 80.5 -111.5t-9.5 -139.5q-20 -50 -49 -79q-8 -8 1 -10q69 -17 120 26.5t79 128.5
q34 105 9 216t-99 187q-62 64 -159 75.5t-176 -29.5q-27 -13 -59 -38q-3 -2 -8.5 -7.5t-8.5 -8t-8.5 -5t-11.5 -2.5q-19 1 -17 21q7 25 70 64q111 66 241 44q70 -12 126 -51t89.5 -93.5t54 -121.5t19 -134t-14.5 -131q-27 -107 -83 -161q-46 -43 -102 -48.5t-108 29.5
q-3 2 -8 0q-3 -2 -13 -10t-13.5 -9.5t-15 -6t-16.5 0.5q-21 14 -3 32q4 4 13.5 10t13.5 9q38 27 73 72q26 34 31.5 75t-8 77.5t-54 61.5t-99.5 27q-84 3 -133.5 -27t-58.5 -80q-10 -49 8 -105q1 -1 2 -5q7 -10 9 -10q11 39 46 52.5t72 0.5t55 -43q4 -8 6.5 -14.5t3 -9
t1.5 -13t2 -14.5z" />
    <glyph glyph-name="sin.khyu" unicode="&#xd9b;&#xdca;&#x200d;&#xdba;&#xdd4;" horiz-adv-x="1153" 
d="M838 261q-10 -16 -35 -48t-41 -59t-23 -55q19 8 35 8t27 -4.5t30 -15.5q51 -31 121 -20q38 6 69 34.5t40 69t-19 84.5q-15 22 -55 58.5t-61 70.5t-16 79q7 55 62 77t98 -12q33 -24 33.5 -64.5t-32.5 -64.5q-18 -8 -33 4.5t-3 28.5q24 24 10.5 50t-39.5 24q-43 -5 -53 -39
q-16 -57 54 -121q6 -5 27 -23q81 -66 77 -148q3 -21 -5 -56v-321q-3 -21 -22 -21h-280q-40 0 -60 6q-44 13 -66 43.5t-10 73.5q6 26 24 44q24 24 65.5 29.5t71.5 -4.5q19 -8 16.5 -23.5t-22.5 -17.5q-57 15 -95 -8q-20 -12 -22 -36t13 -41q21 -24 53 -24q22 0 65 18t75 17
q41 -1 86.5 -19t66.5 -17v235q-36 -36 -87 -47.5t-100 8.5q-14 6 -37.5 20t-37 20.5t-34 5.5t-40.5 -16q0 -5 -1 -11t-1 -10q-4 -23 -22 -21.5t-18 24.5q2 88 47 160q11 17 37 54t37 58q53 98 19 158q-20 34 -49 29q-10 -1 -18 -8q-12 -17 -22 -26t-19 -10t-13.5 0t-14.5 5
q-16 10 -16 27t10 27q26 34 70.5 45t83.5 -15t45 -88q-1 -25 1.5 -35.5t-3 -30.5t-6 -27t-8 -24.5t-9.5 -22t-10.5 -21t-10.5 -20.5zM228 96q0 36 -28 53t-57 5t-32 -48q-2 -22 8.5 -38t27 -21t33.5 -3t31 16t17 36zM270 100v2q-6 -44 -22 -65q-27 -31 -70 -34.5t-73 20.5
q-52 41 -73.5 131t1.5 152q19 57 70.5 90.5t116.5 42.5q94 12 160 -31q62 -39 80.5 -111.5t-9.5 -139.5q-20 -50 -49 -79q-8 -8 1 -10q69 -17 120 26.5t79 128.5q34 105 9 216t-99 187q-62 64 -159 75.5t-176 -29.5q-27 -13 -59 -38q-3 -2 -8.5 -7.5t-8.5 -8t-8.5 -5
t-11.5 -2.5q-19 1 -17 21q7 25 70 64q111 66 241 44q70 -12 126 -51t89.5 -93.5t54 -121.5t19 -134t-14.5 -131q-27 -107 -83 -161q-46 -43 -102 -48.5t-108 29.5q-3 2 -8 0q-3 -2 -13 -10t-13.5 -9.5t-15 -6t-16.5 0.5q-21 14 -3 32q4 4 13.5 10t13.5 9q38 27 73 72
q26 34 31.5 75t-8 77.5t-54 61.5t-99.5 27q-84 3 -133.5 -27t-58.5 -80q-10 -49 8 -105q1 -1 2 -5q7 -10 9 -10q11 39 46 52.5t72 0.5t55 -43q4 -8 6.5 -14.5t3 -9t1.5 -13t2 -14.5z" />
    <glyph glyph-name="sin.khyuu" unicode="&#xd9b;&#xdca;&#x200d;&#xdba;&#xdd6;" horiz-adv-x="1145" 
d="M827 258q-10 -16 -35 -48.5t-41.5 -59.5t-23.5 -55q7 3 13 5t12 2t10 1t10 -0.5t8.5 -2t10 -3.5t8.5 -4t10 -5t10 -5q59 -30 122 -20q37 6 69 35t41 69t-20 84q-15 21 -56.5 58t-62 71t-14.5 79q8 57 62.5 79.5t98.5 -13.5q32 -26 33 -64.5t-32 -65.5q-19 -8 -34 4.5
t-3 28.5q24 24 10.5 50t-39.5 24q-42 -5 -52 -38q-3 -9 -3.5 -18.5t0 -17.5t5 -17t6.5 -15t9.5 -15t11 -13t13 -13.5t12.5 -12t13.5 -12t12.5 -10.5q82 -74 78 -149q2 -36 -4 -51v-314q0 -32 -38 -32q-14 0 -62 24t-83 24q-34 0 -75.5 -23t-97.5 -20q-40 2 -66.5 36.5
t-17.5 80.5q4 23 25 44q47 46 137 25q18 -7 16 -23.5t-23 -16.5q-58 14 -94 -9q-20 -13 -22.5 -36.5t12.5 -40.5q9 -10 22.5 -17t19.5 -7q30 0 75 38t86 38q34 0 62.5 -17.5t48.5 -34.5t34 -16v228q-37 -37 -87.5 -48.5t-100.5 7.5q-15 6 -38 20t-36.5 21t-34.5 6t-41 -17
q0 -5 -0.5 -11t-0.5 -10q-2 -15 -12.5 -19.5t-19.5 2.5t-9 20q3 90 47 160q14 22 40 58.5t38 54.5q51 97 18 156q-19 34 -48 31q-11 -2 -19 -9q-24 -31 -40 -36.5t-29 6.5q-16 10 -16 26.5t10 26.5q26 34 70.5 45t83.5 -15t45 -88q-1 -23 1 -34.5t-3 -31t-6 -27.5t-8.5 -24
t-10 -22t-10.5 -21t-11 -20zM228 96q0 36 -28 53t-57 5t-32 -48q-2 -22 8.5 -38t27 -21t33.5 -3t31 16t17 36zM270 100v2q-6 -44 -22 -65q-27 -31 -70 -34.5t-73 20.5q-52 41 -73.5 131t1.5 152q19 57 70.5 90.5t116.5 42.5q94 12 160 -31q62 -39 80.5 -111.5t-9.5 -139.5
q-20 -50 -49 -79q-8 -8 1 -10q69 -17 120 26.5t79 128.5q34 105 9 216t-99 187q-62 64 -159 75.5t-176 -29.5q-27 -13 -59 -38q-3 -2 -8.5 -7.5t-8.5 -8t-8.5 -5t-11.5 -2.5q-19 1 -17 21q7 25 70 64q111 66 241 44q70 -12 126 -51t89.5 -93.5t54 -121.5t19 -134t-14.5 -131
q-27 -107 -83 -161q-46 -43 -102 -48.5t-108 29.5q-3 2 -8 0q-3 -2 -13 -10t-13.5 -9.5t-15 -6t-16.5 0.5q-21 14 -3 32q4 4 13.5 10t13.5 9q38 27 73 72q26 34 31.5 75t-8 77.5t-54 61.5t-99.5 27q-84 3 -133.5 -27t-58.5 -80q-10 -49 8 -105q1 -1 2 -5q7 -10 9 -10
q11 39 46 52.5t72 0.5t55 -43q4 -8 6.5 -14.5t3 -9t1.5 -13t2 -14.5z" />
    <glyph glyph-name="sin.khyo" unicode="&#xd9b;&#xdca;&#x200d;&#xdba;&#xddc;" horiz-adv-x="1893" 
d="M1615 76q-3 9 3 17t17 7t20 -14q30 -43 64 -40t49 66t16 128q6 196 -63 202q-40 4 -66 -39q-11 -18 -25.5 -14t-14.5 24q12 38 52.5 57.5t79.5 9.5q40 -10 74 -61q23 -36 31 -98q16 -132 -17 -221q-22 -57 -65 -82q-40 -24 -91 -5.5t-64 63.5zM1325 265l-4 -7
q-8 -15 -47.5 -67t-48.5 -89q19 8 36 7.5t25.5 -4t30.5 -14.5q61 -31 122 -21q58 9 87 66t-13 122q-13 17 -52.5 57t-55 72.5t-9.5 78.5q8 55 60 78t101 -12q32 -24 31.5 -64.5t-31.5 -64.5q-18 -8 -33 4.5t-3 28.5q24 24 10.5 50t-39.5 24q-43 -6 -53 -39q-3 -10 -4 -20
t2 -20t5 -17.5t9.5 -17.5t11 -15t14.5 -15t14 -13t15 -14t14 -12q82 -70 78 -149q8 -88 -72 -142t-161 -18q-14 6 -38 20.5t-37.5 21t-34 5t-40.5 -17.5q0 -4 -0.5 -10t-0.5 -11q-4 -22 -23 -20t-18 24q3 89 47 159q14 21 39.5 58t37.5 55q51 99 18 158q-19 34 -48 29
q-10 -2 -18 -8q-12 -17 -22 -26t-19 -10t-13.5 0t-14.5 5q-16 10 -16 27t10 27q26 33 70.5 43.5t83.5 -15t45 -87.5q4 -40 -4 -76.5t-16.5 -53.5t-27.5 -50zM717 96q0 36 -28 53t-57 5t-32 -48q-2 -22 8.5 -38t27 -21t33.5 -3t31 16t17 36zM759 100v2q-6 -44 -22 -65
q-27 -31 -70 -34.5t-73 20.5q-52 41 -73.5 131t1.5 152q19 57 70.5 90.5t116.5 42.5q94 12 160 -31q62 -39 80.5 -111.5t-9.5 -139.5q-20 -50 -49 -79q-8 -8 1 -10q69 -17 120 26.5t79 128.5q34 105 9 216t-99 187q-62 64 -159 75.5t-176 -29.5q-27 -13 -59 -38
q-3 -2 -8.5 -7.5t-8.5 -8t-8.5 -5t-11.5 -2.5q-19 1 -17 21q7 25 70 64q111 66 241 44q70 -12 126 -51t89.5 -93.5t54 -121.5t19 -134t-14.5 -131q-27 -107 -83 -161q-46 -43 -102 -48.5t-108 29.5q-3 2 -8 0q-3 -2 -13 -10t-13.5 -9.5t-15 -6t-16.5 0.5q-21 14 -3 32
q4 4 13.5 10t13.5 9q38 27 73 72q26 34 31.5 75t-8 77.5t-54 61.5t-99.5 27q-84 3 -133.5 -27t-58.5 -80q-10 -49 8 -105q8 -16 9 -16.5t2 1.5q11 39 46 52.5t72 0.5t55 -43q4 -8 6.5 -14.5t3 -9t1.5 -13t2 -14.5zM320 268q-12 34 -66 30q-53 -22 -38 -72q8 -25 40.5 -30
t50.5 13q25 23 13 59zM444 182l-3 24q-10 78 -101 98q25 -16 25 -61q0 -51 -44 -75t-91.5 -7t-55.5 66q-9 49 25 82t84 39q61 7 115.5 -21t74.5 -82q30 -80 -9.5 -147.5t-123.5 -89.5q-58 -16 -120.5 -1.5t-108.5 54.5q-81 69 -81 183q0 69 30.5 125t84.5 90q75 47 176 42
q85 -5 135 -55q6 -18 -3.5 -28.5t-27.5 0.5q-64 52 -159 40.5t-146 -74.5q-49 -61 -49 -141q0 -74 56 -121t139 -47q125 0 166 66q3 5 12 41z" />
    <glyph glyph-name="sin.khyoo" unicode="&#xd9b;&#xdca;&#x200d;&#xdba;&#xddd;" horiz-adv-x="1882" 
d="M1765 783q3 -10 3 -23v-47q6 -11 29 -11q28 4 34 42q7 42 -16 57q-13 8 -29 2t-21 -20zM1767 669l-2 -203q25 -15 48 -50q22 -33 31 -99q19 -127 -17 -220q-22 -56 -64 -82q-40 -24 -90.5 -5t-64.5 63q-3 9 3 17t17 7t20 -14q28 -43 63 -40q56 4 65 194q1 28 -0.5 58
t-7 63.5t-20 56t-35.5 24.5q-39 3 -65 -39q-11 -17 -25.5 -14t-14.5 24q12 35 45.5 54.5t71.5 15.5l2 281q-4 28 -31 42q-2 1 -11.5 4t-11.5 5q-18 6 -13.5 22.5t25.5 16.5q40 -14 55 -29q28 33 64 29q27 -3 43 -19q18 -21 24.5 -52t-2.5 -57q-13 -47 -48 -58q-26 -9 -54 4z
M1324 262q-10 -16 -35 -48.5t-41.5 -59.5t-23.5 -55q19 8 36 7.5t25.5 -4t30.5 -14.5q61 -31 122 -21q37 6 69 35.5t41 70t-20 83.5q-14 19 -43 46t-48.5 45.5t-33 49.5t-8.5 66q8 55 62.5 78t98.5 -12q32 -26 32.5 -65t-31.5 -64q-19 -8 -34 4t-3 28q24 24 10.5 50
t-39.5 24q-42 -5 -52 -38q-3 -9 -3.5 -18.5t0 -17.5t5 -17t6.5 -15t9.5 -15t11 -13t13 -13.5t12.5 -12t13.5 -12t12.5 -10.5q82 -74 78 -149q4 -42 -16.5 -80.5t-55.5 -61t-78 -30.5t-83 11q-14 6 -37.5 20.5t-37 21t-34.5 5.5t-41 -17q0 -4 -0.5 -10.5t-0.5 -10.5
q-2 -14 -12.5 -18.5t-19.5 1.5t-9 20q3 90 47 160q14 22 40 58.5t38 54.5q51 99 18 158q-19 34 -49 29q-10 -1 -18 -8q-12 -17 -22 -26t-19 -10t-13.5 0t-14.5 5q-16 10 -16 27t10 27q27 33 71 43.5t83 -15t45 -87.5q0 -22 1 -34.5t-3 -30.5l-6 -27t-9 -24.5t-10 -22.5
t-10.5 -21t-10.5 -20zM719 96q0 36 -28 53t-57 5t-32 -48q-2 -22 8.5 -38t27 -21t33.5 -3t31 16t17 36zM761 100v2q-6 -44 -22 -65q-27 -31 -70 -34.5t-73 20.5q-52 41 -73.5 131t1.5 152q19 57 70.5 90.5t116.5 42.5q94 12 160 -31q62 -39 80.5 -111.5t-9.5 -139.5
q-20 -50 -49 -79q-8 -8 1 -10q69 -17 120 26.5t79 128.5q34 105 9 216t-99 187q-62 64 -159 75.5t-176 -29.5q-27 -13 -59 -38q-3 -2 -8.5 -7.5t-8.5 -8t-8.5 -5t-11.5 -2.5q-19 1 -17 21q7 25 70 64q111 66 241 44q70 -12 126 -51t89.5 -93.5t54 -121.5t19 -134t-14.5 -131
q-27 -107 -83 -161q-46 -43 -102 -48.5t-108 29.5q-3 2 -8 0q-3 -2 -13 -10t-13.5 -9.5t-15 -6t-16.5 0.5q-21 14 -3 32q4 4 13.5 10t13.5 9q38 27 73 72q26 34 31.5 75t-8 77.5t-54 61.5t-99.5 27q-84 3 -133.5 -27t-58.5 -80q-10 -49 8 -105q8 -16 9 -16.5t2 1.5
q11 39 46 52.5t72 0.5t55 -43q4 -8 6.5 -14.5t3 -9t1.5 -13t2 -14.5zM320 268q-12 34 -66 30q-53 -22 -38 -72q8 -25 40.5 -30t50.5 13q25 23 13 59zM444 182l-3 24q-10 78 -101 98q25 -16 25 -61q0 -51 -44 -75t-91.5 -7t-55.5 66q-9 49 25 82t84 39q61 7 115.5 -21
t74.5 -82q30 -80 -9.5 -147.5t-123.5 -89.5q-58 -16 -120.5 -1.5t-108.5 54.5q-81 69 -81 183q0 69 30.5 125t84.5 90q75 47 176 42q85 -5 135 -55q6 -18 -3.5 -28.5t-27.5 0.5q-64 52 -159 40.5t-146 -74.5q-49 -61 -49 -141q0 -74 56 -121t139 -47q125 0 166 66q3 5 12 41
z" />
    <glyph glyph-name="sin.g" unicode="&#xd9c;&#xdca;" horiz-adv-x="753" 
d="M610 783l3 -23v-47q6 -11 29 -11q28 1 34 42q7 42 -16 57q-13 8 -29 2t-21 -20zM569 534l2 227q0 24 -31 42l-22 8q-12 4 -14.5 14.5t4.5 18t21 6.5q36 -9 56 -28q26 34 64 28q29 -5 42 -19q18 -20 24 -51t-1 -57q-13 -45 -48 -58q-23 -10 -54 3l-4 -154q22 -15 49 -50
q54 -74 57.5 -181.5t-41.5 -186.5q-29 -53 -70.5 -74.5t-102.5 -18.5q-43 7 -53 14q-9 11 -5 23.5t20 12.5q30 -9 67 -9q36 0 68.5 24.5t47.5 58.5q18 42 19.5 100.5t-13.5 112.5t-53.5 92t-92.5 38q-49 0 -91.5 -23.5t-55.5 -73.5q-3 -10 -10 -55q0 -5 5 -7q55 -5 82 -27
q43 -39 42.5 -102.5t-35.5 -108.5q-43 -56 -124 -68.5t-140 22.5q-46 26 -78 71t-44.5 96.5t-10 106.5t20.5 104q21 57 65 95.5t103 45.5q44 6 78 -6q17 -3 14 -21t-22 -18q-4 0 -8 1q-13 3 -49 3q-69 -4 -110 -58t-49 -129q-11 -97 46 -168t150 -71q17 0 35 2.5t41 11
t39 22.5t26 40t6 60q-5 26 -23.5 40t-44.5 14q-3 0 -17 -1.5t-23 -0.5t-14 7q-7 31 -1 66.5t18 66.5q31 80 101 116.5t142 10.5z" />
    <glyph glyph-name="sin.gi" unicode="&#xd9c;&#xdd2;" horiz-adv-x="730" 
d="M183 539q-22 21 -31 51t-1 59q11 41 61 74q32 21 98 31q117 18 221 -17q54 -18 82 -64q20 -34 8.5 -78.5t-44.5 -66.5q39 -20 69 -63q53 -77 57 -182.5t-41 -184.5q-29 -53 -70.5 -75t-102.5 -18q-37 2 -53 14q-9 10 -5 23t20 13q24 -10 67 -10q36 0 68.5 25t47.5 59
q18 42 19 100.5t-13.5 112.5t-53 92t-92.5 38q-49 0 -91.5 -24t-55.5 -74q-3 -12 -10 -55q0 -5 5 -7q55 -5 82 -27q42 -39 41.5 -102t-34.5 -108q-44 -56 -123.5 -68t-140.5 22q-62 32 -97 99.5t-36 138.5t21 140q38 101 128 132zM239 548l34 -1q10 0 28 -6q17 -3 14 -21
t-22 -18q-4 0 -8 1q-13 3 -49 3q-69 -4 -110 -58t-49 -129q-11 -95 46.5 -166.5t149.5 -71.5q23 0 46 4.5t50.5 17.5t42 42t8.5 71q-4 26 -23 40t-45 14q-2 0 -16.5 -1.5t-23.5 0t-14 7.5q-7 31 -1 66.5t18 66.5q26 71 91 109.5t127 24.5q1 7 12 15q44 29 40 63
q-3 35 -63 50t-131 15q-196 0 -202 -63q-3 -40 39 -65q9 -5 11 -10z" />
    <glyph glyph-name="sin.gii" unicode="&#xd9c;&#xdd3;" horiz-adv-x="743" 
d="M569 643l-30 19q-35 17 -48 11q-30 -14 -34 -45t15.5 -54t47.5 -18q35 0 51.5 31.5t-2.5 55.5zM314 404l14 30q36 75 123 101q-46 33 -39 95q1 19 24 52h-26q-3 0 -26.5 1t-39.5 0q-58 -3 -105.5 -19t-52.5 -47q-8 -46 30 -67q2 -2 7 -4t7 -3q36 5 70 -6q17 -3 14 -21
t-22 -18q-4 0 -8 1q-13 3 -49 3q-69 -4 -110 -58t-49 -129q-11 -97 46 -168t150 -71q17 0 35 2.5t41 11t39 22.5t26 40t6 60q-5 26 -23.5 40t-44.5 14q-3 0 -17 -1.5t-23 -0.5t-14 7q-8 27 -2 67t19 66zM173 531l-16 20q-21 35 -13 78.5t37 70.5q29 28 89 45q54 16 126.5 13
t123.5 -23q69 -25 90 -73q12 -31 8 -67q-7 -48 -51 -68q45 -19 78 -66q54 -75 57.5 -181t-41.5 -187q-29 -53 -70.5 -74.5t-102.5 -18.5q-43 7 -53 14q-9 11 -5 23.5t20 12.5q30 -9 67 -9q36 0 68.5 24.5t47.5 58.5q18 42 19.5 100.5t-13.5 112.5t-53.5 92t-92.5 38
q-49 0 -91.5 -23.5t-55.5 -73.5q-3 -10 -10 -55q0 -5 5 -7q55 -5 82 -27q43 -40 42.5 -103t-35.5 -108q-44 -56 -124.5 -68t-139.5 22q-62 33 -97 100t-36 138t21 140q37 96 119 129z" />
    <glyph glyph-name="sin.gu" unicode="&#xd9c;&#xdd4;" horiz-adv-x="735" 
d="M446 8l-14 7q-9 10 -5 23t21 13q24 -10 66 -10q35 0 68.5 25.5t47.5 58.5q19 43 20 101.5t-13.5 112.5t-53 91.5t-92.5 37.5q-51 0 -93 -23.5t-55 -74.5q-3 -13 -10 -55q0 -5 5 -7q55 -5 82 -27q43 -40 42.5 -102.5t-34.5 -107.5q-45 -56 -123 -68.5t-141 22.5
q-61 32 -96.5 99.5t-37 139t20.5 139.5q21 57 65.5 95t102.5 45q44 6 79 -6q18 -3 14 -21t-22 -18q-4 0 -8 1q-11 3 -50 3q-69 -4 -110 -58.5t-48 -128.5q-9 -95 48 -166.5t148 -71.5q22 0 44.5 4.5t50 17.5t42.5 42t10 71q-12 54 -68 54q-2 0 -16.5 -1.5t-23.5 0t-14 7.5
q-9 26 -2.5 65t18.5 68q21 53 62.5 88.5t88 46t96 -9t84.5 -69.5q52 -75 57 -180.5t-40 -186.5q-29 -53 -71 -75t-103 -18q-5 -4 -16 -29q-16 -36 19 -66.5t84 -25.5q1 0 16 0.5t23 2t21.5 5.5t23 13t16.5 22q9 18 -9 36q-14 18 0 31t31 -3q33 -34 23.5 -83.5t-49.5 -75.5
q-41 -26 -102.5 -23t-98.5 33q-25 19 -39 46q-14 29 -8.5 63t26.5 61z" />
    <glyph glyph-name="sin.guu" unicode="&#xd9c;&#xdd6;" horiz-adv-x="730" 
d="M443 10q-10 4 -13 7q-9 11 -5.5 23.5t20.5 12.5q30 -9 67 -9q35 0 67.5 24.5t47.5 58.5q19 42 20.5 100.5t-13.5 112.5t-53.5 92t-92.5 38q-50 0 -92 -23.5t-55 -73.5q-6 -22 -11 -55q0 -6 6 -7q53 -5 81 -27q43 -40 42.5 -103t-34.5 -108q-44 -56 -124.5 -68t-139.5 22
q-62 34 -97 100.5t-36 137.5t21 140q21 57 65 95.5t103 45.5q43 6 78 -6q17 -3 14 -21t-22 -18q-4 0 -8 1q-11 3 -50 3q-65 -4 -108 -59t-50 -128q-9 -97 47 -168t149 -71q17 0 34.5 2.5t40.5 11t39.5 22.5t26.5 40t6 60q-5 26 -23.5 40t-44.5 14q-3 0 -17 -1.5t-23 -0.5
t-14 7q-8 30 -2 66t18 67q27 71 87.5 109t129.5 25.5t115 -77.5q53 -75 57 -181t-41 -187q-42 -79 -126 -91l24 -14q11 -11 9 -22t-15 -16q-34 -5 -39 -9q-34 -21 -9 -45t74 -22q91 6 95 60q0 6 -4 13q-1 1 -7 12q-7 12 6 25q15 13 30 -4q15 -11 21 -53q7 -40 -20.5 -73.5
t-68.5 -42.5q-32 -9 -85.5 -3t-77.5 28q-18 15 -28 37q-6 12 -6 30q-5 49 61 74q-8 6 -24.5 16t-22.5 14z" />
    <glyph glyph-name="sin.ge" unicode="&#xd9c;&#xdd9;" horiz-adv-x="1230" 
d="M764 500q-13 3 -49 3q-69 -4 -110 -58t-49 -129q-11 -97 46 -168t150 -71q17 0 35 2.5t41 11t39 22.5t26 40t6 60q-5 26 -23.5 40t-44.5 14q-3 0 -17 -1.5t-23 -0.5t-14 7q-7 30 -1 66.5t18 66.5q28 71 88 109.5t128.5 26.5t114.5 -79q53 -77 57 -182t-41 -186
q-29 -53 -70.5 -74.5t-102.5 -18.5q-43 7 -53 14q-9 11 -5 23.5t20 12.5q30 -9 67 -9q36 0 68.5 24.5t47.5 58.5q18 42 19.5 100.5t-13.5 112.5t-53.5 92t-92.5 38q-49 0 -91.5 -23.5t-55.5 -73.5q-3 -10 -10 -55q0 -5 5 -7q55 -5 82 -27q43 -39 42.5 -102.5t-35.5 -108.5
q-43 -56 -124 -68.5t-140 22.5q-46 26 -78 71t-44.5 96.5t-10 106.5t20.5 104q21 57 65 95.5t103 45.5q44 6 78 -6q17 -3 14 -21t-22 -18q-4 0 -8 1zM320 268q-12 34 -66 30q-53 -22 -38 -72q8 -25 40.5 -30t50.5 13q25 23 13 59zM444 182l-3 24q-10 78 -101 98
q25 -16 25 -61q0 -51 -44 -75t-91.5 -7t-55.5 66q-9 49 25 82t84 39q61 7 115.5 -21t74.5 -82q30 -80 -9.5 -147.5t-123.5 -89.5q-58 -16 -120.5 -1.5t-108.5 54.5q-81 69 -81 183q0 69 30.5 125t84.5 90q75 47 176 42q85 -5 135 -55q6 -18 -3.5 -28.5t-27.5 0.5
q-64 52 -159 40.5t-146 -74.5q-49 -61 -49 -141q0 -74 56 -121t139 -47q125 0 166 66q3 5 12 41z" />
    <glyph glyph-name="sin.gee" unicode="&#xd9c;&#xdda;" horiz-adv-x="1207" 
d="M1076 783l3 -23v-47q6 -11 29 -11q28 1 34 42q7 42 -16 57q-13 8 -29 2t-21 -20zM1035 534l2 227q0 24 -31 42l-22 8q-12 4 -14.5 14.5t4.5 18t21 6.5q36 -9 56 -28q26 34 64 28q29 -5 42 -19q18 -20 24 -51t-1 -57q-13 -45 -48 -58q-23 -10 -54 3l-4 -154q22 -15 49 -50
q54 -74 57.5 -181.5t-41.5 -186.5q-29 -53 -70.5 -74.5t-102.5 -18.5q-43 7 -53 14q-9 11 -5 23.5t20 12.5q30 -9 67 -9q36 0 68.5 24.5t47.5 58.5q18 42 19.5 100.5t-13.5 112.5t-53.5 92t-92.5 38q-49 0 -91.5 -23.5t-55.5 -73.5q-3 -10 -10 -55q0 -5 5 -7q55 -5 82 -27
q43 -39 42.5 -102.5t-35.5 -108.5q-43 -56 -124 -68.5t-140 22.5q-46 26 -78 71t-44.5 96.5t-10 106.5t20.5 104q21 57 65 95.5t103 45.5q44 6 78 -6q17 -3 14 -21t-22 -18q-4 0 -8 1q-13 3 -49 3q-69 -4 -110 -58t-49 -129q-11 -97 46 -168t150 -71q17 0 35 2.5t41 11
t39 22.5t26 40t6 60q-5 26 -23.5 40t-44.5 14q-3 0 -17 -1.5t-23 -0.5t-14 7q-7 31 -1 66.5t18 66.5q31 80 101 116.5t142 10.5zM320 268q-12 34 -66 30q-53 -22 -38 -72q8 -25 40.5 -30t50.5 13q25 23 13 59zM444 182l-3 24q-10 78 -101 98q25 -16 25 -61q0 -51 -44 -75
t-91.5 -7t-55.5 66q-9 49 25 82t84 39q61 7 115.5 -21t74.5 -82q30 -80 -9.5 -147.5t-123.5 -89.5q-58 -16 -120.5 -1.5t-108.5 54.5q-81 69 -81 183q0 69 30.5 125t84.5 90q75 47 176 42q85 -5 135 -55q6 -18 -3.5 -28.5t-27.5 0.5q-64 52 -159 40.5t-146 -74.5
q-49 -61 -49 -141q0 -74 56 -121t139 -47q125 0 166 66q3 5 12 41z" />
    <glyph glyph-name="sin.gai" unicode="&#xd9c;&#xddb;" horiz-adv-x="1698" 
d="M1245 500q-13 3 -49 3q-69 -4 -110 -58t-49 -129q-11 -97 46 -168t150 -71q17 0 35 2.5t41 11t39 22.5t26 40t6 60q-5 26 -23.5 40t-44.5 14q-3 0 -17 -1.5t-23 -0.5t-14 7q-7 30 -1 66.5t18 66.5q28 71 88 109.5t128.5 26.5t114.5 -79q53 -77 57 -182t-41 -186
q-29 -53 -70.5 -74.5t-102.5 -18.5q-43 7 -53 14q-9 11 -5 23.5t20 12.5q30 -9 67 -9q36 0 68.5 24.5t47.5 58.5q18 42 19.5 100.5t-13.5 112.5t-53.5 92t-92.5 38q-49 0 -91.5 -23.5t-55.5 -73.5q-3 -10 -10 -55q0 -5 5 -7q55 -5 82 -27q43 -39 42.5 -102.5t-35.5 -108.5
q-43 -56 -124 -68.5t-140 22.5q-46 26 -78 71t-44.5 96.5t-10 106.5t20.5 104q21 57 65 95.5t103 45.5q44 6 78 -6q17 -3 14 -21t-22 -18zM320 268q-12 34 -66 30q-53 -22 -38 -72q8 -25 40.5 -30t50.5 13q25 23 13 59zM444 182l-3 24q-10 78 -101 98q25 -16 25 -61
q0 -51 -44 -75t-91.5 -7t-55.5 66q-9 49 25 82t84 39q61 7 115.5 -21t74.5 -82q30 -80 -9.5 -147.5t-123.5 -89.5q-58 -16 -120.5 -1.5t-108.5 54.5q-81 69 -81 183q0 69 30.5 125t84.5 90q75 47 176 42q85 -5 135 -55q6 -18 -3.5 -28.5t-27.5 0.5q-64 52 -159 40.5
t-146 -74.5q-49 -61 -49 -141q0 -74 56 -121t139 -47q125 0 166 66q3 5 12 41zM805 268q-12 34 -66 30q-53 -22 -38 -72q8 -25 40.5 -30t50.5 13q25 23 13 59zM929 182l-3 24q-10 78 -101 98q25 -16 25 -61q0 -51 -44 -75t-91.5 -7t-55.5 66q-9 49 25 82t84 39
q61 7 115.5 -21t74.5 -82q30 -80 -9.5 -147.5t-123.5 -89.5q-58 -16 -120.5 -1.5t-108.5 54.5q-81 69 -81 183q0 69 30.5 125t84.5 90q75 47 176 42q85 -5 135 -55q6 -18 -3.5 -28.5t-27.5 0.5q-64 52 -159 40.5t-146 -74.5q-49 -61 -49 -141q0 -74 56 -121t139 -47
q125 0 166 66q3 5 12 41z" />
    <glyph glyph-name="sin.go" unicode="&#xd9c;&#xddc;" horiz-adv-x="1465" 
d="M1184 76q-3 9 3 17t17 7t20 -14q30 -43 64 -40t49 66t16 128q6 196 -63 202q-40 4 -66 -39q-11 -18 -25.5 -14t-14.5 24q12 38 52.5 57.5t79.5 9.5q40 -10 74 -61q23 -36 31 -98q16 -132 -17 -221q-22 -57 -65 -82q-40 -24 -91 -5.5t-64 63.5zM763 500q-13 3 -49 3
q-69 -4 -110 -58t-49 -129q-11 -97 46 -168t150 -71q17 0 35 2.5t41 11t39 22.5t26 40t6 60q-5 26 -23.5 40t-44.5 14q-3 0 -17 -1.5t-23 -0.5t-14 7q-7 30 -1 66.5t18 66.5q28 71 88 109.5t128.5 26.5t114.5 -79q53 -77 57 -182t-41 -186q-29 -53 -70.5 -74.5t-102.5 -18.5
q-43 7 -53 14q-9 11 -5 23.5t20 12.5q30 -9 67 -9q36 0 68.5 24.5t47.5 58.5q18 42 19.5 100.5t-13.5 112.5t-53.5 92t-92.5 38q-49 0 -91.5 -23.5t-55.5 -73.5q-3 -10 -10 -55q0 -5 5 -7q55 -5 82 -27q43 -39 42.5 -102.5t-35.5 -108.5q-43 -56 -124 -68.5t-140 22.5
q-46 26 -78 71t-44.5 96.5t-10 106.5t20.5 104q21 57 65 95.5t103 45.5q44 6 78 -6q17 -3 14 -21t-22 -18q-4 0 -8 1zM320 268q-12 34 -66 30q-53 -22 -38 -72q8 -25 40.5 -30t50.5 13q25 23 13 59zM444 182l-3 24q-10 78 -101 98q25 -16 25 -61q0 -51 -44 -75t-91.5 -7
t-55.5 66q-9 49 25 82t84 39q61 7 115.5 -21t74.5 -82q30 -80 -9.5 -147.5t-123.5 -89.5q-58 -16 -120.5 -1.5t-108.5 54.5q-81 69 -81 183q0 69 30.5 125t84.5 90q75 47 176 42q85 -5 135 -55q6 -18 -3.5 -28.5t-27.5 0.5q-64 52 -159 40.5t-146 -74.5q-49 -61 -49 -141
q0 -74 56 -121t139 -47q125 0 166 66q3 5 12 41z" />
    <glyph glyph-name="sin.goo" unicode="&#xd9c;&#xddd;" horiz-adv-x="1465" 
d="M1367 785q3 -12 3 -24v-47q6 -10 29 -10q28 1 34 42q7 42 -16 57q-13 8 -29 2t-21 -20zM1370 670v-242q2 -2 3.5 -5.5t2.5 -5.5q24 -41 31 -98q16 -132 -17 -221q-22 -57 -65 -82q-40 -24 -91 -5.5t-64 63.5q-2 9 4 16.5t16.5 7t19.5 -12.5q31 -42 64 -40q33 3 48.5 66.5
t16.5 126.5q6 196 -63 202q-40 4 -66 -39q-10 -16 -25 -13t-15 23q12 37 53 57.5t79 10.5q9 -2 26 -11l1 294q0 27 -31 42q-7 4 -22 9q-18 6 -14 23.5t25 15.5q31 -7 56 -29q27 34 63 29q31 -5 43 -19q19 -19 25 -51t-2 -58q-13 -46 -48 -57q-27 -9 -54 3zM1173 73
q13 -44 64 -63t91 5q40 25 65 82q37 85 16 221q-10 66 -31 98q-34 52 -74 62q-39 10 -79 -10t-52 -58q0 -20 14.5 -23.5t25.5 13.5q28 42 65 39q21 -2 35.5 -24t20 -56.5t7 -63t0.5 -58.5q-1 -63 -16.5 -126.5t-48.5 -66.5q-33 -2 -63 40q-8 12 -19 12.5t-17.5 -7
t-3.5 -16.5zM757 500q-13 3 -49 3q-69 -4 -110 -58t-49 -129q-11 -97 46 -168t150 -71q17 0 35 2.5t41 11t39 22.5t26 40t6 60q-5 26 -23.5 40t-44.5 14q-3 0 -17 -1.5t-23 -0.5t-14 7q-7 30 -1 66.5t18 66.5q28 71 88 109.5t128.5 26.5t114.5 -79q53 -77 57 -182t-41 -186
q-29 -53 -70.5 -74.5t-102.5 -18.5q-43 7 -53 14q-9 11 -5 23.5t20 12.5q30 -9 67 -9q36 0 68.5 24.5t47.5 58.5q18 42 19.5 100.5t-13.5 112.5t-53.5 92t-92.5 38q-49 0 -91.5 -23.5t-55.5 -73.5q-3 -10 -10 -55q0 -5 5 -7q55 -5 82 -27q43 -39 42.5 -102.5t-35.5 -108.5
q-43 -56 -124 -68.5t-140 22.5q-46 26 -78 71t-44.5 96.5t-10 106.5t20.5 104q21 57 65 95.5t103 45.5q44 6 78 -6q17 -3 14 -21t-22 -18q-4 0 -8 1zM320 268q-12 34 -66 30q-53 -22 -38 -72q8 -25 40.5 -30t50.5 13q25 23 13 59zM444 182l-3 24q-10 78 -101 98
q25 -16 25 -61q0 -51 -44 -75t-91.5 -7t-55.5 66q-9 49 25 82t84 39q61 7 115.5 -21t74.5 -82q30 -80 -9.5 -147.5t-123.5 -89.5q-58 -16 -120.5 -1.5t-108.5 54.5q-81 69 -81 183q0 69 30.5 125t84.5 90q75 47 176 42q85 -5 135 -55q6 -18 -3.5 -28.5t-27.5 0.5
q-64 52 -159 40.5t-146 -74.5q-49 -61 -49 -141q0 -74 56 -121t139 -47q125 0 166 66q3 5 12 41z" />
    <glyph glyph-name="sin.gau" unicode="&#xd9c;&#xdde;" horiz-adv-x="1570" 
d="M1289 484q20 -2 23 -17t-16 -23q-30 -8 -42.5 -44t0 -71t44.5 -40q16 -5 35.5 4t23.5 27q3 19 -4.5 35t-26.5 16q-18 5 -18 24q0 55 55 80.5t101 -4.5q25 -16 40 -44t20.5 -66t7 -62t0.5 -61q-4 -157 -112 -225q-44 -29 -110.5 -6.5t-78.5 75.5q0 20 16 24t24 -14
q8 -29 44 -42.5t65 -3.5q53 18 72 93.5t14 165.5q-9 142 -81 129q-24 -5 -32 -28q29 -13 41.5 -44t-0.5 -62q-24 -53 -93 -53q-38 0 -62.5 28t-29.5 67q-6 48 14.5 89.5t65.5 52.5zM763 500q-13 3 -49 3q-69 -4 -110 -58t-49 -129q-11 -97 46 -168t150 -71q17 0 35 2.5
t41 11t39 22.5t26 40t6 60q-5 26 -23.5 40t-44.5 14q-3 0 -17 -1.5t-23 -0.5t-14 7q-7 30 -1 66.5t18 66.5q28 71 88 109.5t128.5 26.5t114.5 -79q53 -77 57 -182t-41 -186q-29 -53 -70.5 -74.5t-102.5 -18.5q-43 7 -53 14q-9 11 -5 23.5t20 12.5q30 -9 67 -9
q36 0 68.5 24.5t47.5 58.5q18 42 19.5 100.5t-13.5 112.5t-53.5 92t-92.5 38q-49 0 -91.5 -23.5t-55.5 -73.5q-3 -10 -10 -55q0 -5 5 -7q55 -5 82 -27q43 -39 42.5 -102.5t-35.5 -108.5q-43 -56 -124 -68.5t-140 22.5q-46 26 -78 71t-44.5 96.5t-10 106.5t20.5 104
q21 57 65 95.5t103 45.5q44 6 78 -6q17 -3 14 -21t-22 -18q-4 0 -8 1zM320 268q-12 34 -66 30q-53 -22 -38 -72q8 -25 40.5 -30t50.5 13q25 23 13 59zM444 182l-3 24q-10 78 -101 98q25 -16 25 -61q0 -51 -44 -75t-91.5 -7t-55.5 66q-9 49 25 82t84 39q61 7 115.5 -21
t74.5 -82q30 -80 -9.5 -147.5t-123.5 -89.5q-58 -16 -120.5 -1.5t-108.5 54.5q-81 69 -81 183q0 69 30.5 125t84.5 90q75 47 176 42q85 -5 135 -55q6 -18 -3.5 -28.5t-27.5 0.5q-64 52 -159 40.5t-146 -74.5q-49 -61 -49 -141q0 -74 56 -121t139 -47q125 0 166 66q3 5 12 41
z" />
    <glyph glyph-name="sin.gra" unicode="&#xd9c;&#xdca;&#x200d;&#xdbb;" horiz-adv-x="743" 
d="M685 158q-6 -194 -72 -276q-37 -46 -87.5 -65.5t-121.5 -26.5q-53 -5 -105 5q-139 28 -211 151q-6 18 7 26.5t27 -3.5q38 -64 83 -89q111 -59 264 -7q62 21 104 63t55 94q1 5 2.5 14.5t3.5 13.5q-53 -63 -149 -58q-43 7 -53 14q-9 11 -5.5 23.5t20.5 12.5q30 -9 67 -9
q35 0 67.5 24.5t47.5 58.5q19 42 20.5 100.5t-13.5 112.5t-53.5 92t-92.5 38q-50 0 -92 -23.5t-55 -73.5q-6 -22 -11 -55q0 -5 6 -7q53 -5 81 -27q43 -40 42.5 -103t-34.5 -108q-44 -56 -124.5 -68t-139.5 22q-62 34 -97 100.5t-36 137.5t21 140q21 57 65 95.5t103 45.5
q43 6 78 -6q17 -3 14 -21t-22 -18q-4 0 -8 1q-11 3 -50 3q-65 -4 -108 -59t-50 -128q-9 -97 47 -168t149 -71q17 0 34.5 2.5t40.5 11t39.5 22.5t26.5 40t6 60q-5 26 -23.5 40t-44.5 14q-3 0 -17 -1.5t-23 -0.5t-14 7q-8 30 -2 66t18 67q27 71 87.5 109t129.5 25.5t115 -77.5
q43 -61 54 -144.5t-11 -158.5z" />
    <glyph glyph-name="sin.gri" unicode="&#xd9c;&#xdca;&#x200d;&#xdbb;&#xdd2;" horiz-adv-x="743" 
d="M645 463q42 -61 54 -144.5t-11 -157.5q-6 -194 -72 -276q-37 -46 -87.5 -66t-121.5 -27q-53 -4 -105 6q-139 28 -211 151q-6 19 7 26.5t27 -4.5q37 -63 83 -88q112 -59 264 -8q62 21 104 63.5t55 94.5q1 5 2.5 14.5t3.5 13.5q-53 -64 -149 -58q-37 2 -53 14
q-9 10 -5.5 23t20.5 13q24 -10 67 -10q35 0 67 25t48 59q20 42 21.5 101t-14 113t-54.5 91.5t-92 37.5q-50 0 -92 -24t-55 -74q-3 -14 -11 -55q0 -5 6 -7q53 -5 81 -27q43 -35 43 -102t-35 -108q-44 -56 -123.5 -68t-140.5 22q-62 32 -97 99.5t-36 138.5t21 140
q38 101 128 132q-22 21 -31.5 51t-1.5 59q10 40 62 74q32 21 98 31q117 18 221 -17q54 -18 82 -64q20 -34 8.5 -78.5t-44.5 -66.5q39 -20 69 -63zM238 546l32 -1q12 0 30 -6q17 -3 14 -21t-22 -18q-4 0 -8 1q-11 3 -50 3q-65 -4 -108 -59t-50 -128q-9 -95 48 -166.5
t148 -71.5q22 0 45 4.5t50.5 17.5t42.5 42t9 71q-4 26 -23 40t-45 14q-2 0 -16.5 -1.5t-23.5 0t-14 7.5q-7 26 -1 65.5t17 67.5q27 70 91 109t127 25q1 7 13 15q43 30 39 63q-3 35 -62.5 50t-130.5 15q-196 0 -202 -63q-3 -40 39 -65z" />
    <glyph glyph-name="sin.grii" unicode="&#xd9c;&#xdca;&#x200d;&#xdbb;&#xdd3;" horiz-adv-x="743" 
d="M567 645l-29 19q-36 17 -48 11q-30 -14 -34 -45t15.5 -54t47.5 -18q35 0 51 32.5t-3 54.5zM312 406l11 25q35 79 127 106q-46 31 -39 95q1 19 24 52h-26q-3 0 -26.5 1t-39.5 0q-58 -3 -105.5 -19t-52.5 -47q-8 -46 30 -67q2 -1 6.5 -3t6.5 -4q38 5 71 -6q17 -3 14 -21
t-22 -18q-4 0 -8 1q-11 3 -50 3q-65 -4 -108 -59t-50 -128q-9 -97 47 -168t149 -71q17 0 34.5 2.5t40.5 11t39.5 22.5t26.5 40t6 60q-5 26 -23.5 40t-44.5 14q-3 0 -17 -1.5t-23 -0.5t-14 7q-8 30 -2.5 66.5t18.5 66.5zM644 463l15 -24q36 -58 42.5 -134.5t-14.5 -144.5
q-6 -194 -72 -276q-37 -46 -87.5 -65.5t-121.5 -26.5q-53 -5 -105 5q-139 28 -211 151q-6 18 7 26.5t27 -3.5q38 -64 83 -89q111 -59 264 -7q62 21 104 63t55 94q1 5 2.5 14.5t3.5 13.5q-53 -63 -149 -58q-43 7 -53 14q-9 11 -5.5 23.5t20.5 12.5q30 -9 67 -9
q35 0 67.5 24.5t47.5 58.5q19 42 20.5 100.5t-13.5 112.5t-53.5 92t-92.5 38q-50 0 -92 -23.5t-55 -73.5q-6 -22 -11 -55q0 -5 6 -7q53 -5 81 -27q43 -40 42.5 -103t-34.5 -108q-44 -56 -124.5 -68t-139.5 22q-62 33 -97 100t-36 138t21 140q37 96 119 129q-34 32 -30.5 85
t38.5 84q36 30 89 45q54 16 126.5 13t123.5 -23q68 -24 90 -73q12 -29 8 -67q-7 -48 -51 -68q50 -21 78 -66z" />
    <glyph glyph-name="sin.gre" unicode="&#xd9c;&#xdca;&#x200d;&#xdbb;&#xdd9;" horiz-adv-x="1209" 
d="M1157 158q-6 -194 -72 -276q-37 -46 -87.5 -65.5t-121.5 -26.5q-53 -5 -105 5q-139 28 -211 151q-6 18 7 26.5t27 -3.5q38 -64 83 -89q111 -59 264 -7q62 21 104 63t55 94q1 5 2.5 14.5t3.5 13.5q-53 -63 -149 -58q-43 7 -53 14q-9 11 -5.5 23.5t20.5 12.5q30 -9 67 -9
q35 0 67.5 24.5t47.5 58.5q19 42 20.5 100.5t-13.5 112.5t-53.5 92t-92.5 38q-50 0 -92 -23.5t-55 -73.5q-6 -22 -11 -55q0 -5 6 -7q53 -5 81 -27q43 -40 42.5 -103t-34.5 -108q-44 -56 -124.5 -68t-139.5 22q-62 34 -97 100.5t-36 137.5t21 140q21 57 65 95.5t103 45.5
q43 6 78 -6q17 -3 14 -21t-22 -18q-4 0 -8 1q-11 3 -50 3q-65 -4 -108 -59t-50 -128q-9 -97 47 -168t149 -71q17 0 34.5 2.5t40.5 11t39.5 22.5t26.5 40t6 60q-5 26 -23.5 40t-44.5 14q-3 0 -17 -1.5t-23 -0.5t-14 7q-8 30 -2 66t18 67q27 71 87.5 109t129.5 25.5t115 -77.5
q43 -61 54 -144.5t-11 -158.5zM320 268q-12 34 -66 30q-53 -22 -38 -72q8 -25 40.5 -30t50.5 13q25 23 13 59zM444 182l-3 24q-10 78 -101 98q25 -16 25 -61q0 -51 -44 -75t-91.5 -7t-55.5 66q-9 49 25 82t84 39q61 7 115.5 -21t74.5 -82q30 -80 -9.5 -147.5t-123.5 -89.5
q-58 -16 -120.5 -1.5t-108.5 54.5q-81 69 -81 183q0 69 30.5 125t84.5 90q75 47 176 42q85 -5 135 -55q6 -18 -3.5 -28.5t-27.5 0.5q-64 52 -159 40.5t-146 -74.5q-49 -61 -49 -141q0 -74 56 -121t139 -47q125 0 166 66q3 5 12 41z" />
    <glyph glyph-name="sin.gree" unicode="&#xd9c;&#xdca;&#x200d;&#xdbb;&#xdda;" horiz-adv-x="1207" 
d="M1069 783l3 -23v-47q5 -11 28 -11q29 4 35 42q7 41 -16 57q-14 9 -29.5 3t-20.5 -21zM1028 534l2 227q0 27 -31 42q-2 1 -7.5 3t-9.5 3.5t-5 2.5q-19 6 -14 22.5t25 16.5q40 -14 56 -29q26 33 63 29q27 -3 43 -19q18 -20 24 -51.5t-1 -57.5q-13 -47 -48 -58q-29 -9 -54 4
l-4 -155q22 -14 49 -50q41 -59 53.5 -137.5t-6.5 -151.5q-6 -206 -72 -290q-36 -45 -87.5 -65t-122.5 -27q-53 -5 -104 5q-137 27 -212 151q-6 20 6.5 27.5t28.5 -4.5q38 -65 82 -89q111 -59 264 -7q63 21 106 63.5t53 93.5q6 28 7 33q-56 -68 -153 -62q-38 2 -53 14
q-9 10 -5.5 22.5t20.5 12.5q33 -9 67 -9q35 0 67 25t48 59q20 42 21.5 100.5t-13.5 112t-54 91.5t-93 38q-50 0 -92 -23.5t-55 -73.5q-3 -14 -11 -55q0 -6 6 -7q53 -5 81 -27q42 -35 42.5 -102.5t-34.5 -108.5q-44 -56 -124.5 -68t-139.5 22q-62 34 -97 100.5t-36 137.5
t21 140q22 59 65.5 96.5t102.5 44.5q43 6 78 -6q17 -3 14 -21t-22 -18q-4 0 -8 1q-11 3 -50 3q-65 -4 -108 -59t-50 -128q-9 -97 47 -168t149 -71q17 0 34.5 2.5t41 11t40 22.5t26.5 40t5 60q-4 26 -23 40t-45 14q-2 0 -16.5 -1.5t-23.5 0t-14 7.5q-7 31 -1 66t17 66
q30 80 101.5 116.5t142.5 10.5zM320 268q-12 34 -66 30q-53 -22 -38 -72q8 -25 40.5 -30t50.5 13q25 23 13 59zM444 182l-3 24q-10 78 -101 98q25 -16 25 -61q0 -51 -44 -75t-91.5 -7t-55.5 66q-9 49 25 82t84 39q61 7 115.5 -21t74.5 -82q30 -80 -9.5 -147.5t-123.5 -89.5
q-58 -16 -120.5 -1.5t-108.5 54.5q-81 69 -81 183q0 69 30.5 125t84.5 90q75 47 176 42q85 -5 135 -55q6 -18 -3.5 -28.5t-27.5 0.5q-64 52 -159 40.5t-146 -74.5q-49 -61 -49 -141q0 -74 56 -121t139 -47q125 0 166 66q3 5 12 41z" />
    <glyph glyph-name="sin.grai" unicode="&#xd9c;&#xdca;&#x200d;&#xdbb;&#xddb;" horiz-adv-x="1679" 
d="M1631 158q-6 -194 -72 -276q-37 -46 -87.5 -65.5t-121.5 -26.5q-53 -5 -105 5q-139 28 -211 151q-6 18 7 26.5t27 -3.5q38 -64 83 -89q111 -59 264 -7q62 21 104 63t55 94q1 5 2.5 14.5t3.5 13.5q-53 -63 -149 -58q-43 7 -53 14q-9 11 -5.5 23.5t20.5 12.5q30 -9 67 -9
q35 0 67.5 24.5t47.5 58.5q19 42 20.5 100.5t-13.5 112.5t-53.5 92t-92.5 38q-50 0 -92 -23.5t-55 -73.5q-6 -22 -11 -55q0 -5 6 -7q53 -5 81 -27q43 -40 42.5 -103t-34.5 -108q-44 -56 -124.5 -68t-139.5 22q-62 34 -97 100.5t-36 137.5t21 140q21 57 65 95.5t103 45.5
q43 6 78 -6q17 -3 14 -21t-22 -18l-8 1q-11 3 -50 3q-65 -4 -108 -59t-50 -128q-9 -97 47 -168t149 -71q17 0 34.5 2.5t40.5 11t39.5 22.5t26.5 40t6 60q-5 26 -23.5 40t-44.5 14q-3 0 -17 -1.5t-23 -0.5t-14 7q-8 30 -2 66t18 67q27 71 87.5 109t129.5 25.5t115 -77.5
q43 -61 54 -144.5t-11 -158.5zM794 268q-12 34 -66 30q-53 -22 -38 -72q8 -25 40.5 -30t50.5 13q25 23 13 59zM918 182l-3 24q-10 78 -101 98q25 -16 25 -61q0 -51 -44 -75t-91.5 -7t-55.5 66q-9 49 25 82t84 39q61 7 115.5 -21t74.5 -82q30 -80 -9.5 -147.5t-123.5 -89.5
q-58 -16 -120.5 -1.5t-108.5 54.5q-81 69 -81 183q0 69 30.5 125t84.5 90q75 47 176 42q85 -5 135 -55q6 -18 -3.5 -28.5t-27.5 0.5q-64 52 -159 40.5t-146 -74.5q-49 -61 -49 -141q0 -74 56 -121t139 -47q125 0 166 66q3 5 12 41zM320 268q-12 34 -66 30q-53 -22 -38 -72
q8 -25 40.5 -30t50.5 13q25 23 13 59zM444 182l-3 24q-10 78 -101 98q25 -16 25 -61q0 -51 -44 -75t-91.5 -7t-55.5 66q-9 49 25 82t84 39q61 7 115.5 -21t74.5 -82q30 -80 -9.5 -147.5t-123.5 -89.5q-58 -16 -120.5 -1.5t-108.5 54.5q-81 69 -81 183q0 69 30.5 125t84.5 90
q75 47 176 42q85 -5 135 -55q6 -18 -3.5 -28.5t-27.5 0.5q-64 52 -159 40.5t-146 -74.5q-49 -61 -49 -141q0 -74 56 -121t139 -47q125 0 166 66q3 5 12 41z" />
    <glyph glyph-name="sin.gro" unicode="&#xd9c;&#xdca;&#x200d;&#xdbb;&#xddc;" horiz-adv-x="1462" 
d="M1180 73q-3 9 3.5 16.5t17.5 7t19 -12.5q30 -42 63 -40q33 3 48.5 66.5t16.5 126.5q1 30 -0.5 58.5t-7 63t-20 56.5t-35.5 24q-37 3 -65 -39q-11 -17 -25.5 -13.5t-14.5 23.5q12 38 52 58t79 10q40 -10 74 -62q21 -32 31 -98q21 -136 -16 -221q-25 -57 -65 -82
q-40 -24 -91 -5t-64 63zM1157 158q-6 -194 -72 -276q-37 -46 -87.5 -65.5t-121.5 -26.5q-53 -5 -105 5q-139 28 -211 151q-6 18 7 26.5t27 -3.5q38 -64 83 -89q111 -59 264 -7q62 21 104 63t55 94q1 5 2.5 14.5t3.5 13.5q-53 -63 -149 -58q-43 7 -53 14q-9 11 -5.5 23.5
t20.5 12.5q30 -9 67 -9q35 0 67.5 24.5t47.5 58.5q19 42 20.5 100.5t-13.5 112.5t-53.5 92t-92.5 38q-50 0 -92 -23.5t-55 -73.5q-6 -22 -11 -55q0 -5 6 -7q53 -5 81 -27q43 -40 42.5 -103t-34.5 -108q-44 -56 -124.5 -68t-139.5 22q-62 34 -97 100.5t-36 137.5t21 140
q21 57 65 95.5t103 45.5q43 6 78 -6q17 -3 14 -21t-22 -18q-4 0 -8 1q-11 3 -50 3q-65 -4 -108 -59t-50 -128q-9 -97 47 -168t149 -71q17 0 34.5 2.5t40.5 11t39.5 22.5t26.5 40t6 60q-5 26 -23.5 40t-44.5 14q-3 0 -17 -1.5t-23 -0.5t-14 7q-8 30 -2 66t18 67
q27 71 87.5 109t129.5 25.5t115 -77.5q43 -61 54 -144.5t-11 -158.5zM320 268q-12 34 -66 30q-53 -22 -38 -72q8 -25 40.5 -30t50.5 13q25 23 13 59zM444 182l-3 24q-10 78 -101 98q25 -16 25 -61q0 -51 -44 -75t-91.5 -7t-55.5 66q-9 49 25 82t84 39q61 7 115.5 -21
t74.5 -82q30 -80 -9.5 -147.5t-123.5 -89.5q-58 -16 -120.5 -1.5t-108.5 54.5q-81 69 -81 183q0 69 30.5 125t84.5 90q75 47 176 42q85 -5 135 -55q6 -18 -3.5 -28.5t-27.5 0.5q-64 52 -159 40.5t-146 -74.5q-49 -61 -49 -141q0 -74 56 -121t139 -47q125 0 166 66q3 5 12 41
z" />
    <glyph glyph-name="sin.groo" unicode="&#xd9c;&#xdca;&#x200d;&#xdbb;&#xddd;" horiz-adv-x="1479" 
d="M1386 780q3 -12 3 -24v-47q6 -10 29 -10q28 1 34 42q7 42 -16 57q-13 8 -29 2t-21 -20zM1389 665v-242q1 -2 2.5 -5.5t3.5 -5.5q24 -41 31 -98q17 -141 -17 -221q-25 -57 -65 -82q-40 -24 -91 -5.5t-64 63.5q-2 9 4 16.5t16.5 7t19.5 -12.5q31 -42 64 -40q35 3 49.5 66.5
t14.5 126.5q0 196 -63 202q-37 3 -65 -39q-11 -17 -25.5 -13.5t-14.5 23.5q12 38 52 58t79 10q13 -4 26 -11l2 294q-4 28 -32 42q-6 5 -22 9q-18 6 -13.5 23.5t25.5 15.5q35 -9 55 -29q29 34 64 29q31 -5 43 -19q20 -20 25.5 -51.5t-3.5 -57.5q-13 -46 -48 -57q-26 -9 -53 3
zM1157 158q-6 -194 -72 -276q-37 -46 -87.5 -65.5t-121.5 -26.5q-53 -5 -105 5q-139 28 -211 151q-6 18 7 26.5t27 -3.5q38 -64 83 -89q111 -59 264 -7q62 21 104 63t55 94q1 5 2.5 14.5t3.5 13.5q-53 -63 -149 -58q-43 7 -53 14q-9 11 -5.5 23.5t20.5 12.5q30 -9 67 -9
q35 0 67.5 24.5t47.5 58.5q19 42 20.5 100.5t-13.5 112.5t-53.5 92t-92.5 38q-50 0 -92 -23.5t-55 -73.5q-6 -22 -11 -55q0 -5 6 -7q53 -5 81 -27q43 -40 42.5 -103t-34.5 -108q-44 -56 -124.5 -68t-139.5 22q-62 34 -97 100.5t-36 137.5t21 140q21 57 65 95.5t103 45.5
q43 6 78 -6q17 -3 14 -21t-22 -18q-4 0 -8 1q-11 3 -50 3q-65 -4 -108 -59t-50 -128q-9 -97 47 -168t149 -71q17 0 34.5 2.5t40.5 11t39.5 22.5t26.5 40t6 60q-5 26 -23.5 40t-44.5 14q-3 0 -17 -1.5t-23 -0.5t-14 7q-8 30 -2 66t18 67q27 71 87.5 109t129.5 25.5t115 -77.5
q43 -61 54 -144.5t-11 -158.5zM320 268q-12 34 -66 30q-53 -22 -38 -72q8 -25 40.5 -30t50.5 13q25 23 13 59zM444 182l-3 24q-10 78 -101 98q25 -16 25 -61q0 -51 -44 -75t-91.5 -7t-55.5 66q-9 49 25 82t84 39q61 7 115.5 -21t74.5 -82q30 -80 -9.5 -147.5t-123.5 -89.5
q-58 -16 -120.5 -1.5t-108.5 54.5q-81 69 -81 183q0 69 30.5 125t84.5 90q75 47 176 42q85 -5 135 -55q6 -18 -3.5 -28.5t-27.5 0.5q-64 52 -159 40.5t-146 -74.5q-49 -61 -49 -141q0 -74 56 -121t139 -47q125 0 166 66q3 5 12 41z" />
    <glyph glyph-name="sin.grau" unicode="&#xd9c;&#xdca;&#x200d;&#xdbb;&#xdde;" horiz-adv-x="1556" 
d="M1157 158q-6 -194 -72 -276q-37 -46 -87.5 -65.5t-121.5 -26.5q-53 -5 -105 5q-139 28 -211 151q-6 18 7 26.5t27 -3.5q38 -64 83 -89q111 -59 264 -7q62 21 104 63t55 94q1 5 2.5 14.5t3.5 13.5q-53 -63 -149 -58q-43 7 -53 14q-9 11 -5.5 23.5t20.5 12.5q30 -9 67 -9
q35 0 67.5 24.5t47.5 58.5q19 42 20.5 100.5t-13.5 112.5t-53.5 92t-92.5 38q-50 0 -92 -23.5t-55 -73.5q-6 -22 -11 -55q0 -5 6 -7q53 -5 81 -27q43 -40 42.5 -103t-34.5 -108q-44 -56 -124.5 -68t-139.5 22q-62 34 -97 100.5t-36 137.5t21 140q21 57 65 95.5t103 45.5
q43 6 78 -6q17 -3 14 -21t-22 -18q-4 0 -8 1q-11 3 -50 3q-65 -4 -108 -59t-50 -128q-9 -97 47 -168t149 -71q17 0 34.5 2.5t40.5 11t39.5 22.5t26.5 40t6 60q-5 26 -23.5 40t-44.5 14q-3 0 -17 -1.5t-23 -0.5t-14 7q-8 30 -2 66t18 67q27 71 87.5 109t129.5 25.5t115 -77.5
q43 -61 54 -144.5t-11 -158.5zM320 268q-12 34 -66 30q-53 -22 -38 -72q8 -25 40.5 -30t50.5 13q25 23 13 59zM444 182l-3 24q-10 78 -101 98q25 -16 25 -61q0 -51 -44 -75t-91.5 -7t-55.5 66q-9 49 25 82t84 39q61 7 115.5 -21t74.5 -82q30 -80 -9.5 -147.5t-123.5 -89.5
q-58 -16 -120.5 -1.5t-108.5 54.5q-81 69 -81 183q0 69 30.5 125t84.5 90q75 47 176 42q85 -5 135 -55q6 -18 -3.5 -28.5t-27.5 0.5q-64 52 -159 40.5t-146 -74.5q-49 -61 -49 -141q0 -74 56 -121t139 -47q125 0 166 66q3 5 12 41zM1267 484q20 -2 23 -17t-16 -23
q-30 -8 -42.5 -44t0 -71t44.5 -40q16 -5 35.5 4t23.5 27q3 19 -4.5 35t-26.5 16q-18 5 -18 24q0 55 55 80.5t101 -4.5q25 -16 40 -44t20.5 -66t7 -62t0.5 -61q-4 -157 -112 -225q-44 -29 -110.5 -6.5t-78.5 75.5q0 20 16 24t24 -14q8 -29 44 -42.5t65 -3.5q53 18 72 93.5
t14 165.5q-9 142 -81 129q-24 -5 -32 -28q29 -13 41.5 -44t-0.5 -62q-24 -53 -93 -53q-38 0 -62.5 28t-29.5 67q-6 48 14.5 89.5t65.5 52.5z" />
    <glyph glyph-name="sin.gya" unicode="&#xd9c;&#xdca;&#x200d;&#xdba;" horiz-adv-x="1154" 
d="M859 260q-9 -14 -35 -48t-41.5 -61t-22.5 -54q33 11 49 8t43 -20q50 -31 121 -20q36 6 65 35t34.5 69t-24.5 84q-11 15 -51 56t-55.5 74t-10.5 78q7 54 62.5 78t97.5 -12q32 -28 33.5 -66.5t-32.5 -63.5q-18 -8 -33 5t-4 28q24 24 10.5 50t-38.5 24q-43 -5 -53 -38
q-3 -9 -3.5 -18.5t0 -17.5t5 -17t6.5 -15t9.5 -15t11 -13t13 -13.5t12.5 -12t13.5 -12t12.5 -10.5q82 -74 78 -149q4 -42 -16.5 -81t-55.5 -61.5t-78 -30t-83 11.5q-14 6 -37.5 20t-37 20.5t-34 5.5t-40.5 -16q-2 -16 -2 -21q-2 -14 -12.5 -18.5t-19.5 1.5t-9 20
q3 91 48 160q15 23 41 60t36 53q51 97 18 157q-19 34 -48 30q-11 -2 -18 -8q-17 -23 -31 -31t-19.5 -7t-19.5 7q-16 10 -16 27t10 27q26 33 70.5 43.5t83.5 -15t45 -87.5q-1 -23 1 -34.5t-3 -31t-6 -27.5t-8.5 -24t-10 -22t-10.5 -21t-11 -20zM280 500q-13 3 -49 3
q-69 -4 -110 -58t-49 -129q-11 -97 46 -168t150 -71q17 0 35 2.5t41 11t39 22.5t26 40t6 60q-5 26 -23.5 40t-44.5 14q-3 0 -17 -1.5t-23 -0.5t-14 7q-7 30 -1 66.5t18 66.5q28 71 88 109.5t128.5 26.5t114.5 -79q53 -77 57 -182t-41 -186q-29 -53 -70.5 -74.5t-102.5 -18.5
q-43 7 -53 14q-9 11 -5 23.5t20 12.5q30 -9 67 -9q36 0 68.5 24.5t47.5 58.5q18 42 19.5 100.5t-13.5 112.5t-53.5 92t-92.5 38q-49 0 -91.5 -23.5t-55.5 -73.5q-3 -10 -10 -55q0 -5 5 -7q55 -5 82 -27q43 -39 42.5 -102.5t-35.5 -108.5q-43 -56 -124 -68.5t-140 22.5
q-46 26 -78 71t-44.5 96.5t-10 106.5t20.5 104q21 57 65 95.5t103 45.5q44 6 78 -6q17 -3 14 -21t-22 -18q-4 0 -8 1z" />
    <glyph glyph-name="sin.gyu" unicode="&#xd9c;&#xdca;&#x200d;&#xdba;&#xdd4;" horiz-adv-x="1167" 
d="M853 261q-10 -16 -35 -48t-41 -59t-23 -55q19 8 35 8t27 -4.5t30 -15.5q51 -31 121 -20q38 6 69 34.5t40 69t-19 84.5q-15 22 -55 58.5t-61 70.5t-16 79q7 55 62 77t98 -12q33 -24 33.5 -64.5t-32.5 -64.5q-18 -8 -33 4.5t-3 28.5q24 24 10.5 50t-39.5 24q-43 -5 -53 -39
q-16 -57 54 -121q6 -5 27 -23q81 -66 77 -148q3 -21 -5 -56v-321q-3 -21 -22 -21h-280q-40 0 -60 6q-44 13 -66 43.5t-10 73.5q6 26 24 44q24 24 65.5 29.5t71.5 -4.5q19 -8 16.5 -23.5t-22.5 -17.5q-57 15 -95 -8q-20 -12 -22 -36t13 -41q21 -24 53 -24q22 0 65 18t75 17
q41 -1 86.5 -19t66.5 -17v235q-36 -36 -87 -47.5t-100 8.5q-14 6 -37.5 20t-37 20.5t-34 5.5t-40.5 -16q0 -5 -1 -11t-1 -10q-4 -23 -22 -21.5t-18 24.5q2 88 47 160q11 17 37 54t37 58q53 98 19 158q-20 34 -49 29q-10 -1 -18 -8q-12 -17 -22 -26t-19 -10t-13.5 0t-14.5 5
q-16 10 -16 27t10 27q26 34 70.5 45t83.5 -15t45 -88q-1 -25 1.5 -35.5t-3 -30.5t-6 -27t-8 -24.5t-9.5 -22t-10.5 -21t-10.5 -20.5zM286 500q-13 3 -49 3q-69 -4 -110 -58t-49 -129q-11 -97 46 -168t150 -71q17 0 35 2.5t41 11t39 22.5t26 40t6 60q-5 26 -23.5 40t-44.5 14
q-3 0 -17 -1.5t-23 -0.5t-14 7q-7 30 -1 66.5t18 66.5q28 71 88 109.5t128.5 26.5t114.5 -79q53 -77 57 -182t-41 -186q-29 -53 -70.5 -74.5t-102.5 -18.5q-43 7 -53 14q-9 11 -5 23.5t20 12.5q30 -9 67 -9q36 0 68.5 24.5t47.5 58.5q18 42 19.5 100.5t-13.5 112.5t-53.5 92
t-92.5 38q-49 0 -91.5 -23.5t-55.5 -73.5q-3 -10 -10 -55q0 -5 5 -7q55 -5 82 -27q43 -39 42.5 -102.5t-35.5 -108.5q-43 -56 -124 -68.5t-140 22.5q-46 26 -78 71t-44.5 96.5t-10 106.5t20.5 104q21 57 65 95.5t103 45.5q44 6 78 -6q17 -3 14 -21t-22 -18q-4 0 -8 1z" />
    <glyph glyph-name="sin.gyuu" unicode="&#xd9c;&#xdca;&#x200d;&#xdba;&#xdd6;" horiz-adv-x="1158" 
d="M851 258q-10 -16 -35 -48.5t-41.5 -59.5t-23.5 -55q7 3 13 5t12 2t10 1t10 -0.5t8.5 -2t10 -3.5t8.5 -4t10 -5t10 -5q59 -30 122 -20q37 6 69 35t41 69t-20 84q-15 21 -56.5 58t-62 71t-14.5 79q8 57 62.5 79.5t98.5 -13.5q32 -26 33 -64.5t-32 -65.5q-19 -8 -34 4.5
t-3 28.5q24 24 10.5 50t-39.5 24q-42 -5 -52 -38q-3 -9 -3.5 -18.5t0 -17.5t5 -17t6.5 -15t9.5 -15t11 -13t13 -13.5t12.5 -12t13.5 -12t12.5 -10.5q82 -74 78 -149q2 -36 -4 -51v-314q0 -32 -38 -32q-14 0 -62 24t-83 24q-34 0 -75.5 -23t-97.5 -20q-40 2 -66.5 36.5
t-17.5 80.5q4 23 25 44q47 46 137 25q18 -7 16 -23.5t-23 -16.5q-58 14 -94 -9q-20 -13 -22.5 -36.5t12.5 -40.5q9 -10 22.5 -17t19.5 -7q30 0 75 38t86 38q34 0 62.5 -17.5t48.5 -34.5t34 -16v228q-37 -37 -87.5 -48.5t-100.5 7.5q-15 6 -38 20t-36.5 21t-34.5 6t-41 -17
q0 -5 -0.5 -11t-0.5 -10q-2 -15 -12.5 -19.5t-19.5 2.5t-9 20q3 90 47 160q14 22 40 58.5t38 54.5q51 97 18 156q-19 34 -48 31q-11 -2 -19 -9q-24 -31 -40 -36.5t-29 6.5q-16 10 -16 26.5t10 26.5q26 34 70.5 45t83.5 -15t45 -88q-1 -23 1 -34.5t-3 -31t-6 -27.5t-8.5 -24
t-10 -22t-10.5 -21t-11 -20zM291 500q-13 3 -49 3q-69 -4 -110 -58t-49 -129q-11 -97 46 -168t150 -71q17 0 35 2.5t41 11t39 22.5t26 40t6 60q-5 26 -23.5 40t-44.5 14q-3 0 -17 -1.5t-23 -0.5t-14 7q-7 30 -1 66.5t18 66.5q28 71 88 109.5t128.5 26.5t114.5 -79
q53 -77 57 -182t-41 -186q-29 -53 -70.5 -74.5t-102.5 -18.5q-43 7 -53 14q-9 11 -5 23.5t20 12.5q30 -9 67 -9q36 0 68.5 24.5t47.5 58.5q18 42 19.5 100.5t-13.5 112.5t-53.5 92t-92.5 38q-49 0 -91.5 -23.5t-55.5 -73.5q-3 -10 -10 -55q0 -5 5 -7q55 -5 82 -27
q43 -39 42.5 -102.5t-35.5 -108.5q-43 -56 -124 -68.5t-140 22.5q-46 26 -78 71t-44.5 96.5t-10 106.5t20.5 104q21 57 65 95.5t103 45.5q44 6 78 -6q17 -3 14 -21t-22 -18q-4 0 -8 1z" />
    <glyph glyph-name="sin.gyo" unicode="&#xd9c;&#xdca;&#x200d;&#xdba;&#xddc;" horiz-adv-x="1892" 
d="M1622 76q-3 9 3 17t17 7t20 -14q30 -43 64 -40t49 66t16 128q6 196 -63 202q-40 4 -66 -39q-11 -18 -25.5 -14t-14.5 24q12 38 52.5 57.5t79.5 9.5q40 -10 74 -61q23 -36 31 -98q16 -132 -17 -221q-22 -57 -65 -82q-40 -24 -91 -5.5t-64 63.5zM1332 265l-4 -7
q-8 -15 -47.5 -67t-48.5 -89q19 8 36 7.5t25.5 -4t30.5 -14.5q61 -31 122 -21q58 9 87 66t-13 122q-13 17 -52.5 57t-55 72.5t-9.5 78.5q8 55 60 78t101 -12q32 -24 31.5 -64.5t-31.5 -64.5q-18 -8 -33 4.5t-3 28.5q24 24 10.5 50t-39.5 24q-43 -6 -53 -39q-3 -10 -4 -20
t2 -20t5 -17.5t9.5 -17.5t11 -15t14.5 -15t14 -13t15 -14t14 -12q82 -70 78 -149q8 -88 -72 -142t-161 -18q-14 6 -38 20.5t-37.5 21t-34 5t-40.5 -17.5q0 -4 -0.5 -10t-0.5 -11q-4 -22 -23 -20t-18 24q3 89 47 159q14 21 39.5 58t37.5 55q51 99 18 158q-19 34 -48 29
q-10 -2 -18 -8q-12 -17 -22 -26t-19 -10t-13.5 0t-14.5 5q-16 10 -16 27t10 27q26 33 70.5 43.5t83.5 -15t45 -87.5q4 -40 -4 -76.5t-16.5 -53.5t-27.5 -50zM763 500q-13 3 -49 3q-69 -4 -110 -58t-49 -129q-11 -97 46 -168t150 -71q17 0 35 2.5t41 11t39 22.5t26 40t6 60
q-5 26 -23.5 40t-44.5 14q-3 0 -17 -1.5t-23 -0.5t-14 7q-7 30 -1 66.5t18 66.5q28 71 88 109.5t128.5 26.5t114.5 -79q53 -77 57 -182t-41 -186q-29 -53 -70.5 -74.5t-102.5 -18.5q-43 7 -53 14q-9 11 -5 23.5t20 12.5q30 -9 67 -9q36 0 68.5 24.5t47.5 58.5
q18 42 19.5 100.5t-13.5 112.5t-53.5 92t-92.5 38q-49 0 -91.5 -23.5t-55.5 -73.5q-3 -10 -10 -55q0 -5 5 -7q55 -5 82 -27q43 -39 42.5 -102.5t-35.5 -108.5q-43 -56 -124 -68.5t-140 22.5q-46 26 -78 71t-44.5 96.5t-10 106.5t20.5 104q21 57 65 95.5t103 45.5q44 6 78 -6
q17 -3 14 -21t-22 -18q-4 0 -8 1zM320 268q-12 34 -66 30q-53 -22 -38 -72q8 -25 40.5 -30t50.5 13q25 23 13 59zM444 182l-3 24q-10 78 -101 98q25 -16 25 -61q0 -51 -44 -75t-91.5 -7t-55.5 66q-9 49 25 82t84 39q61 7 115.5 -21t74.5 -82q30 -80 -9.5 -147.5
t-123.5 -89.5q-58 -16 -120.5 -1.5t-108.5 54.5q-81 69 -81 183q0 69 30.5 125t84.5 90q75 47 176 42q85 -5 135 -55q6 -18 -3.5 -28.5t-27.5 0.5q-64 52 -159 40.5t-146 -74.5q-49 -61 -49 -141q0 -74 56 -121t139 -47q125 0 166 66q3 5 12 41z" />
    <glyph glyph-name="sin.gyoo" unicode="&#xd9c;&#xdca;&#x200d;&#xdba;&#xddd;" horiz-adv-x="1885" 
d="M763 500q-13 3 -49 3q-69 -4 -110 -58t-49 -129q-11 -97 46 -168t150 -71q17 0 35 2.5t41 11t39 22.5t26 40t6 60q-5 26 -23.5 40t-44.5 14q-3 0 -17 -1.5t-23 -0.5t-14 7q-7 30 -1 66.5t18 66.5q28 71 88 109.5t128.5 26.5t114.5 -79q53 -77 57 -182t-41 -186
q-29 -53 -70.5 -74.5t-102.5 -18.5q-43 7 -53 14q-9 11 -5 23.5t20 12.5q30 -9 67 -9q36 0 68.5 24.5t47.5 58.5q18 42 19.5 100.5t-13.5 112.5t-53.5 92t-92.5 38q-49 0 -91.5 -23.5t-55.5 -73.5q-3 -10 -10 -55q0 -5 5 -7q55 -5 82 -27q43 -39 42.5 -102.5t-35.5 -108.5
q-43 -56 -124 -68.5t-140 22.5q-46 26 -78 71t-44.5 96.5t-10 106.5t20.5 104q21 57 65 95.5t103 45.5q44 6 78 -6q17 -3 14 -21t-22 -18q-4 0 -8 1zM1764 783q3 -10 3 -23v-47q6 -11 29 -11q28 4 34 42q7 42 -16 57q-13 8 -29 2t-21 -20zM1766 669l-2 -203q25 -15 48 -50
q22 -33 31 -99q19 -127 -17 -220q-22 -56 -64 -82q-40 -24 -90.5 -5t-64.5 63q-3 9 3 17t17 7t20 -14q28 -43 63 -40q56 4 65 194q1 28 -0.5 58t-7 63.5t-20 56t-35.5 24.5q-39 3 -65 -39q-11 -17 -25.5 -14t-14.5 24q12 35 45.5 54.5t71.5 15.5l2 281q-4 28 -31 42
q-2 1 -11.5 4t-11.5 5q-18 6 -13.5 22.5t25.5 16.5q40 -14 55 -29q28 33 64 29q27 -3 43 -19q18 -21 24.5 -52t-2.5 -57q-13 -47 -48 -58q-26 -9 -54 4zM1323 262q-10 -16 -35 -48.5t-41.5 -59.5t-23.5 -55q19 8 36 7.5t25.5 -4t30.5 -14.5q61 -31 122 -21q37 6 69 35.5
t41 70t-20 83.5q-14 19 -43 46t-48.5 45.5t-33 49.5t-8.5 66q8 55 62.5 78t98.5 -12q32 -26 32.5 -65t-31.5 -64q-19 -8 -34 4t-3 28q24 24 10.5 50t-39.5 24q-42 -5 -52 -38q-3 -9 -3.5 -18.5t0 -17.5t5 -17t6.5 -15t9.5 -15t11 -13t13 -13.5t12.5 -12t13.5 -12t12.5 -10.5
q82 -74 78 -149q4 -42 -16.5 -80.5t-55.5 -61t-78 -30.5t-83 11q-14 6 -37.5 20.5t-37 21t-34.5 5.5t-41 -17q0 -4 -0.5 -10.5t-0.5 -10.5q-2 -14 -12.5 -18.5t-19.5 1.5t-9 20q3 90 47 160q14 22 40 58.5t38 54.5q51 99 18 158q-19 34 -49 29q-10 -1 -18 -8
q-12 -17 -22 -26t-19 -10t-13.5 0t-14.5 5q-16 10 -16 27t10 27q27 33 71 43.5t83 -15t45 -87.5q0 -22 1 -34.5t-3 -30.5l-6 -27t-9 -24.5t-10 -22.5t-10.5 -21t-10.5 -20zM320 268q-12 34 -66 30q-53 -22 -38 -72q8 -25 40.5 -30t50.5 13q25 23 13 59zM444 182l-3 24
q-10 78 -101 98q25 -16 25 -61q0 -51 -44 -75t-91.5 -7t-55.5 66q-9 49 25 82t84 39q61 7 115.5 -21t74.5 -82q30 -80 -9.5 -147.5t-123.5 -89.5q-58 -16 -120.5 -1.5t-108.5 54.5q-81 69 -81 183q0 69 30.5 125t84.5 90q75 47 176 42q85 -5 135 -55q6 -18 -3.5 -28.5
t-27.5 0.5q-64 52 -159 40.5t-146 -74.5q-49 -61 -49 -141q0 -74 56 -121t139 -47q125 0 166 66q3 5 12 41z" />
    <glyph glyph-name="sin.rga" unicode="&#xdbb;&#xdca;&#x200d;&#xd9c;" horiz-adv-x="739" 
d="M400 580q7 -12 27 -17q19 2 25 18.5t-2.5 30.5t-26.5 12q-17 -2 -25 -16t2 -28zM571 573q-10 -18 -25 -14t-15 24q7 43 1 60q-10 27 -41 45.5t-72 17.5q-43 -1 -77 -22.5t-36 -55.5q-4 -48 56 -67q-23 38 4 75t80 27q35 -6 48 -54q5 -19 -3 -43q-13 -36 -73.5 -45
t-93.5 11q-42 22 -56 70t10 90q39 71 148 71q68 0 113 -42q53 -50 32 -148zM282 500q-13 3 -49 3q-69 -4 -110 -58t-49 -129q-11 -97 46 -168t150 -71q17 0 35 2.5t41 11t39 22.5t26 40t6 60q-5 26 -23.5 40t-44.5 14q-3 0 -17 -1.5t-23 -0.5t-14 7q-7 30 -1 66.5t18 66.5
q28 71 88 109.5t128.5 26.5t114.5 -79q53 -77 57 -182t-41 -186q-29 -53 -70.5 -74.5t-102.5 -18.5q-43 7 -53 14q-9 11 -5 23.5t20 12.5q30 -9 67 -9q36 0 68.5 24.5t47.5 58.5q18 42 19.5 100.5t-13.5 112.5t-53.5 92t-92.5 38q-49 0 -91.5 -23.5t-55.5 -73.5
q-3 -10 -10 -55q0 -5 5 -7q55 -5 82 -27q43 -39 42.5 -102.5t-35.5 -108.5q-43 -56 -124 -68.5t-140 22.5q-46 26 -78 71t-44.5 96.5t-10 106.5t20.5 104q21 57 65 95.5t103 45.5q44 6 78 -6q17 -3 14 -21t-22 -18q-4 0 -8 1z" />
    <glyph glyph-name="sin.gh" unicode="&#xd9d;&#xdca;" horiz-adv-x="750" 
d="M620 785l3 -23v-47q6 -11 29 -11q28 1 34 42q7 42 -16 57q-13 8 -29 2t-21 -20zM622 670l-2 -143q16 -9 31 -29q10 -11 9.5 -27t-15.5 -27q-50 -19 -73 14l-1 1q-4 10 -15 19q-20 18 -49 20t-50.5 -14.5t-20.5 -48.5q-1 -7 6 -7q98 2 140 -17q71 -31 100 -92
q30 -61 20.5 -133.5t-53.5 -122.5q-49 -55 -129 -61q-51 -4 -99 27q-24 15 -38 59q0 1 -2 20t-3 32t1 17q29 -3 56 3t27 20q0 25 -91 25q-90 0 -90 -25q0 -14 27 -20t56 -3q2 -4 1 -17t-3.5 -32t-2.5 -20q-14 -44 -37 -59q-51 -31 -100 -27q-80 6 -129 61
q-44 50 -53.5 122.5t20.5 133.5q17 33 43 56q5 9 -6 9h-48q-18 2 -18 20t18 22l240 1q7 3 7 8q1 32 -20.5 48.5t-50.5 13.5t-49 -19q-5 -4 -10.5 -12.5t-8.5 -11.5q-27 -31 -70 -10q-16 10 -16 27t10 27q36 46 103 54t114 -23q38 -24 50 -76t-18 -68q-77 6 -128.5 -5
t-84.5 -49q-34 -37 -34.5 -91.5t30.5 -99.5t81 -57q20 -5 55.5 -1.5t52.5 13.5q11 5 11 26q-28 1 -45.5 8t-24 19t-8 19t-1.5 19q0 21 35.5 38.5t101.5 17.5t102 -17.5t36 -38.5q0 -11 -1.5 -18.5t-8.5 -19.5t-24.5 -19t-45.5 -8q0 -19 8 -24q15 -12 53 -15.5t59 1.5
q51 11 81 55.5t29 98.5t-34 94q-32 39 -83 50t-130 4q-31 16 -20 65.5t41 69.5q69 45 147 24l1 219q0 24 -31 42l-22 8q-12 4 -14.5 14.5t4.5 18t21 6.5q36 -9 56 -28q25 32 63 28q28 -3 43 -19q18 -20 24 -51t-1 -57q-13 -47 -48 -58q-25 -9 -54 3z" />
    <glyph glyph-name="sin.ghi" unicode="&#xd9d;&#xdd2;" horiz-adv-x="752" 
d="M225 552q44 -3 78 -25q38 -24 50 -76t-18 -67q-153 13 -213 -55q-34 -38 -34.5 -92t30.5 -98.5t81 -56.5q17 -5 54.5 -2t54.5 14q10 6 10 26q-28 1 -45.5 8t-24 19t-8 19t-1.5 19q0 21 36 38.5t101 17.5q66 0 102 -17.5t36 -38.5q0 -11 -1.5 -18.5t-8.5 -19.5t-24.5 -19
t-45.5 -8q0 -19 8 -25q15 -11 53.5 -14.5t58.5 1.5q50 11 80.5 55.5t30 99t-34.5 92.5q-60 68 -213 55q-31 15 -20.5 65t41.5 70q38 26 87 29l10 9q44 29 40 63q-3 35 -63.5 50t-130.5 15q-196 0 -202 -63q-3 -40 39 -65q1 -1 4 -2zM603 672l10 -27q12 -59 -29 -103
q45 -10 72 -45q10 -11 9.5 -27t-15.5 -27q-14 -9 -37 -6.5t-36 20.5h-1q-5 11 -15 20q-20 18 -49 20t-50.5 -14.5t-20.5 -48.5q-2 -8 6 -8q90 6 140 -17q69 -32 100 -92q30 -59 20.5 -132.5t-53.5 -123.5q-49 -55 -129 -61q-51 -4 -99 27q-27 17 -37 60q-2 4 -5 36.5t0 32.5
q29 -3 56 2.5t27 19.5q0 26 -91 26q-90 0 -90 -26q0 -14 27 -19.5t56 -2.5q2 -4 1 -17t-3.5 -32t-2.5 -20q-13 -45 -37 -60q-47 -30 -100 -27q-77 3 -129 61q-45 49 -54 123t21 133q16 34 43 56q4 10 -6 10h-48q-18 2 -18 20t18 22l240 1q7 1 7 8q1 32 -20.5 48t-50.5 13
t-49 -19q-9 -6 -16 -19v-1q-13 -18 -36.5 -20t-36.5 6q-16 10 -16 27t10 27q27 37 79 50q-39 46 -25 102q10 40 62 74q32 21 98 31q117 18 221 -17q54 -18 82 -64z" />
    <glyph glyph-name="sin.ghii" unicode="&#xd9d;&#xdd3;" horiz-adv-x="735" 
d="M553 646l-30 19q-35 17 -48 11q-30 -14 -34 -45t15.5 -54t47.5 -18q34 0 51 32.5t-2 54.5zM201 552l28 -3q30 -3 60 -22q38 -24 50 -76t-18 -68q-77 6 -128.5 -5t-84.5 -49q-34 -37 -34.5 -91.5t30.5 -99.5t81 -57q20 -5 55.5 -1.5t53.5 13.5q10 6 10 26q-28 1 -45.5 8
t-24 19t-8 19t-1.5 19q0 21 36 38.5t102 17.5t101.5 -17.5t35.5 -38.5q0 -11 -1.5 -18.5t-8.5 -19.5t-24.5 -19t-45.5 -8q0 -20 9 -24q15 -11 52.5 -15.5t58.5 1.5q51 12 81 56.5t29 98.5t-34 93q-32 39 -83.5 50t-128.5 4q-31 16 -20 65.5t41 69.5q4 4 22 13
q-58 28 -51 102q1 19 24 52h-26q-3 0 -26.5 1t-39.5 0q-58 -3 -105.5 -19t-52.5 -47q-8 -46 31 -68zM602 598l-4 -17q-6 -23 -27 -39q44 -13 71 -46q10 -11 9.5 -27t-15.5 -27q-50 -19 -73 14l-1 1q-4 10 -15 19q-20 16 -49 19t-50.5 -13.5t-20.5 -48.5q0 -7 6 -7
q97 2 140 -17q72 -33 101 -92q30 -61 20.5 -133t-54.5 -123q-49 -55 -129 -61q-51 -4 -99 27q-23 15 -37 59q-2 4 -5 36.5t0 32.5q29 -3 56 3t27 20q0 25 -91 25q-90 0 -90 -25q0 -14 27 -20t56 -3q2 -4 1 -17t-3.5 -32t-2.5 -20q-14 -44 -37 -59q-51 -31 -100 -27
q-80 6 -129 61q-44 50 -53.5 122.5t20.5 133.5q17 33 43 56q4 9 -5 9h-49q-18 2 -18 20t18 22l240 1q7 3 7 8q1 32 -20.5 48.5t-50.5 13.5t-49 -19q-11 -8 -15 -20h-1q-13 -18 -36.5 -20.5t-36.5 6.5q-16 10 -16 27t10 27q29 35 77 49q-27 37 -21 82.5t37 75.5q29 28 89 45
q54 16 126.5 13t123.5 -23q69 -25 90 -73q15 -35 8 -67z" />
    <glyph glyph-name="sin.ghu" unicode="&#xd9d;&#xdd4;" horiz-adv-x="743" 
d="M699 157v-354q-3 -20 -23 -20h-239h-240q-49 0 -69 6q-44 13 -65.5 43.5t-10.5 73.5q6 25 25 44q50 45 137 25q18 -8 15.5 -23.5t-22.5 -17.5q-56 15 -95 -9q-19 -12 -21.5 -35.5t12.5 -40.5q16 -18 54 -24q4 -1 23 -1h17q35 0 100 18t105 18q46 0 115 -18.5t98 -18.5
q7 0 21 0.5t22 0.5v250l-7 -8q-49 -55 -128 -61q-52 -4 -100 27q-24 15 -37 60q-2 4 -5 36.5t0 32.5q29 -3 56 2.5t27 19.5q0 26 -91 26q-90 0 -90 -26q0 -14 27 -19.5t56 -2.5q2 -4 1 -17t-3.5 -32t-2.5 -20q-13 -45 -37 -60q-47 -30 -100 -27q-77 3 -129 61
q-44 50 -53.5 123.5t20.5 132.5q16 34 43 56q2 4 0.5 7t-5.5 3h-49q-18 2 -18 20t18 22l241 1q6 1 6 8q1 32 -20.5 48t-50.5 13t-49 -19q-11 -8 -15 -19l-1 -1q-13 -18 -36.5 -20t-36.5 6q-16 10 -16 27t10 27q37 47 103 55t114 -24q38 -24 50 -76t-18 -67q-153 13 -213 -55
q-34 -38 -34.5 -92.5t30.5 -99t81 -55.5q19 -5 55.5 -2.5t53.5 14.5q10 6 10 26q-28 1 -45.5 8t-24 19t-8 19t-1.5 19q0 21 36 38.5t102 17.5q65 0 101 -17.5t36 -38.5q0 -11 -1.5 -18.5t-8.5 -19.5t-24.5 -19t-45.5 -8q0 -19 9 -25q15 -11 52.5 -14.5t58.5 1.5
q50 11 81 55.5t30 99t-34 92.5q-60 68 -213 55q-31 15 -20.5 65t41.5 70q46 33 113 28.5t104 -50.5q10 -11 9.5 -27t-15.5 -27q-13 -9 -36.5 -6.5t-36.5 20.5h-1q-4 12 -15 20q-20 16 -49 19t-50.5 -13.5t-20.5 -48.5q0 -8 6 -8q91 6 140 -17q70 -32 101 -92q38 -77 14 -165
z" />
    <glyph glyph-name="sin.ghuu" unicode="&#xd9d;&#xdd6;" horiz-adv-x="739" 
d="M647 -157v220q-52 -58 -129 -61q-53 -3 -100 27q-24 15 -37 60q0 1 -2.5 20t-3.5 32t1 17q29 -3 56 2.5t27 19.5q0 26 -91 26q-90 0 -90 -26q0 -14 27 -19.5t56 -2.5q3 0 0 -32.5t-5 -36.5q-13 -45 -37 -60q-48 -31 -100 -27q-79 6 -128 61q-45 49 -54.5 123t20.5 133
q16 32 43 56q2 4 0.5 7t-5.5 3h-48q-19 2 -18.5 20t18.5 22l240 1q6 1 6 8q1 32 -20.5 48t-50.5 14t-49 -20q-11 -9 -15 -19v-1q-27 -35 -74 -14q-16 10 -16 27t10 27q38 48 102.5 56t115.5 -25q38 -24 49.5 -76.5t-18.5 -66.5q-153 13 -213 -55q-34 -38 -34.5 -92.5
t30.5 -99t81 -55.5q19 -5 55.5 -2.5t53.5 14.5q11 6 11 26q-28 1 -46 8t-24.5 19t-8 19t-1.5 19q0 21 36 38.5t102 17.5q65 0 101 -17.5t36 -38.5q0 -12 -1.5 -19t-8 -19t-24 -19t-45.5 -8q0 -20 8 -25q15 -11 52.5 -14.5t58.5 1.5q50 11 81 55.5t30 99t-34 92.5
q-60 68 -213 55q-31 15 -20.5 65t41.5 70q46 33 113 28.5t104 -50.5q10 -11 9.5 -27t-15.5 -27q-13 -9 -36.5 -6.5t-36.5 20.5q-4 12 -15 20q-20 18 -49 20t-51 -14.5t-21 -48.5q0 -8 7 -8q90 6 139 -17q70 -32 101 -92q41 -81 10 -179l-1 -336q-2 -14 -16 -18.5t-26 3.5
q-43 24 -80 34t-67.5 9.5t-69.5 -1.5q-41 -1 -116 -23.5t-135 -27.5q-46 -3 -83 11q-36 15 -53.5 45t-7.5 67q7 26 25 44q50 46 137 25q18 -8 15.5 -23.5t-22.5 -17.5q-56 15 -95 -9q-20 -12 -22 -35.5t13 -40.5q21 -24 54 -24q68 0 155 53q76 43 181 31.5t171 -63.5z" />
    <glyph glyph-name="sin.ghe" unicode="&#xd9d;&#xdd9;" horiz-adv-x="1214" 
d="M778 529q38 -24 50 -76t-18 -67q-152 13 -213 -55q-34 -38 -34.5 -92.5t30.5 -99t81 -55.5q18 -5 55 -2t53 14q11 6 11 26q-28 1 -45.5 8t-24 19t-8 19t-1.5 19q0 21 36 38.5t101 17.5q66 0 102 -17.5t36 -38.5q0 -11 -1.5 -18.5t-8.5 -19.5t-24.5 -19t-45.5 -8
q0 -19 8 -25q15 -11 53.5 -14.5t58.5 1.5q50 11 80.5 55.5t30 99t-34.5 92.5q-60 68 -213 55q-31 15 -20.5 65t41.5 70q47 34 113.5 29t104.5 -51q10 -11 9.5 -27t-15.5 -27q-14 -9 -37 -6.5t-36 20.5h-1q-5 11 -15 20q-20 18 -49 20t-50.5 -14.5t-20.5 -48.5q-2 -8 6 -8
q90 6 140 -17q69 -32 100 -92q30 -59 20.5 -132.5t-53.5 -123.5q-49 -55 -129 -61q-51 -4 -99 27q-27 17 -37 60q-2 4 -5 36.5t0 32.5q29 -3 56 2.5t27 19.5q0 26 -91 26q-90 0 -90 -26q0 -14 26.5 -19.5t55.5 -2.5q2 -4 1 -17t-3 -32t-2 -20q-13 -44 -38 -60
q-48 -31 -99 -27q-78 5 -129 61q-45 49 -54 123t21 133q16 34 43 56q4 10 -6 10h-48q-18 2 -18 20t18 22l240 1q7 1 7 8q1 32 -20.5 48t-50.5 13t-49 -19q-9 -6 -16 -19v-1q-13 -18 -36.5 -20t-36.5 6q-16 10 -16 27t10 27q37 47 103 55t114 -24zM320 268q-12 34 -66 30
q-53 -22 -38 -72q8 -25 40.5 -30t50.5 13q25 23 13 59zM444 182l-3 24q-10 78 -101 98q25 -16 25 -61q0 -51 -44 -75t-91.5 -7t-55.5 66q-9 49 25 82t84 39q61 7 115.5 -21t74.5 -82q30 -80 -9.5 -147.5t-123.5 -89.5q-58 -16 -120.5 -1.5t-108.5 54.5q-81 69 -81 183
q0 69 30.5 125t84.5 90q75 47 176 42q85 -5 135 -55q6 -18 -3.5 -28.5t-27.5 0.5q-64 52 -159 40.5t-146 -74.5q-49 -61 -49 -141q0 -74 56 -121t139 -47q125 0 166 66q3 5 12 41z" />
    <glyph glyph-name="sin.ghee" unicode="&#xd9d;&#xdda;" horiz-adv-x="1230" 
d="M1106 785l3 -23v-47q6 -11 29 -11q28 1 34 42q7 42 -16 57q-13 8 -29 2t-21 -20zM1108 670l-2 -143q16 -9 31 -29q10 -11 9.5 -27t-15.5 -27q-50 -19 -73 14l-1 1q-4 10 -15 19q-20 18 -49 20t-50.5 -14.5t-20.5 -48.5q-1 -7 6 -7q98 2 140 -17q71 -31 100 -92
q30 -61 20.5 -133.5t-53.5 -122.5q-49 -55 -129 -61q-51 -4 -99 27q-24 15 -38 59q0 1 -2 20t-3 32t1 17q29 -3 56 3t27 20q0 25 -91 25q-90 0 -90 -25q0 -14 27 -20t56 -3q2 -4 1 -17t-3.5 -32t-2.5 -20q-14 -44 -37 -59q-51 -31 -100 -27q-80 6 -129 61
q-44 50 -53.5 122.5t20.5 133.5q17 33 43 56q5 9 -6 9h-48q-18 2 -18 20t18 22l240 1q7 3 7 8q1 32 -20.5 48.5t-50.5 13.5t-49 -19q-3 -2 -16 -20q-3 -5 -11 -11q-25 -19 -62 -3q-16 10 -16 27t10 27q36 46 103 54t114 -23q38 -24 50 -76t-18 -68q-77 6 -128.5 -5
t-84.5 -49q-34 -37 -34.5 -91.5t30.5 -99.5t81 -57q20 -5 55.5 -1.5t52.5 13.5q11 5 11 26q-28 1 -45.5 8t-24 19t-8 19t-1.5 19q0 21 35.5 38.5t101.5 17.5t102 -17.5t36 -38.5q0 -11 -1.5 -18.5t-8.5 -19.5t-24.5 -19t-45.5 -8q0 -19 8 -24q15 -12 53 -15.5t59 1.5
q51 11 81 55.5t29 98.5t-34 94q-32 39 -83 50t-130 4q-31 16 -20 65.5t41 69.5q69 45 147 24l1 219q0 24 -31 42l-22 8q-12 4 -14.5 14.5t4.5 18t21 6.5q36 -9 56 -28q25 32 63 28q28 -3 43 -19q18 -20 24 -51t-1 -57q-13 -47 -48 -58q-25 -9 -54 3zM320 268q-12 34 -66 30
q-53 -22 -38 -72q8 -25 40.5 -30t50.5 13q25 23 13 59zM444 182l-3 24q-10 78 -101 98q25 -16 25 -61q0 -51 -44 -75t-91.5 -7t-55.5 66q-9 49 25 82t84 39q61 7 115.5 -21t74.5 -82q30 -80 -9.5 -147.5t-123.5 -89.5q-58 -16 -120.5 -1.5t-108.5 54.5q-81 69 -81 183
q0 69 30.5 125t84.5 90q75 47 176 42q85 -5 135 -55q6 -18 -3.5 -28.5t-27.5 0.5q-64 52 -159 40.5t-146 -74.5q-49 -61 -49 -141q0 -74 56 -121t139 -47q125 0 166 66q3 5 12 41z" />
    <glyph glyph-name="sin.ghai" unicode="&#xd9d;&#xddb;" horiz-adv-x="1707" 
d="M1263 529q38 -24 50 -76t-18 -67q-152 13 -213 -55q-34 -38 -34.5 -92.5t30.5 -99t81 -55.5q18 -5 55 -2t53 14q11 6 11 26q-28 1 -45.5 8t-24 19t-8 19t-1.5 19q0 21 36 38.5t101 17.5q66 0 102 -17.5t36 -38.5q0 -11 -1.5 -18.5t-8.5 -19.5t-24.5 -19t-45.5 -8
q0 -19 8 -25q15 -11 53.5 -14.5t58.5 1.5q50 11 80.5 55.5t30 99t-34.5 92.5q-60 68 -213 55q-31 15 -20.5 65t41.5 70q47 34 113.5 29t104.5 -51q10 -11 9.5 -27t-15.5 -27q-14 -9 -37 -6.5t-36 20.5h-1q-5 11 -15 20q-20 18 -49 20t-50.5 -14.5t-20.5 -48.5q-2 -8 6 -8
q90 6 140 -17q69 -32 100 -92q30 -59 20.5 -132.5t-53.5 -123.5q-49 -55 -129 -61q-51 -4 -99 27q-27 17 -37 60q-2 4 -5 36.5t0 32.5q29 -3 56 2.5t27 19.5q0 26 -91 26q-90 0 -90 -26q0 -14 26.5 -19.5t55.5 -2.5q2 -4 1 -17t-3 -32t-2 -20q-13 -44 -38 -60
q-48 -31 -99 -27q-78 5 -129 61q-45 49 -54 123t21 133q16 34 43 56q4 10 -6 10h-48q-18 2 -18 20t18 22l240 1q7 1 7 8q1 32 -20.5 48t-50.5 13t-49 -19q-9 -6 -16 -19v-1q-13 -18 -36.5 -20t-36.5 6q-16 10 -16 27t10 27q37 47 103 55t114 -24zM320 268q-12 34 -66 30
q-53 -22 -38 -72q8 -25 40.5 -30t50.5 13q25 23 13 59zM444 182l-3 24q-10 78 -101 98q25 -16 25 -61q0 -51 -44 -75t-91.5 -7t-55.5 66q-9 49 25 82t84 39q61 7 115.5 -21t74.5 -82q30 -80 -9.5 -147.5t-123.5 -89.5q-58 -16 -120.5 -1.5t-108.5 54.5q-81 69 -81 183
q0 69 30.5 125t84.5 90q75 47 176 42q85 -5 135 -55q6 -18 -3.5 -28.5t-27.5 0.5q-64 52 -159 40.5t-146 -74.5q-49 -61 -49 -141q0 -74 56 -121t139 -47q125 0 166 66q3 5 12 41zM800 268q-12 34 -66 30q-53 -22 -38 -72q8 -25 40.5 -30t50.5 13q25 23 13 59zM924 182
l-3 24q-10 78 -101 98q25 -16 25 -61q0 -51 -44 -75t-91.5 -7t-55.5 66q-9 49 25 82t84 39q61 7 115.5 -21t74.5 -82q30 -80 -9.5 -147.5t-123.5 -89.5q-58 -16 -120.5 -1.5t-108.5 54.5q-81 69 -81 183q0 69 30.5 125t84.5 90q75 47 176 42q85 -5 135 -55q6 -18 -3.5 -28.5
t-27.5 0.5q-64 52 -159 40.5t-146 -74.5q-49 -61 -49 -141q0 -74 56 -121t139 -47q125 0 166 66q3 5 12 41z" />
    <glyph glyph-name="sin.gho" unicode="&#xd9d;&#xddc;" horiz-adv-x="1460" 
d="M1175 76q-3 9 3 17t17 7t20 -14q30 -43 64 -40t49 66t16 128q6 196 -63 202q-40 4 -66 -39q-11 -18 -25.5 -14t-14.5 24q12 38 52.5 57.5t79.5 9.5q40 -10 74 -61q23 -36 31 -98q16 -132 -17 -221q-22 -57 -65 -82q-40 -24 -91 -5.5t-64 63.5zM780 529q38 -24 50 -76
t-18 -67q-152 13 -213 -55q-34 -38 -34.5 -92.5t30.5 -99t81 -55.5q18 -5 55 -2t53 14q11 6 11 26q-28 1 -45.5 8t-24 19t-8 19t-1.5 19q0 21 36 38.5t101 17.5q66 0 102 -17.5t36 -38.5q0 -11 -1.5 -18.5t-8.5 -19.5t-24.5 -19t-45.5 -8q0 -19 8 -25q15 -11 53.5 -14.5
t58.5 1.5q50 11 80.5 55.5t30 99t-34.5 92.5q-60 68 -213 55q-31 15 -20.5 65t41.5 70q47 34 113.5 29t104.5 -51q10 -11 9.5 -27t-15.5 -27q-14 -9 -37 -6.5t-36 20.5h-1q-5 11 -15 20q-20 18 -49 20t-50.5 -14.5t-20.5 -48.5q-2 -8 6 -8q90 6 140 -17q69 -32 100 -92
q30 -59 20.5 -132.5t-53.5 -123.5q-49 -55 -129 -61q-51 -4 -99 27q-27 17 -37 60q-2 4 -5 36.5t0 32.5q29 -3 56 2.5t27 19.5q0 26 -91 26q-90 0 -90 -26q0 -14 26.5 -19.5t55.5 -2.5q2 -4 1 -17t-3 -32t-2 -20q-13 -44 -38 -60q-48 -31 -99 -27q-78 5 -129 61
q-45 49 -54 123t21 133q16 34 43 56q4 10 -6 10h-48q-18 2 -18 20t18 22l240 1q7 1 7 8q1 32 -20.5 48t-50.5 13t-49 -19q-9 -6 -16 -19v-1q-13 -18 -36.5 -20t-36.5 6q-16 10 -16 27t10 27q37 47 103 55t114 -24zM320 268q-12 34 -66 30q-53 -22 -38 -72q8 -25 40.5 -30
t50.5 13q25 23 13 59zM444 182l-3 24q-10 78 -101 98q25 -16 25 -61q0 -51 -44 -75t-91.5 -7t-55.5 66q-9 49 25 82t84 39q61 7 115.5 -21t74.5 -82q30 -80 -9.5 -147.5t-123.5 -89.5q-58 -16 -120.5 -1.5t-108.5 54.5q-81 69 -81 183q0 69 30.5 125t84.5 90q75 47 176 42
q85 -5 135 -55q6 -18 -3.5 -28.5t-27.5 0.5q-64 52 -159 40.5t-146 -74.5q-49 -61 -49 -141q0 -74 56 -121t139 -47q125 0 166 66q3 5 12 41z" />
    <glyph glyph-name="sin.ghoo" unicode="&#xd9d;&#xddd;" horiz-adv-x="1465" 
d="M1369 780q3 -12 3 -24v-47q6 -10 29 -10q28 1 34 42q7 42 -16 57q-13 8 -29 2t-21 -20zM1372 665v-242q2 -2 3.5 -5.5t2.5 -5.5q24 -41 31 -98q17 -141 -17 -221q-25 -57 -65 -82q-40 -24 -91 -5.5t-64 63.5q-2 9 4 16.5t16.5 7t19.5 -12.5q31 -42 64 -40q35 3 49.5 66.5
t14.5 126.5q0 196 -63 202q-37 3 -65 -39q-11 -17 -25.5 -13.5t-14.5 23.5q12 38 52 58t79 10q13 -4 26 -11l2 294q-4 28 -32 42q-6 5 -22 9q-18 6 -13.5 23.5t25.5 15.5q35 -9 55 -29q29 34 64 29q31 -5 43 -19q20 -20 25.5 -51.5t-3.5 -57.5q-13 -46 -48 -57q-26 -9 -53 3
zM779 529q38 -24 50 -76t-18 -67q-152 13 -213 -55q-34 -38 -34.5 -92.5t30.5 -99t81 -55.5q18 -5 55 -2t53 14q11 6 11 26q-28 1 -45.5 8t-24 19t-8 19t-1.5 19q0 21 36 38.5t101 17.5q66 0 102 -17.5t36 -38.5q0 -11 -1.5 -18.5t-8.5 -19.5t-24.5 -19t-45.5 -8
q0 -19 8 -25q15 -11 53.5 -14.5t58.5 1.5q50 11 80.5 55.5t30 99t-34.5 92.5q-60 68 -213 55q-31 15 -20.5 65t41.5 70q47 34 113.5 29t104.5 -51q10 -11 9.5 -27t-15.5 -27q-14 -9 -37 -6.5t-36 20.5h-1q-5 11 -15 20q-20 18 -49 20t-50.5 -14.5t-20.5 -48.5q-2 -8 6 -8
q90 6 140 -17q69 -32 100 -92q30 -59 20.5 -132.5t-53.5 -123.5q-49 -55 -129 -61q-51 -4 -99 27q-27 17 -37 60q-2 4 -5 36.5t0 32.5q29 -3 56 2.5t27 19.5q0 26 -91 26q-90 0 -90 -26q0 -14 26.5 -19.5t55.5 -2.5q2 -4 1 -17t-3 -32t-2 -20q-13 -44 -38 -60
q-48 -31 -99 -27q-78 5 -129 61q-45 49 -54 123t21 133q16 34 43 56q4 10 -6 10h-48q-18 2 -18 20t18 22l240 1q7 1 7 8q1 32 -20.5 48t-50.5 13t-49 -19q-9 -6 -16 -19v-1q-13 -18 -36.5 -20t-36.5 6q-16 10 -16 27t10 27q37 47 103 55t114 -24zM320 268q-12 34 -66 30
q-53 -22 -38 -72q8 -25 40.5 -30t50.5 13q25 23 13 59zM444 182l-3 24q-10 78 -101 98q25 -16 25 -61q0 -51 -44 -75t-91.5 -7t-55.5 66q-9 49 25 82t84 39q61 7 115.5 -21t74.5 -82q30 -80 -9.5 -147.5t-123.5 -89.5q-58 -16 -120.5 -1.5t-108.5 54.5q-81 69 -81 183
q0 69 30.5 125t84.5 90q75 47 176 42q85 -5 135 -55q6 -18 -3.5 -28.5t-27.5 0.5q-64 52 -159 40.5t-146 -74.5q-49 -61 -49 -141q0 -74 56 -121t139 -47q125 0 166 66q3 5 12 41z" />
    <glyph glyph-name="sin.ghau" unicode="&#xd9d;&#xdde;" horiz-adv-x="1555" 
d="M1276 484q20 -2 23 -17t-16 -23q-30 -8 -42.5 -44t0 -71t44.5 -40q16 -5 35.5 4t23.5 27q3 19 -4.5 35t-26.5 16q-18 5 -18 24q0 55 55 80.5t101 -4.5q25 -16 40 -44t20.5 -66t7 -62t0.5 -61q-4 -157 -112 -225q-44 -29 -110.5 -6.5t-78.5 75.5q0 20 16 24t24 -14
q8 -29 44 -42.5t65 -3.5q53 18 72 93.5t14 165.5q-9 142 -81 129q-24 -5 -32 -28q29 -13 41.5 -44t-0.5 -62q-24 -53 -93 -53q-38 0 -62.5 28t-29.5 67q-6 48 14.5 89.5t65.5 52.5zM775 529q38 -24 50 -76t-18 -67q-152 13 -213 -55q-34 -38 -34.5 -92.5t30.5 -99t81 -55.5
q18 -5 55 -2t53 14q11 6 11 26q-28 1 -45.5 8t-24 19t-8 19t-1.5 19q0 21 36 38.5t101 17.5q66 0 102 -17.5t36 -38.5q0 -11 -1.5 -18.5t-8.5 -19.5t-24.5 -19t-45.5 -8q0 -19 8 -25q15 -11 53.5 -14.5t58.5 1.5q50 11 80.5 55.5t30 99t-34.5 92.5q-60 68 -213 55
q-31 15 -20.5 65t41.5 70q47 34 113.5 29t104.5 -51q10 -11 9.5 -27t-15.5 -27q-14 -9 -37 -6.5t-36 20.5h-1q-5 11 -15 20q-20 18 -49 20t-50.5 -14.5t-20.5 -48.5q-2 -8 6 -8q90 6 140 -17q69 -32 100 -92q30 -59 20.5 -132.5t-53.5 -123.5q-49 -55 -129 -61
q-51 -4 -99 27q-27 17 -37 60q-2 4 -5 36.5t0 32.5q29 -3 56 2.5t27 19.5q0 26 -91 26q-90 0 -90 -26q0 -14 26.5 -19.5t55.5 -2.5q2 -4 1 -17t-3 -32t-2 -20q-13 -44 -38 -60q-48 -31 -99 -27q-78 5 -129 61q-45 49 -54 123t21 133q16 34 43 56q4 10 -6 10h-48
q-18 2 -18 20t18 22l240 1q7 1 7 8q1 32 -20.5 48t-50.5 13t-49 -19q-9 -6 -16 -19v-1q-13 -18 -36.5 -20t-36.5 6q-16 10 -16 27t10 27q37 47 103 55t114 -24zM320 268q-12 34 -66 30q-53 -22 -38 -72q8 -25 40.5 -30t50.5 13q25 23 13 59zM444 182l-3 24q-10 78 -101 98
q25 -16 25 -61q0 -51 -44 -75t-91.5 -7t-55.5 66q-9 49 25 82t84 39q61 7 115.5 -21t74.5 -82q30 -80 -9.5 -147.5t-123.5 -89.5q-58 -16 -120.5 -1.5t-108.5 54.5q-81 69 -81 183q0 69 30.5 125t84.5 90q75 47 176 42q85 -5 135 -55q6 -18 -3.5 -28.5t-27.5 0.5
q-64 52 -159 40.5t-146 -74.5q-49 -61 -49 -141q0 -74 56 -121t139 -47q125 0 166 66q3 5 12 41z" />
    <glyph glyph-name="sin.ghra" unicode="&#xd9d;&#xdca;&#x200d;&#xdbb;" horiz-adv-x="733" 
d="M633 46q-46 -43 -113 -46q-56 -2 -100 27q-24 15 -37 60q-2 4 -5 36.5t0 32.5q29 -3 56 2.5t27 19.5q0 26 -91 26q-90 0 -90 -26q0 -14 27 -19.5t56 -2.5q2 -4 1 -17t-3.5 -32t-2.5 -20q-13 -45 -37 -60q-48 -31 -100 -27q-80 6 -129 61q-44 50 -53.5 123.5t20.5 132.5
q16 34 43 56q4 10 -5 10h-49q-18 2 -18 20t18 22l241 1q6 1 6 8q1 32 -20.5 48t-50.5 13t-49 -19q-11 -9 -15 -19l-1 -1q-24 -34 -73 -14q-16 10 -16 27t10 27q37 47 103 55t114 -24q38 -24 50 -76t-18 -67q-153 13 -213 -55q-34 -38 -34.5 -92.5t30.5 -99t81 -55.5
q19 -5 55.5 -2.5t53.5 14.5q11 6 11 26q-28 1 -46 8t-24.5 19t-8 19t-1.5 19q0 21 36 38.5t102 17.5q65 0 101 -17.5t36 -38.5q0 -11 -1.5 -18.5t-8.5 -19.5t-24.5 -19t-45.5 -8q0 -19 8 -25q15 -11 53.5 -14.5t58.5 1.5q50 11 81 55.5t30 99t-34 92.5q-60 68 -213 55
q-31 15 -20.5 65t41.5 70q46 33 113 28.5t104 -50.5q10 -11 9.5 -27t-15.5 -27q-13 -9 -36.5 -6.5t-36.5 20.5h-1q-4 12 -15 20q-20 16 -49 19t-50.5 -13.5t-20.5 -48.5q0 -8 6 -8q91 6 140 -17q70 -32 101 -92q38 -74 3 -195q2 -146 -70 -236q-63 -79 -210 -93
q-52 -4 -104 6q-137 27 -212 151q-7 19 6.5 27t28.5 -5q38 -66 82 -88q108 -57 264 -8q61 20 107 69t56 101z" />
    <glyph glyph-name="sin.ghri" unicode="&#xd9d;&#xdca;&#x200d;&#xdbb;&#xdd2;" horiz-adv-x="743" 
d="M218 554q43 -3 77 -25q38 -24 50 -76t-18 -67q-153 13 -213 -55q-34 -38 -34.5 -92.5t30.5 -99t81 -55.5q19 -5 55.5 -2.5t53.5 14.5q10 6 10 26q-28 1 -45.5 8t-24 19t-8 19t-1.5 19q0 21 36 38.5t102 17.5q65 0 101 -17.5t36 -38.5q0 -11 -1.5 -18.5t-8.5 -19.5
t-24.5 -19t-45.5 -8q0 -19 9 -25q15 -11 52.5 -14.5t58.5 1.5q50 11 81 55.5t30 99t-34 92.5q-60 68 -213 55q-32 16 -21 64.5t42 70.5q38 26 87 29q3 4 9 9q44 29 40 63q-3 35 -63 50t-131 15q-196 0 -202 -63q-3 -39 39 -65l4 -2t4 -3zM595 674l10 -27q13 -56 -29 -103
q44 -10 72 -45q10 -11 9.5 -27t-15.5 -27q-13 -9 -36.5 -6.5t-36.5 20.5h-1q-4 12 -15 20q-20 16 -49 19t-50.5 -13.5t-20.5 -48.5q-2 -8 6 -8q91 6 140 -17q70 -32 101 -92q43 -89 6 -188q-9 -166 -70 -243q-63 -79 -210 -93q-52 -4 -104 6q-137 27 -212 151q-7 19 6.5 27
t28.5 -5q38 -66 82 -88q112 -59 264 -8q63 21 105 63.5t54 94.5q0 1 3 14q-47 -44 -115 -48q-52 -4 -100 27q-24 15 -37 60q-2 4 -5 36.5t0 32.5q29 -3 56 2.5t27 19.5q0 26 -91 26q-90 0 -90 -26q0 -14 27 -19.5t56 -2.5q2 -4 1 -17t-3.5 -32t-2.5 -20q-13 -45 -37 -60
q-47 -30 -100 -27q-77 3 -129 61q-44 50 -53.5 123.5t20.5 132.5q16 34 43 56q4 10 -5 10h-49q-18 2 -18 20t18 22l241 1q6 2 6 8q1 32 -20.5 48t-50.5 13t-49 -19q-11 -8 -15 -19l-1 -1q-13 -18 -36.5 -20t-36.5 6q-16 10 -16 27t10 27q27 37 79 50q-41 49 -24 102
q13 43 61 74q32 21 98 31q117 18 221 -17q54 -18 82 -64z" />
    <glyph glyph-name="sin.ghrii" unicode="&#xd9d;&#xdca;&#x200d;&#xdbb;&#xdd3;" horiz-adv-x="748" 
d="M565 649l-29 19q-35 17 -48 11q-30 -14 -34 -45t15.5 -54t47.5 -18q35 0 51 32.5t-3 54.5zM214 555l28 -3q26 -3 60 -22q38 -24 50 -76t-18 -68q-153 13 -213 -55q-34 -38 -34.5 -92t30.5 -98.5t81 -56.5q20 -5 55.5 -1.5t53.5 13.5q10 6 10 26q-28 1 -45.5 8t-24 19
t-8 19t-1.5 19q0 21 36 38.5t102 17.5t101.5 -17.5t35.5 -38.5q0 -11 -1.5 -18.5t-8.5 -19.5t-24.5 -19t-45.5 -8q0 -20 9 -24q15 -11 52.5 -15.5t58.5 1.5q51 12 81.5 56.5t29.5 98.5t-34 92q-60 68 -213 55q-31 16 -20 65.5t41 69.5q4 4 22 13q-58 28 -51 102q1 19 24 52
h-26q-3 0 -26.5 1t-39.5 0q-58 -3 -105.5 -19t-52.5 -47q-8 -46 31 -68zM615 601l-7 -25q-9 -19 -25 -31q45 -13 72 -46q10 -11 9.5 -27t-15.5 -27q-13 -8 -36.5 -6t-36.5 20l-1 1q-4 11 -15 19q-20 16 -49 19t-50.5 -13.5t-20.5 -48.5q-1 -7 6 -7q97 2 140 -17
q69 -32 101 -92q44 -87 6 -188q-10 -171 -70 -244q-36 -45 -87.5 -65t-122.5 -27q-53 -5 -104 5q-137 27 -212 151q-6 20 6.5 27.5t28.5 -4.5q38 -65 82 -89q111 -59 264 -7q63 21 106 63.5t53 93.5q2 3 3 8v6q-47 -42 -115 -47q-52 -4 -100 27q-23 15 -37 59q-2 4 -5 36.5
t0 32.5q29 -3 56 3t27 20q0 25 -91 25q-90 0 -90 -25q0 -14 27 -20t56 -3q2 -4 1 -17t-3.5 -32t-2.5 -20q-14 -44 -37 -59q-51 -31 -100 -27q-80 6 -129 61q-44 50 -53.5 122.5t20.5 133.5q17 33 43 56q5 9 -5 9h-49q-18 2 -18 20t18 22l241 1q6 4 6 8q1 32 -20.5 48.5
t-50.5 13.5t-49 -19q-11 -8 -15 -20h-1q-13 -18 -36.5 -20.5t-36.5 6.5q-16 10 -16 27t10 27q29 35 77 49q-27 37 -21 82.5t37 75.5q30 29 89 45q54 16 126.5 13t123.5 -23q69 -25 90 -73q16 -40 8 -67z" />
    <glyph glyph-name="sin.ghre" unicode="&#xd9d;&#xdca;&#x200d;&#xdbb;&#xdd9;" horiz-adv-x="1225" 
d="M1118 46q-46 -43 -113 -46q-56 -2 -100 27q-24 15 -37 60q-2 4 -5 36.5t0 32.5q29 -3 56 2.5t27 19.5q0 26 -91 26q-90 0 -90 -26q0 -14 27 -19.5t56 -2.5q2 -4 1 -17t-3.5 -32t-2.5 -20q-13 -45 -37 -60q-48 -31 -100 -27q-80 6 -129 61q-44 50 -53.5 123.5t20.5 132.5
q16 34 43 56q4 10 -5 10h-49q-18 2 -18 20t18 22l241 1q6 1 6 8q1 32 -20.5 48t-50.5 13t-49 -19q-11 -9 -15 -19l-1 -1q-24 -34 -73 -14q-16 10 -16 27t10 27q37 47 103 55t114 -24q38 -24 50 -76t-18 -67q-153 13 -213 -55q-34 -38 -34.5 -92.5t30.5 -99t81 -55.5
q19 -5 55.5 -2.5t53.5 14.5q11 6 11 26q-28 1 -46 8t-24.5 19t-8 19t-1.5 19q0 21 36 38.5t102 17.5q65 0 101 -17.5t36 -38.5q0 -11 -1.5 -18.5t-8.5 -19.5t-24.5 -19t-45.5 -8q0 -19 8 -25q15 -11 53.5 -14.5t58.5 1.5q50 11 81 55.5t30 99t-34 92.5q-60 68 -213 55
q-31 15 -20.5 65t41.5 70q46 33 113 28.5t104 -50.5q10 -11 9.5 -27t-15.5 -27q-13 -9 -36.5 -6.5t-36.5 20.5h-1q-4 12 -15 20q-20 16 -49 19t-50.5 -13.5t-20.5 -48.5q0 -8 6 -8q91 6 140 -17q70 -32 101 -92q38 -74 3 -195q2 -146 -70 -236q-63 -79 -210 -93
q-52 -4 -104 6q-137 27 -212 151q-7 19 6.5 27t28.5 -5q38 -66 82 -88q108 -57 264 -8q61 20 107 69t56 101zM320 268q-12 34 -66 30q-53 -22 -38 -72q8 -25 40.5 -30t50.5 13q25 23 13 59zM444 182l-3 24q-10 78 -101 98q25 -16 25 -61q0 -51 -44 -75t-91.5 -7t-55.5 66
q-9 49 25 82t84 39q61 7 115.5 -21t74.5 -82q30 -80 -9.5 -147.5t-123.5 -89.5q-58 -16 -120.5 -1.5t-108.5 54.5q-81 69 -81 183q0 69 30.5 125t84.5 90q75 47 176 42q85 -5 135 -55q6 -18 -3.5 -28.5t-27.5 0.5q-64 52 -159 40.5t-146 -74.5q-49 -61 -49 -141
q0 -74 56 -121t139 -47q125 0 166 66q3 5 12 41z" />
    <glyph glyph-name="sin.ghree" unicode="&#xd9d;&#xdca;&#x200d;&#xdbb;&#xdda;" horiz-adv-x="1219" 
d="M1100 783l3 -23v-47q5 -11 28 -11q29 1 35 42q7 42 -17 57q-13 8 -28.5 2t-20.5 -20zM1102 668l-2 -143q19 -14 30 -29q10 -11 9.5 -27t-15.5 -27q-13 -8 -36.5 -6t-36.5 20v1q-10 14 -15 19q-20 18 -49 20t-51 -14.5t-21 -48.5q0 -7 7 -7q98 2 140 -17q67 -30 100 -92
q48 -93 4 -197q-16 -167 -71 -235q-37 -46 -87.5 -65.5t-121.5 -26.5q-53 -5 -105 5q-139 28 -211 151q-6 20 6.5 27.5t28.5 -4.5q36 -64 82 -89q111 -59 264 -7q63 21 106 63.5t53 93.5q0 3 2 11q-46 -40 -112 -44q-49 -4 -100 27q-23 15 -37 59q0 1 -2.5 20t-3.5 32t1 17
q29 -3 56 3t27 20q0 25 -90 25q-91 0 -91 -25q0 -14 27 -20t56 -3q3 0 0 -32.5t-5 -36.5q-14 -44 -37 -59q-48 -31 -99 -27q-80 6 -129 61q-46 51 -55 122t22 134q13 27 42 56q4 9 -5 9h-48q-19 2 -18.5 20t18.5 22l240 1q6 3 6 8q1 32 -20.5 48.5t-50.5 14.5t-49 -20
q-5 -4 -14 -17t-16 -17q-25 -15 -59 0q-16 13 -15.5 27t10.5 27q37 46 102.5 54t114.5 -23q38 -24 50 -76t-18 -68q-153 13 -213 -55q-34 -37 -34.5 -91.5t30 -99t80.5 -56.5q21 -5 56 -1t53 13q11 6 11 26q-28 1 -46 8t-24.5 19t-8 19t-1.5 19q0 21 36 38.5t102 17.5
t101.5 -17.5t35.5 -38.5q0 -12 -1.5 -19t-8 -19t-24 -19t-45.5 -8q0 -19 8 -24q15 -12 52.5 -15.5t58.5 1.5q50 11 81 55.5t30 99t-34 92.5q-60 68 -213 55q-31 16 -20 65.5t41 69.5q66 45 147 24l1 219q0 24 -31 42l-22 8q-12 4 -14.5 14.5t4.5 18t21 6.5q36 -9 56 -28
q26 33 63 28q30 -5 43 -19q18 -20 24 -51t-1 -57q-13 -47 -48 -58q-25 -9 -54 3zM320 268q-12 34 -66 30q-53 -22 -38 -72q8 -25 40.5 -30t50.5 13q25 23 13 59zM444 182l-3 24q-10 78 -101 98q25 -16 25 -61q0 -51 -44 -75t-91.5 -7t-55.5 66q-9 49 25 82t84 39
q61 7 115.5 -21t74.5 -82q30 -80 -9.5 -147.5t-123.5 -89.5q-58 -16 -120.5 -1.5t-108.5 54.5q-81 69 -81 183q0 69 30.5 125t84.5 90q75 47 176 42q85 -5 135 -55q6 -18 -3.5 -28.5t-27.5 0.5q-64 52 -159 40.5t-146 -74.5q-49 -61 -49 -141q0 -74 56 -121t139 -47
q125 0 166 66q3 5 12 41z" />
    <glyph glyph-name="sin.ghrai" unicode="&#xd9d;&#xdca;&#x200d;&#xdbb;&#xddb;" horiz-adv-x="1699" 
d="M1595 46q-46 -43 -113 -46q-56 -2 -100 27q-24 15 -37 60q-2 4 -5 36.5t0 32.5q29 -3 56 2.5t27 19.5q0 26 -91 26q-90 0 -90 -26q0 -14 27 -19.5t56 -2.5q2 -4 1 -17t-3.5 -32t-2.5 -20q-13 -45 -37 -60q-48 -31 -100 -27q-80 6 -129 61q-44 50 -53.5 123.5t20.5 132.5
q16 34 43 56q4 10 -5 10h-49q-18 2 -18 20t18 22l241 1q6 1 6 8q1 32 -20.5 48t-50.5 13t-49 -19q-11 -9 -15 -19l-1 -1q-24 -34 -73 -14q-16 10 -16 27t10 27q37 47 103 55t114 -24q38 -24 50 -76t-18 -67q-153 13 -213 -55q-34 -38 -34.5 -92.5t30.5 -99t81 -55.5
q19 -5 55.5 -2.5t53.5 14.5q11 6 11 26q-28 1 -46 8t-24.5 19t-8 19t-1.5 19q0 21 36 38.5t102 17.5q65 0 101 -17.5t36 -38.5q0 -11 -1.5 -18.5t-8.5 -19.5t-24.5 -19t-45.5 -8q0 -19 8 -25q15 -11 53.5 -14.5t58.5 1.5q50 11 81 55.5t30 99t-34 92.5q-60 68 -213 55
q-31 15 -20.5 65t41.5 70q46 33 113 28.5t104 -50.5q10 -11 9.5 -27t-15.5 -27q-13 -9 -36.5 -6.5t-36.5 20.5h-1q-4 12 -15 20q-20 16 -49 19t-50.5 -13.5t-20.5 -48.5q0 -8 6 -8q91 6 140 -17q70 -32 101 -92q38 -74 3 -195q2 -146 -70 -236q-63 -79 -210 -93
q-52 -4 -104 6q-137 27 -212 151q-7 19 6.5 27t28.5 -5q38 -66 82 -88q108 -57 264 -8q61 20 107 69t56 101zM809 268q-12 34 -66 30q-53 -22 -38 -72q8 -25 40.5 -30t50.5 13q25 23 13 59zM933 182l-3 24q-10 78 -101 98q25 -16 25 -61q0 -51 -44 -75t-91.5 -7t-55.5 66
q-9 49 25 82t84 39q61 7 115.5 -21t74.5 -82q30 -80 -9.5 -147.5t-123.5 -89.5q-58 -16 -120.5 -1.5t-108.5 54.5q-81 69 -81 183q0 69 30.5 125t84.5 90q75 47 176 42q85 -5 135 -55q6 -18 -3.5 -28.5t-27.5 0.5q-64 52 -159 40.5t-146 -74.5q-49 -61 -49 -141
q0 -74 56 -121t139 -47q125 0 166 66q3 5 12 41zM320 268q-12 34 -66 30q-53 -22 -38 -72q8 -25 40.5 -30t50.5 13q25 23 13 59zM444 182l-3 24q-10 78 -101 98q25 -16 25 -61q0 -51 -44 -75t-91.5 -7t-55.5 66q-9 49 25 82t84 39q61 7 115.5 -21t74.5 -82
q30 -80 -9.5 -147.5t-123.5 -89.5q-58 -16 -120.5 -1.5t-108.5 54.5q-81 69 -81 183q0 69 30.5 125t84.5 90q75 47 176 42q85 -5 135 -55q6 -18 -3.5 -28.5t-27.5 0.5q-64 52 -159 40.5t-146 -74.5q-49 -61 -49 -141q0 -74 56 -121t139 -47q125 0 166 66q3 5 12 41z" />
    <glyph glyph-name="sin.ghro" unicode="&#xd9d;&#xdca;&#x200d;&#xdbb;&#xddc;" horiz-adv-x="1465" 
d="M1188 76q-3 9 3 17t17 7t20 -14q30 -43 64 -40t49 66t16 128q6 196 -63 202q-40 4 -66 -39q-11 -18 -25.5 -14t-14.5 24q12 38 52.5 57.5t79.5 9.5q40 -10 74 -61q23 -36 31 -98q16 -132 -17 -221q-22 -57 -65 -82q-40 -24 -91 -5.5t-64 63.5zM1112 46q-46 -43 -113 -46
q-56 -2 -100 27q-24 15 -37 60q-2 4 -5 36.5t0 32.5q29 -3 56 2.5t27 19.5q0 26 -91 26q-90 0 -90 -26q0 -14 27 -19.5t56 -2.5q2 -4 1 -17t-3.5 -32t-2.5 -20q-13 -45 -37 -60q-48 -31 -100 -27q-80 6 -129 61q-44 50 -53.5 123.5t20.5 132.5q16 34 43 56q4 10 -5 10h-49
q-18 2 -18 20t18 22l241 1q6 1 6 8q1 32 -20.5 48t-50.5 13t-49 -19q-11 -9 -15 -19l-1 -1q-24 -34 -73 -14q-16 10 -16 27t10 27q37 47 103 55t114 -24q38 -24 50 -76t-18 -67q-153 13 -213 -55q-34 -38 -34.5 -92.5t30.5 -99t81 -55.5q19 -5 55.5 -2.5t53.5 14.5
q11 6 11 26q-28 1 -46 8t-24.5 19t-8 19t-1.5 19q0 21 36 38.5t102 17.5q65 0 101 -17.5t36 -38.5q0 -11 -1.5 -18.5t-8.5 -19.5t-24.5 -19t-45.5 -8q0 -19 8 -25q15 -11 53.5 -14.5t58.5 1.5q50 11 81 55.5t30 99t-34 92.5q-60 68 -213 55q-31 15 -20.5 65t41.5 70
q46 33 113 28.5t104 -50.5q10 -11 9.5 -27t-15.5 -27q-13 -9 -36.5 -6.5t-36.5 20.5h-1q-4 12 -15 20q-20 16 -49 19t-50.5 -13.5t-20.5 -48.5q0 -8 6 -8q91 6 140 -17q70 -32 101 -92q38 -74 3 -195q2 -146 -70 -236q-63 -79 -210 -93q-52 -4 -104 6q-137 27 -212 151
q-7 19 6.5 27t28.5 -5q38 -66 82 -88q108 -57 264 -8q61 20 107 69t56 101zM320 268q-12 34 -66 30q-53 -22 -38 -72q8 -25 40.5 -30t50.5 13q25 23 13 59zM444 182l-3 24q-10 78 -101 98q25 -16 25 -61q0 -51 -44 -75t-91.5 -7t-55.5 66q-9 49 25 82t84 39q61 7 115.5 -21
t74.5 -82q30 -80 -9.5 -147.5t-123.5 -89.5q-58 -16 -120.5 -1.5t-108.5 54.5q-81 69 -81 183q0 69 30.5 125t84.5 90q75 47 176 42q85 -5 135 -55q6 -18 -3.5 -28.5t-27.5 0.5q-64 52 -159 40.5t-146 -74.5q-49 -61 -49 -141q0 -74 56 -121t139 -47q125 0 166 66q3 5 12 41
z" />
    <glyph glyph-name="sin.ghroo" unicode="&#xd9d;&#xdca;&#x200d;&#xdbb;&#xddd;" horiz-adv-x="1479" 
d="M1386 780q3 -12 3 -24v-47q6 -10 29 -10q28 1 34 42q7 42 -16 57q-13 8 -29 2t-21 -20zM1389 665v-242q1 -2 2.5 -5.5t3.5 -5.5q24 -41 31 -98q17 -141 -17 -221q-25 -57 -65 -82q-40 -24 -91 -5.5t-64 63.5q-2 9 4 16.5t16.5 7t19.5 -12.5q31 -42 64 -40q35 3 49.5 66.5
t14.5 126.5q0 196 -63 202q-37 3 -65 -39q-11 -17 -25.5 -13.5t-14.5 23.5q12 38 52 58t79 10q13 -4 26 -11l2 294q-4 28 -32 42q-6 5 -22 9q-18 6 -13.5 23.5t25.5 15.5q35 -9 55 -29q29 34 64 29q31 -5 43 -19q20 -20 25.5 -51.5t-3.5 -57.5q-13 -46 -48 -57q-26 -9 -53 3
zM1113 46q-46 -43 -113 -46q-56 -2 -100 27q-24 15 -37 60q-2 4 -5 36.5t0 32.5q29 -3 56 2.5t27 19.5q0 26 -91 26q-90 0 -90 -26q0 -14 27 -19.5t56 -2.5q2 -4 1 -17t-3.5 -32t-2.5 -20q-13 -45 -37 -60q-48 -31 -100 -27q-80 6 -129 61q-44 50 -53.5 123.5t20.5 132.5
q16 34 43 56q4 10 -5 10h-49q-18 2 -18 20t18 22l241 1q6 1 6 8q1 32 -20.5 48t-50.5 13t-49 -19q-11 -9 -15 -19l-1 -1q-24 -34 -73 -14q-16 10 -16 27t10 27q37 47 103 55t114 -24q38 -24 50 -76t-18 -67q-153 13 -213 -55q-34 -38 -34.5 -92.5t30.5 -99t81 -55.5
q19 -5 55.5 -2.5t53.5 14.5q11 6 11 26q-28 1 -46 8t-24.5 19t-8 19t-1.5 19q0 21 36 38.5t102 17.5q65 0 101 -17.5t36 -38.5q0 -11 -1.5 -18.5t-8.5 -19.5t-24.5 -19t-45.5 -8q0 -19 8 -25q15 -11 53.5 -14.5t58.5 1.5q50 11 81 55.5t30 99t-34 92.5q-60 68 -213 55
q-31 15 -20.5 65t41.5 70q46 33 113 28.5t104 -50.5q10 -11 9.5 -27t-15.5 -27q-13 -9 -36.5 -6.5t-36.5 20.5h-1q-4 12 -15 20q-20 16 -49 19t-50.5 -13.5t-20.5 -48.5q0 -8 6 -8q91 6 140 -17q70 -32 101 -92q38 -74 3 -195q2 -146 -70 -236q-63 -79 -210 -93
q-52 -4 -104 6q-137 27 -212 151q-7 19 6.5 27t28.5 -5q38 -66 82 -88q108 -57 264 -8q61 20 107 69t56 101zM320 268q-12 34 -66 30q-53 -22 -38 -72q8 -25 40.5 -30t50.5 13q25 23 13 59zM444 182l-3 24q-10 78 -101 98q25 -16 25 -61q0 -51 -44 -75t-91.5 -7t-55.5 66
q-9 49 25 82t84 39q61 7 115.5 -21t74.5 -82q30 -80 -9.5 -147.5t-123.5 -89.5q-58 -16 -120.5 -1.5t-108.5 54.5q-81 69 -81 183q0 69 30.5 125t84.5 90q75 47 176 42q85 -5 135 -55q6 -18 -3.5 -28.5t-27.5 0.5q-64 52 -159 40.5t-146 -74.5q-49 -61 -49 -141
q0 -74 56 -121t139 -47q125 0 166 66q3 5 12 41z" />
    <glyph glyph-name="sin.ghrau" unicode="&#xd9d;&#xdca;&#x200d;&#xdbb;&#xdde;" horiz-adv-x="1543" 
d="M1266 484q20 -2 23 -17t-16 -23q-30 -8 -42.5 -44t0 -71t44.5 -40q16 -5 35.5 4t23.5 27q3 19 -4.5 35t-26.5 16q-18 5 -18 24q0 55 55 80.5t101 -4.5q25 -16 40 -44t20.5 -66t7 -62t0.5 -61q-4 -157 -112 -225q-44 -29 -110.5 -6.5t-78.5 75.5q0 20 16 24t24 -14
q8 -29 44 -42.5t65 -3.5q53 18 72 93.5t14 165.5q-9 142 -81 129q-24 -5 -32 -28q29 -13 41.5 -44t-0.5 -62q-24 -53 -93 -53q-38 0 -62.5 28t-29.5 67q-6 48 14.5 89.5t65.5 52.5zM1105 46q-46 -43 -113 -46q-56 -2 -100 27q-24 15 -37 60q-2 4 -5 36.5t0 32.5
q29 -3 56 2.5t27 19.5q0 26 -91 26q-90 0 -90 -26q0 -14 27 -19.5t56 -2.5q2 -4 1 -17t-3.5 -32t-2.5 -20q-13 -45 -37 -60q-48 -31 -100 -27q-80 6 -129 61q-44 50 -53.5 123.5t20.5 132.5q16 34 43 56q4 10 -5 10h-49q-18 2 -18 20t18 22l241 1q6 1 6 8q1 32 -20.5 48
t-50.5 13t-49 -19q-11 -9 -15 -19l-1 -1q-24 -34 -73 -14q-16 10 -16 27t10 27q37 47 103 55t114 -24q38 -24 50 -76t-18 -67q-153 13 -213 -55q-34 -38 -34.5 -92.5t30.5 -99t81 -55.5q19 -5 55.5 -2.5t53.5 14.5q11 6 11 26q-28 1 -46 8t-24.5 19t-8 19t-1.5 19
q0 21 36 38.5t102 17.5q65 0 101 -17.5t36 -38.5q0 -11 -1.5 -18.5t-8.5 -19.5t-24.5 -19t-45.5 -8q0 -19 8 -25q15 -11 53.5 -14.5t58.5 1.5q50 11 81 55.5t30 99t-34 92.5q-60 68 -213 55q-31 15 -20.5 65t41.5 70q46 33 113 28.5t104 -50.5q10 -11 9.5 -27t-15.5 -27
q-13 -9 -36.5 -6.5t-36.5 20.5h-1q-4 12 -15 20q-20 16 -49 19t-50.5 -13.5t-20.5 -48.5q0 -8 6 -8q91 6 140 -17q70 -32 101 -92q38 -74 3 -195q2 -146 -70 -236q-63 -79 -210 -93q-52 -4 -104 6q-137 27 -212 151q-7 19 6.5 27t28.5 -5q38 -66 82 -88q108 -57 264 -8
q61 20 107 69t56 101zM320 268q-12 34 -66 30q-53 -22 -38 -72q8 -25 40.5 -30t50.5 13q25 23 13 59zM444 182l-3 24q-10 78 -101 98q25 -16 25 -61q0 -51 -44 -75t-91.5 -7t-55.5 66q-9 49 25 82t84 39q61 7 115.5 -21t74.5 -82q30 -80 -9.5 -147.5t-123.5 -89.5
q-58 -16 -120.5 -1.5t-108.5 54.5q-81 69 -81 183q0 69 30.5 125t84.5 90q75 47 176 42q85 -5 135 -55q6 -18 -3.5 -28.5t-27.5 0.5q-64 52 -159 40.5t-146 -74.5q-49 -61 -49 -141q0 -74 56 -121t139 -47q125 0 166 66q3 5 12 41z" />
    <glyph glyph-name="sin.ghya" unicode="&#xd9d;&#xdca;&#x200d;&#xdba;" horiz-adv-x="1154" 
d="M850 260q-9 -14 -35 -48t-41.5 -61t-22.5 -54q33 11 49 8t43 -20q50 -31 121 -20q36 6 65 35t34.5 69t-24.5 84q-11 15 -51 56t-55.5 74t-10.5 78q7 54 62.5 78t97.5 -12q32 -28 33.5 -66.5t-32.5 -63.5q-18 -8 -33 5t-4 28q24 24 10.5 50t-38.5 24q-43 -5 -53 -38
q-3 -9 -3.5 -18.5t0 -17.5t5 -17t6.5 -15t9.5 -15t11 -13t13 -13.5t12.5 -12t13.5 -12t12.5 -10.5q82 -74 78 -149q4 -42 -16.5 -81t-55.5 -61.5t-78 -30t-83 11.5q-14 6 -37.5 20t-37 20.5t-34 5.5t-40.5 -16q-2 -16 -2 -21q-2 -14 -12.5 -18.5t-19.5 1.5t-9 20
q3 91 48 160q15 23 41 60t36 53q51 97 18 157q-19 34 -48 30q-11 -2 -18 -8q-17 -23 -31 -31t-19.5 -7t-19.5 7q-16 10 -16 27t10 27q26 33 70.5 43.5t83.5 -15t45 -87.5q-1 -23 1 -34.5t-3 -31t-6 -27.5t-8.5 -24t-10 -22t-10.5 -21t-11 -20zM291 529q38 -24 50 -76
t-18 -67q-152 13 -213 -55q-34 -38 -34.5 -92.5t30.5 -99t81 -55.5q18 -5 55 -2t53 14q11 6 11 26q-28 1 -45.5 8t-24 19t-8 19t-1.5 19q0 21 36 38.5t101 17.5q66 0 102 -17.5t36 -38.5q0 -11 -1.5 -18.5t-8.5 -19.5t-24.5 -19t-45.5 -8q0 -19 8 -25q15 -11 53.5 -14.5
t58.5 1.5q50 11 80.5 55.5t30 99t-34.5 92.5q-60 68 -213 55q-31 15 -20.5 65t41.5 70q47 34 113.5 29t104.5 -51q10 -11 9.5 -27t-15.5 -27q-14 -9 -37 -6.5t-36 20.5h-1q-5 11 -15 20q-20 18 -49 20t-50.5 -14.5t-20.5 -48.5q-2 -8 6 -8q90 6 140 -17q69 -32 100 -92
q30 -59 20.5 -132.5t-53.5 -123.5q-49 -55 -129 -61q-51 -4 -99 27q-27 17 -37 60q-2 4 -5 36.5t0 32.5q29 -3 56 2.5t27 19.5q0 26 -91 26q-90 0 -90 -26q0 -14 26.5 -19.5t55.5 -2.5q2 -4 1 -17t-3 -32t-2 -20q-13 -44 -38 -60q-48 -31 -99 -27q-78 5 -129 61
q-45 49 -54 123t21 133q16 34 43 56q4 10 -6 10h-48q-18 2 -18 20t18 22l240 1q7 1 7 8q1 32 -20.5 48t-50.5 13t-49 -19q-9 -6 -16 -19v-1q-13 -18 -36.5 -20t-36.5 6q-16 10 -16 27t10 27q37 47 103 55t114 -24z" />
    <glyph glyph-name="sin.ghyu" unicode="&#xd9d;&#xdca;&#x200d;&#xdba;&#xdd4;" horiz-adv-x="1154" 
d="M853 261q-10 -16 -35 -48t-41 -59t-23 -55q19 8 35 8t27 -4.5t30 -15.5q51 -31 121 -20q38 6 69 34.5t40 69t-19 84.5q-15 22 -55 58.5t-61 70.5t-16 79q7 55 62 77t98 -12q33 -24 33.5 -64.5t-32.5 -64.5q-18 -8 -33 4.5t-3 28.5q24 24 10.5 50t-39.5 24q-43 -5 -53 -39
q-16 -57 54 -121q6 -5 27 -23q81 -66 77 -148q3 -21 -5 -56v-321q-3 -21 -22 -21h-280q-40 0 -60 6q-44 13 -66 43.5t-10 73.5q6 26 24 44q24 24 65.5 29.5t71.5 -4.5q19 -8 16.5 -23.5t-22.5 -17.5q-57 15 -95 -8q-20 -12 -22 -36t13 -41q21 -24 53 -24q22 0 65 18t75 17
q41 -1 86.5 -19t66.5 -17v235q-36 -36 -87 -47.5t-100 8.5q-14 6 -37.5 20t-37 20.5t-34 5.5t-40.5 -16q0 -5 -1 -11t-1 -10q-4 -23 -22 -21.5t-18 24.5q2 88 47 160q11 17 37 54t37 58q53 98 19 158q-20 34 -49 29q-10 -1 -18 -8q-12 -17 -22 -26t-19 -10t-13.5 0t-14.5 5
q-16 10 -16 27t10 27q26 34 70.5 45t83.5 -15t45 -88q-1 -25 1.5 -35.5t-3 -30.5t-6 -27t-8 -24.5t-9.5 -22t-10.5 -21t-10.5 -20.5zM291 529q38 -24 50 -76t-18 -67q-152 13 -213 -55q-34 -38 -34.5 -92.5t30.5 -99t81 -55.5q18 -5 55 -2t53 14q11 6 11 26q-28 1 -45.5 8
t-24 19t-8 19t-1.5 19q0 21 36 38.5t101 17.5q66 0 102 -17.5t36 -38.5q0 -11 -1.5 -18.5t-8.5 -19.5t-24.5 -19t-45.5 -8q0 -19 8 -25q15 -11 53.5 -14.5t58.5 1.5q50 11 80.5 55.5t30 99t-34.5 92.5q-60 68 -213 55q-31 15 -20.5 65t41.5 70q47 34 113.5 29t104.5 -51
q10 -11 9.5 -27t-15.5 -27q-14 -9 -37 -6.5t-36 20.5h-1q-5 11 -15 20q-20 18 -49 20t-50.5 -14.5t-20.5 -48.5q-2 -8 6 -8q90 6 140 -17q69 -32 100 -92q30 -59 20.5 -132.5t-53.5 -123.5q-49 -55 -129 -61q-51 -4 -99 27q-27 17 -37 60q-2 4 -5 36.5t0 32.5q29 -3 56 2.5
t27 19.5q0 26 -91 26q-90 0 -90 -26q0 -14 26.5 -19.5t55.5 -2.5q2 -4 1 -17t-3 -32t-2 -20q-13 -44 -38 -60q-48 -31 -99 -27q-78 5 -129 61q-45 49 -54 123t21 133q16 34 43 56q4 10 -6 10h-48q-18 2 -18 20t18 22l240 1q7 1 7 8q1 32 -20.5 48t-50.5 13t-49 -19
q-9 -6 -16 -19v-1q-13 -18 -36.5 -20t-36.5 6q-16 10 -16 27t10 27q37 47 103 55t114 -24z" />
    <glyph glyph-name="sin.ghyuu" unicode="&#xd9d;&#xdca;&#x200d;&#xdba;&#xdd6;" horiz-adv-x="1166" 
d="M851 258q-10 -16 -35 -48.5t-41.5 -59.5t-23.5 -55q7 3 13 5t12 2t10 1t10 -0.5t8.5 -2t10 -3.5t8.5 -4t10 -5t10 -5q59 -30 122 -20q37 6 69 35t41 69t-20 84q-15 21 -56.5 58t-62 71t-14.5 79q8 57 62.5 79.5t98.5 -13.5q32 -26 33 -64.5t-32 -65.5q-19 -8 -34 4.5
t-3 28.5q24 24 10.5 50t-39.5 24q-42 -5 -52 -38q-3 -9 -3.5 -18.5t0 -17.5t5 -17t6.5 -15t9.5 -15t11 -13t13 -13.5t12.5 -12t13.5 -12t12.5 -10.5q82 -74 78 -149q2 -36 -4 -51v-314q0 -32 -38 -32q-14 0 -62 24t-83 24q-34 0 -75.5 -23t-97.5 -20q-40 2 -66.5 36.5
t-17.5 80.5q4 23 25 44q47 46 137 25q18 -7 16 -23.5t-23 -16.5q-58 14 -94 -9q-20 -13 -22.5 -36.5t12.5 -40.5q9 -10 22.5 -17t19.5 -7q30 0 75 38t86 38q34 0 62.5 -17.5t48.5 -34.5t34 -16v228q-37 -37 -87.5 -48.5t-100.5 7.5q-15 6 -38 20t-36.5 21t-34.5 6t-41 -17
q0 -5 -0.5 -11t-0.5 -10q-2 -15 -12.5 -19.5t-19.5 2.5t-9 20q3 90 47 160q14 22 40 58.5t38 54.5q51 97 18 156q-19 34 -48 31q-11 -2 -19 -9q-24 -31 -40 -36.5t-29 6.5q-16 10 -16 26.5t10 26.5q26 34 70.5 45t83.5 -15t45 -88q-1 -23 1 -34.5t-3 -31t-6 -27.5t-8.5 -24
t-10 -22t-10.5 -21t-11 -20zM291 529q38 -24 50 -76t-18 -67q-152 13 -213 -55q-34 -38 -34.5 -92.5t30.5 -99t81 -55.5q18 -5 55 -2t53 14q11 6 11 26q-28 1 -45.5 8t-24 19t-8 19t-1.5 19q0 21 36 38.5t101 17.5q66 0 102 -17.5t36 -38.5q0 -11 -1.5 -18.5t-8.5 -19.5
t-24.5 -19t-45.5 -8q0 -19 8 -25q15 -11 53.5 -14.5t58.5 1.5q50 11 80.5 55.5t30 99t-34.5 92.5q-60 68 -213 55q-31 15 -20.5 65t41.5 70q47 34 113.5 29t104.5 -51q10 -11 9.5 -27t-15.5 -27q-14 -9 -37 -6.5t-36 20.5h-1q-5 11 -15 20q-20 18 -49 20t-50.5 -14.5
t-20.5 -48.5q-2 -8 6 -8q90 6 140 -17q69 -32 100 -92q30 -59 20.5 -132.5t-53.5 -123.5q-49 -55 -129 -61q-51 -4 -99 27q-27 17 -37 60q-2 4 -5 36.5t0 32.5q29 -3 56 2.5t27 19.5q0 26 -91 26q-90 0 -90 -26q0 -14 26.5 -19.5t55.5 -2.5q2 -4 1 -17t-3 -32t-2 -20
q-13 -44 -38 -60q-48 -31 -99 -27q-78 5 -129 61q-45 49 -54 123t21 133q16 34 43 56q4 10 -6 10h-48q-18 2 -18 20t18 22l240 1q7 1 7 8q1 32 -20.5 48t-50.5 13t-49 -19q-9 -6 -16 -19v-1q-13 -18 -36.5 -20t-36.5 6q-16 10 -16 27t10 27q37 47 103 55t114 -24z" />
    <glyph glyph-name="sin.ghyo" unicode="&#xd9d;&#xdca;&#x200d;&#xdba;&#xddc;" horiz-adv-x="1899" 
d="M1621 76q-3 9 3 17t17 7t20 -14q30 -43 64 -40t49 66t16 128q6 196 -63 202q-40 4 -66 -39q-11 -18 -25.5 -14t-14.5 24q12 38 52.5 57.5t79.5 9.5q40 -10 74 -61q23 -36 31 -98q16 -132 -17 -221q-22 -57 -65 -82q-40 -24 -91 -5.5t-64 63.5zM1333 260q-9 -14 -35 -48
t-41.5 -61t-22.5 -54q33 11 49 8t43 -20q50 -31 121 -20q36 6 65 35t34.5 69t-24.5 84q-11 15 -51 56t-55.5 74t-10.5 78q7 54 62.5 78t97.5 -12q32 -28 33.5 -66.5t-32.5 -63.5q-18 -8 -33 5t-4 28q24 24 10.5 50t-38.5 24q-43 -5 -53 -38q-3 -9 -3.5 -18.5t0 -17.5t5 -17
t6.5 -15t9.5 -15t11 -13t13 -13.5t12.5 -12t13.5 -12t12.5 -10.5q82 -74 78 -149q4 -42 -16.5 -81t-55.5 -61.5t-78 -30t-83 11.5q-14 6 -37.5 20t-37 20.5t-34 5.5t-40.5 -16q-2 -16 -2 -21q-2 -14 -12.5 -18.5t-19.5 1.5t-9 20q3 91 48 160q15 23 41 60t36 53
q51 97 18 157q-19 34 -48 30q-10 -1 -18 -8q-17 -23 -31 -31t-19.5 -7t-19.5 7q-16 10 -16 27t10 27q26 33 70.5 43.5t83.5 -15t45 -87.5q-1 -23 1 -34.5t-3 -31t-6 -27.5t-8.5 -24t-10 -22t-10.5 -21t-11 -20zM774 529q38 -24 50 -76t-18 -67q-152 13 -213 -55
q-34 -38 -34.5 -92.5t30.5 -99t81 -55.5q18 -5 55 -2t53 14q11 6 11 26q-28 1 -45.5 8t-24 19t-8 19t-1.5 19q0 21 36 38.5t101 17.5q66 0 102 -17.5t36 -38.5q0 -11 -1.5 -18.5t-8.5 -19.5t-24.5 -19t-45.5 -8q0 -19 8 -25q15 -11 53.5 -14.5t58.5 1.5q50 11 80.5 55.5
t30 99t-34.5 92.5q-60 68 -213 55q-31 15 -20.5 65t41.5 70q47 34 113.5 29t104.5 -51q10 -11 9.5 -27t-15.5 -27q-14 -9 -37 -6.5t-36 20.5h-1q-5 11 -15 20q-20 18 -49 20t-50.5 -14.5t-20.5 -48.5q-2 -8 6 -8q90 6 140 -17q69 -32 100 -92q30 -59 20.5 -132.5
t-53.5 -123.5q-49 -55 -129 -61q-51 -4 -99 27q-27 17 -37 60q-2 4 -5 36.5t0 32.5q29 -3 56 2.5t27 19.5q0 26 -91 26q-90 0 -90 -26q0 -14 26.5 -19.5t55.5 -2.5q2 -4 1 -17t-3 -32t-2 -20q-13 -44 -38 -60q-48 -31 -99 -27q-78 5 -129 61q-45 49 -54 123t21 133
q16 34 43 56q4 10 -6 10h-48q-18 2 -18 20t18 22l240 1q7 1 7 8q1 32 -20.5 48t-50.5 13t-49 -19q-9 -6 -16 -19v-1q-13 -18 -36.5 -20t-36.5 6q-16 10 -16 27t10 27q37 47 103 55t114 -24zM320 268q-12 34 -66 30q-53 -22 -38 -72q8 -25 40.5 -30t50.5 13q25 23 13 59z
M444 182l-3 24q-10 78 -101 98q25 -16 25 -61q0 -51 -44 -75t-91.5 -7t-55.5 66q-9 49 25 82t84 39q61 7 115.5 -21t74.5 -82q30 -80 -9.5 -147.5t-123.5 -89.5q-58 -16 -120.5 -1.5t-108.5 54.5q-81 69 -81 183q0 69 30.5 125t84.5 90q75 47 176 42q85 -5 135 -55
q6 -18 -3.5 -28.5t-27.5 0.5q-64 52 -159 40.5t-146 -74.5q-49 -61 -49 -141q0 -74 56 -121t139 -47q125 0 166 66q3 5 12 41z" />
    <glyph glyph-name="sin.ghyoo" unicode="&#xd9d;&#xdca;&#x200d;&#xdba;&#xddd;" horiz-adv-x="1909" 
d="M1818 780q3 -12 3 -24v-47q6 -10 29 -10q28 1 34 42q7 42 -16 57q-13 8 -29 2t-21 -20zM1821 665v-242q1 -2 2.5 -5.5t3.5 -5.5q24 -41 31 -98q17 -141 -17 -221q-25 -57 -65 -82q-40 -24 -91 -5.5t-64 63.5q-2 9 4 16.5t16.5 7t19.5 -12.5q31 -42 64 -40q35 3 49.5 66.5
t14.5 126.5q0 196 -63 202q-37 3 -65 -39q-11 -17 -25.5 -13.5t-14.5 23.5q12 38 52 58t79 10q13 -4 26 -11l2 294q-4 28 -32 42q-6 5 -22 9q-18 6 -13.5 23.5t25.5 15.5q35 -9 55 -29q29 34 64 29q31 -5 43 -19q20 -20 25.5 -51.5t-3.5 -57.5q-13 -46 -48 -57q-26 -9 -53 3
zM1331 260q-9 -14 -35 -48t-41.5 -61t-22.5 -54q33 11 49 8t43 -20q50 -31 121 -20q36 6 65 35t34.5 69t-24.5 84q-11 15 -51 56t-55.5 74t-10.5 78q7 54 62.5 78t97.5 -12q32 -28 33.5 -66.5t-32.5 -63.5q-18 -8 -33 5t-4 28q24 24 10.5 50t-38.5 24q-43 -5 -53 -38
q-3 -9 -3.5 -18.5t0 -17.5t5 -17t6.5 -15t9.5 -15t11 -13t13 -13.5t12.5 -12t13.5 -12t12.5 -10.5q82 -74 78 -149q4 -42 -16.5 -81t-55.5 -61.5t-78 -30t-83 11.5q-14 6 -37.5 20t-37 20.5t-34 5.5t-40.5 -16q-2 -16 -2 -21q-2 -14 -12.5 -18.5t-19.5 1.5t-9 20
q3 91 48 160q15 23 41 60t36 53q51 97 18 157q-19 34 -48 30q-10 -1 -18 -8q-17 -23 -31 -31t-19.5 -7t-19.5 7q-16 10 -16 27t10 27q26 33 70.5 43.5t83.5 -15t45 -87.5q-1 -23 1 -34.5t-3 -31t-6 -27.5t-8.5 -24t-10 -22t-10.5 -21t-11 -20zM772 529q38 -24 50 -76
t-18 -67q-152 13 -213 -55q-34 -38 -34.5 -92.5t30.5 -99t81 -55.5q18 -5 55 -2t53 14q11 6 11 26q-28 1 -45.5 8t-24 19t-8 19t-1.5 19q0 21 36 38.5t101 17.5q66 0 102 -17.5t36 -38.5q0 -11 -1.5 -18.5t-8.5 -19.5t-24.5 -19t-45.5 -8q0 -19 8 -25q15 -11 53.5 -14.5
t58.5 1.5q50 11 80.5 55.5t30 99t-34.5 92.5q-60 68 -213 55q-31 15 -20.5 65t41.5 70q47 34 113.5 29t104.5 -51q10 -11 9.5 -27t-15.5 -27q-14 -9 -37 -6.5t-36 20.5h-1q-5 11 -15 20q-20 18 -49 20t-50.5 -14.5t-20.5 -48.5q-2 -8 6 -8q90 6 140 -17q69 -32 100 -92
q30 -59 20.5 -132.5t-53.5 -123.5q-49 -55 -129 -61q-51 -4 -99 27q-27 17 -37 60q-2 4 -5 36.5t0 32.5q29 -3 56 2.5t27 19.5q0 26 -91 26q-90 0 -90 -26q0 -14 26.5 -19.5t55.5 -2.5q2 -4 1 -17t-3 -32t-2 -20q-13 -44 -38 -60q-48 -31 -99 -27q-78 5 -129 61
q-45 49 -54 123t21 133q16 34 43 56q4 10 -6 10h-48q-18 2 -18 20t18 22l240 1q7 1 7 8q1 32 -20.5 48t-50.5 13t-49 -19q-9 -6 -16 -19v-1q-13 -18 -36.5 -20t-36.5 6q-16 10 -16 27t10 27q37 47 103 55t114 -24zM320 268q-12 34 -66 30q-53 -22 -38 -72q8 -25 40.5 -30
t50.5 13q25 23 13 59zM444 182l-3 24q-10 78 -101 98q25 -16 25 -61q0 -51 -44 -75t-91.5 -7t-55.5 66q-9 49 25 82t84 39q61 7 115.5 -21t74.5 -82q30 -80 -9.5 -147.5t-123.5 -89.5q-58 -16 -120.5 -1.5t-108.5 54.5q-81 69 -81 183q0 69 30.5 125t84.5 90q75 47 176 42
q85 -5 135 -55q6 -18 -3.5 -28.5t-27.5 0.5q-64 52 -159 40.5t-146 -74.5q-49 -61 -49 -141q0 -74 56 -121t139 -47q125 0 166 66q3 5 12 41z" />
    <glyph glyph-name="sin.rgha" unicode="&#xdbb;&#xdca;&#x200d;&#xd9d;" horiz-adv-x="735" 
d="M359 593q13 -13 27 -17q19 2 25 18.5t-2.5 31t-26.5 12.5q-17 -2 -25 -16.5t2 -28.5zM530 586l-6 -8q-10 -10 -22 -4.5t-12 22.5q8 40 1 60q-9 27 -40.5 46t-72.5 18q-42 0 -76 -22t-36 -57q-4 -48 55 -67q-23 38 4.5 76.5t79.5 26.5q35 -8 48 -55q5 -20 -3 -43
q-13 -36 -73 -45t-94 11q-42 22 -55.5 71t9.5 89q40 72 148 72q67 0 113 -43q54 -51 32 -148zM293 527l10 -7q33 -29 41 -75.5t-19 -60.5q-152 13 -213 -55q-34 -38 -34.5 -92.5t30 -99t80.5 -55.5q19 -5 55.5 -2.5t53.5 14.5q11 6 11 26q-28 1 -46 8t-24.5 19t-8 19
t-1.5 19q0 21 36 38.5t102 17.5q65 0 101 -17.5t36 -38.5q0 -12 -1.5 -19t-8 -19t-24 -19t-45.5 -8q0 -19 8 -25q15 -11 52.5 -14.5t58.5 1.5q50 11 81 55.5t30 99t-34 92.5q-60 68 -213 55q-31 15 -20.5 65t41.5 70q46 33 113 28.5t104 -50.5q10 -10 10 -27t-15 -27
q-14 -9 -37.5 -6.5t-36.5 20.5q-5 11 -15 20q-20 18 -49 20t-50.5 -14.5t-20.5 -48.5q-2 -8 6 -8q90 6 140 -17q69 -32 100 -92q30 -59 20.5 -132.5t-53.5 -123.5q-51 -56 -129 -61q-51 -4 -99 27q-25 16 -38 60q0 1 -2.5 20t-3.5 32t1 17q29 -3 56 2.5t27 19.5q0 26 -90 26
q-91 0 -91 -26q0 -14 27 -19.5t56 -2.5q3 0 0 -32.5t-5 -36.5q-13 -45 -37 -60q-44 -29 -99 -27q-84 10 -129 61q-45 49 -54 123t21 133q16 34 43 56q4 10 -6 10h-48q-19 2 -18.5 20t18.5 22l240 1q6 1 6 8q1 32 -20.5 48t-50.5 14t-49 -20q-5 -5 -15 -19v-1
q-12 -18 -36.5 -20t-37.5 6q-15 10 -15 27t10 27q37 48 104 56.5t113 -25.5z" />
    <glyph glyph-name="sin.ng" unicode="&#xd9f;&#xdca;" horiz-adv-x="777" 
d="M633 785l3 -23v-47q6 -11 29 -11q28 1 34 42q7 42 -16 57q-13 8 -29 2t-21 -20zM635 670l-3 -151q31 -19 54 -53q53 -78 57.5 -182t-40.5 -186q-29 -53 -71 -74.5t-103 -18.5q-4 1 -13 2t-14.5 2t-13 3.5t-12.5 6.5q-4 7 -6 18q3 22 22 18q30 -9 66 -9t68.5 24.5
t47.5 58.5q19 42 20.5 100.5t-13.5 112.5t-53.5 92t-92.5 38q-51 0 -93 -23.5t-55 -73.5q-5 -19 -10 -51q0 -10 9 -11q50 -5 78 -27q43 -40 42.5 -103t-34.5 -108q-44 -56 -124.5 -68t-139.5 22q-63 33 -94 107.5t-19 151.5t63 119q42 35 108 37q33 0 33 16q0 29 -35 38.5
t-67 -3.5q-35 -14 -66 -56q-73 -97 -62 -233q7 -77 25 -107q6 -9 0 -19.5t-19 -8.5q-34 10 -46 118q-15 171 74 282q34 42 71 59q54 26 111 6q27 -9 43.5 -32.5t12.5 -49.5q-2 -15 -11 -27q-10 -9 -20.5 -14t-15 -6.5t-22 -2.5t-21.5 -1l-15 -4q-15 -4 -27 -9.5t-28 -15.5
t-26 -26.5t-13 -38.5q-12 -97 34.5 -162.5t137.5 -65.5q17 0 34.5 2.5t40.5 11t39.5 22.5t26.5 40t6 60q-6 26 -24.5 40t-43.5 14q-3 0 -17 -1.5t-23 -0.5t-14 7q-9 13 -6 40.5t9 51.5t13 41q32 78 100 115.5t138 13.5l1 225q0 24 -31 42l-22 8q-12 4 -14.5 14.5t4.5 18
t21 6.5q36 -9 56 -28q25 32 63 28q28 -3 44 -19q18 -19 23.5 -51t-1.5 -57q-13 -47 -48 -58q-25 -9 -54 3z" />
    <glyph glyph-name="sin.ngi" unicode="&#xd9f;&#xdd2;" horiz-adv-x="791" 
d="M582 541q3 7 12 15q44 29 40 63q-3 35 -63 50t-131 15q-196 0 -202 -63q-3 -40 39 -65q14 -8 14 -21q1 -1 3 -1q27 -9 43 -32.5t13 -50.5q-4 -16 -11 -27q-7 -6 -14 -10t-11.5 -6t-12 -3.5t-11.5 -2t-14.5 -1.5t-15.5 -1l-14 -4q-15 -4 -27.5 -9t-28.5 -15t-26 -26.5
t-13 -38.5q-12 -98 34.5 -163t137.5 -65q22 0 44.5 4.5t50 17.5t42.5 42t10 71q-6 26 -24.5 40t-43.5 14q-2 0 -16.5 -1.5t-23.5 0t-14 7.5q-9 28 -2.5 65t18.5 68q27 70 91 109t127 25zM183 528l18 7q13 5 27 6q-45 47 -28 106q13 43 61 74q32 21 98 31q117 18 221 -17
q54 -18 82 -64q20 -34 8.5 -78.5t-44.5 -66.5q39 -20 69 -63q53 -77 57.5 -182t-40.5 -185q-29 -53 -71 -75t-103 -18q-37 2 -53 14q-5 8 -6 17q3 20 22 19q24 -10 66 -10q35 0 68 25.5t48 58.5q20 42 21 101t-14.5 112.5t-54 91.5t-91.5 38q-51 0 -93 -23.5t-55 -74.5
q-5 -20 -10 -50q0 -9 9 -12q50 -5 78 -27q43 -40 42.5 -102.5t-34.5 -107.5q-44 -56 -123 -68.5t-141 22.5q-63 34 -94 108t-19 150.5t63 119.5q38 32 108 37q33 3 33 16q0 28 -35 38t-67 -4q-36 -14 -66 -55q-73 -97 -62 -234q6 -76 25 -106q7 -10 1 -20.5t-20 -7.5
q-35 7 -46 118q-15 169 74 281q32 40 71 60z" />
    <glyph glyph-name="sin.ngii" unicode="&#xd9f;&#xdd3;" horiz-adv-x="767" 
d="M593 646l-30 20q-34 16 -48 10q-30 -14 -34 -43.5t15.5 -52.5t47.5 -21q35 4 51.5 33.5t-2.5 53.5zM478 537l-13 10q-35 26 -29 87q1 18 24 51q-3 0 -11.5 0.5t-14.5 0.5q-35 2 -66 1q-56 -3 -104.5 -19.5t-53.5 -46.5q-8 -47 30 -68q5 -3 28 -13q1 0 3 -1t4.5 -2t4.5 -1
q9 -4 13 -13q41 -27 36 -72q-3 -16 -11 -27q-10 -9 -20.5 -14t-15 -6.5t-22 -2.5t-21.5 -1l-15 -4q-15 -4 -27 -9.5t-28 -15.5t-26 -26.5t-13 -38.5q-12 -97 34.5 -162.5t137.5 -65.5q17 0 34.5 2.5t40.5 11t39.5 22.5t26.5 40t6 60q-6 26 -24.5 40t-43.5 14q-3 0 -17 -1.5
t-23 -0.5t-14 7q-9 26 -2.5 66t18.5 67q44 103 135 131zM162 527l14 6q8 3 19 5q-33 33 -28 84.5t39 81.5q30 28 88 44q57 16 126 12.5t124 -22.5q68 -23 90 -72q13 -32 8 -68q-6 -47 -48 -67q51 -26 80 -68q54 -75 58 -181t-41 -187q-54 -99 -173 -93q-44 7 -54 14
q-4 8 -6 18q3 22 22 18q30 -9 66 -9t68.5 24.5t47.5 58.5q19 42 20.5 100.5t-13.5 112.5t-53.5 92t-92.5 38q-51 0 -93 -23.5t-55 -73.5q-5 -18 -10 -51q0 -10 9 -11q50 -5 78 -27q43 -40 42.5 -103t-34.5 -108q-44 -56 -124.5 -68t-139.5 22q-63 33 -94 107.5t-19 151.5
t63 119q42 35 108 37q33 0 33 16q0 29 -35 38.5t-67 -3.5q-35 -14 -66 -56q-73 -97 -62 -233q7 -77 25 -107q6 -9 0 -19.5t-19 -8.5q-34 10 -46 118q-15 171 74 282q34 42 71 59z" />
    <glyph glyph-name="sin.ngu" unicode="&#xd9f;&#xdd4;" horiz-adv-x="778" 
d="M679 126q20 42 21 101t-14.5 112.5t-54 91.5t-91.5 38q-51 0 -93 -23.5t-55 -74.5q-5 -20 -10 -50q0 -9 10 -12q49 -5 77 -27q43 -40 42.5 -102.5t-34.5 -107.5q-45 -56 -123 -68.5t-141 22.5q-62 33 -92.5 107t-19 151t62.5 120q38 32 107 37q33 3 33 16q0 28 -35 38
t-67 -4q-36 -14 -66 -55q-72 -96 -61 -234q6 -76 25 -106q7 -10 1 -20.5t-20 -7.5q-36 8 -47 118q-15 166 74 281q29 38 71 60q51 25 111 6q27 -9 43 -32.5t13 -50.5q-4 -16 -11 -27q-7 -6 -13.5 -10t-11 -6t-12.5 -3.5t-11.5 -2t-14.5 -1.5t-16 -1l-14 -4q-15 -4 -27.5 -9
t-28.5 -15t-26 -26.5t-13 -38.5q-12 -98 34.5 -163t137.5 -65q22 0 44.5 4.5t50 17.5t42.5 42t10 71q-12 54 -68 54q-2 0 -16.5 -1.5t-23.5 0t-14 7.5q-7 13 -4.5 40.5t8 50.5t12.5 42q19 53 60.5 88t89 45.5t97.5 -9t84 -68.5q53 -75 57.5 -181t-40.5 -186
q-55 -101 -173 -93q-9 -6 -17 -29q-14 -38 20 -67.5t83 -24.5q1 0 16.5 0.5t23 2t21 5.5t23 13t16.5 22q9 18 -9 36q-14 18 0 31t31 -3q34 -34 24.5 -83.5t-50.5 -75.5t-102.5 -23t-98.5 33q-28 23 -39 46q-14 28 -8.5 62.5t26.5 61.5l-14 7q-9 10 -5 23t21 13
q24 -10 66 -10q35 0 68 25.5t48 58.5z" />
    <glyph glyph-name="sin.nguu" unicode="&#xd9f;&#xdd6;" horiz-adv-x="786" 
d="M679 127q19 42 20.5 100.5t-13.5 112.5t-53.5 92t-92.5 38q-50 0 -92 -23.5t-55 -73.5q-5 -19 -10 -51q0 -10 9 -11q50 -5 78 -27q43 -40 42.5 -103t-35.5 -108q-44 -56 -124.5 -68t-139.5 22q-62 33 -93 107t-19.5 151.5t63.5 119.5q42 35 107 37q33 0 33 16
q0 29 -35 39t-67 -4q-31 -11 -66 -56q-73 -93 -61 -233q7 -77 25 -107q6 -9 0 -19.5t-19 -8.5q-35 10 -47 118q-15 168 74 282q31 40 71 59q55 25 112 6q27 -9 43.5 -32.5t11.5 -49.5q-3 -16 -11 -27q-10 -9 -20.5 -14t-15 -6.5t-22 -2.5t-21.5 -1l-15 -4q-15 -4 -27 -9.5
t-28 -15.5t-26 -26.5t-13 -38.5q-12 -97 34.5 -162.5t137.5 -65.5q17 0 34.5 2.5t40.5 11t39.5 22.5t26.5 40t6 60q-5 26 -23.5 40t-44.5 14q-3 0 -17 -1.5t-23 -0.5t-14 7q-7 30 -1 66.5t18 66.5q28 71 87.5 109t128 26t115.5 -78q53 -75 57 -181t-41 -187
q-42 -79 -126 -91l24 -14q11 -11 9 -22t-15 -16q-34 -5 -39 -9q-34 -21 -9 -45t74 -22q91 6 95 60q0 6 -4 13q-1 1 -7 12q-7 12 6 25q15 13 30 -4q15 -11 21 -53q7 -40 -20.5 -73.5t-68.5 -42.5q-32 -9 -85.5 -3t-77.5 28q-18 15 -28 37q-6 16 -6 30q-5 49 61 74
q-8 6 -24.5 16t-22.5 14q-10 5 -13 7q-9 11 -5.5 23.5t20.5 12.5q30 -9 67 -9q36 0 68 24.5t47 58.5z" />
    <glyph glyph-name="sin.nge" unicode="&#xd9f;&#xdd9;" horiz-adv-x="1253" 
d="M634 405q46 35 108 37q33 0 33 16q0 29 -35 38.5t-67 -3.5q-35 -14 -66 -56q-73 -97 -62 -233q7 -77 25 -107q6 -9 0 -19.5t-19 -8.5q-34 10 -46 118q-15 171 74 282q34 42 71 59q54 26 111 6q27 -9 43.5 -32.5t12.5 -49.5q-2 -15 -11 -27q-10 -9 -20.5 -14t-15 -6.5
t-22 -2.5t-21.5 -1l-15 -4q-15 -4 -27 -9.5t-28 -15.5t-26 -26.5t-13 -38.5q-12 -97 34.5 -162.5t137.5 -65.5q17 0 34.5 2.5t40.5 11t39.5 22.5t26.5 40t6 60q-6 26 -24.5 40t-43.5 14q-3 0 -17 -1.5t-23 -0.5t-14 7q-9 28 -2.5 65t18.5 68q20 52 61 87.5t88 46.5t97 -8
t85 -69q53 -78 57.5 -182t-40.5 -186q-29 -53 -71 -74.5t-103 -18.5q-4 1 -13 2t-14.5 2t-13 3.5t-12.5 6.5q-4 7 -6 18q3 22 22 18q30 -9 66 -9t68.5 24.5t47.5 58.5q19 42 20.5 100.5t-13.5 112.5t-53.5 92t-92.5 38q-51 0 -93 -23.5t-55 -73.5q-5 -19 -10 -51
q0 -10 9 -11q50 -5 78 -27q43 -40 42.5 -103t-34.5 -108q-44 -56 -123.5 -68t-140.5 22q-62 32 -93.5 107t-20 152.5t63.5 118.5zM320 268q-12 34 -66 30q-53 -22 -38 -72q8 -25 40.5 -30t50.5 13q25 23 13 59zM444 182l-3 24q-10 78 -101 98q25 -16 25 -61q0 -51 -44 -75
t-91.5 -7t-55.5 66q-9 49 25 82t84 39q61 7 115.5 -21t74.5 -82q30 -80 -9.5 -147.5t-123.5 -89.5q-58 -16 -120.5 -1.5t-108.5 54.5q-81 69 -81 183q0 69 30.5 125t84.5 90q75 47 176 42q85 -5 135 -55q6 -18 -3.5 -28.5t-27.5 0.5q-64 52 -159 40.5t-146 -74.5
q-49 -61 -49 -141q0 -74 56 -121t139 -47q125 0 166 66q3 5 12 41z" />
    <glyph glyph-name="sin.ngee" unicode="&#xd9f;&#xdda;" horiz-adv-x="1271" 
d="M1119 785l3 -23v-47q6 -11 29 -11q28 1 34 42q7 42 -16 57q-13 8 -29 2t-21 -20zM1121 670l-3 -151q31 -19 54 -53q53 -78 57.5 -182t-40.5 -186q-29 -53 -71 -74.5t-103 -18.5q-4 1 -13 2t-14.5 2t-13 3.5t-12.5 6.5q-4 7 -6 18q3 22 22 18q30 -9 66 -9t68.5 24.5
t47.5 58.5q19 42 20.5 100.5t-13.5 112.5t-53.5 92t-92.5 38q-51 0 -93 -23.5t-55 -73.5q-5 -18 -10 -51q0 -10 9 -11q50 -5 78 -27q43 -40 42.5 -103t-34.5 -108q-44 -56 -124.5 -68t-139.5 22q-63 33 -94 107.5t-19 151.5t63 119q42 35 108 37q33 0 33 16q0 29 -35 38.5
t-67 -3.5q-35 -14 -66 -56q-73 -97 -62 -233q7 -77 25 -107q6 -9 0 -19.5t-19 -8.5q-34 10 -46 118q-15 171 74 282q34 42 71 59q54 26 111 6q27 -9 43.5 -32.5t12.5 -49.5q-2 -15 -11 -27q-10 -9 -20.5 -14t-15 -6.5t-22 -2.5t-21.5 -1l-15 -4q-15 -4 -27 -9.5t-28 -15.5
t-26 -26.5t-13 -38.5q-12 -97 34.5 -162.5t137.5 -65.5q17 0 34.5 2.5t40.5 11t39.5 22.5t26.5 40t6 60q-6 26 -24.5 40t-43.5 14q-3 0 -17 -1.5t-23 -0.5t-14 7q-9 13 -6 40.5t9 51.5t13 41q32 78 100 115.5t138 13.5l1 225q0 24 -31 42l-22 8q-12 4 -14.5 14.5t4.5 18
t21 6.5q36 -9 56 -28q25 32 63 28q28 -3 44 -19q18 -19 23.5 -51t-1.5 -57q-13 -47 -48 -58q-25 -9 -54 3zM320 268q-12 34 -66 30q-53 -22 -38 -72q8 -25 40.5 -30t50.5 13q25 23 13 59zM444 182l-3 24q-10 78 -101 98q25 -16 25 -61q0 -51 -44 -75t-91.5 -7t-55.5 66
q-9 49 25 82t84 39q61 7 115.5 -21t74.5 -82q30 -80 -9.5 -147.5t-123.5 -89.5q-58 -16 -120.5 -1.5t-108.5 54.5q-81 69 -81 183q0 69 30.5 125t84.5 90q75 47 176 42q85 -5 135 -55q6 -18 -3.5 -28.5t-27.5 0.5q-64 52 -159 40.5t-146 -74.5q-49 -61 -49 -141
q0 -74 56 -121t139 -47q125 0 166 66q3 5 12 41z" />
    <glyph glyph-name="sin.ngai" unicode="&#xd9f;&#xddb;" horiz-adv-x="1741" 
d="M1122 405q46 35 108 37q33 0 33 16q0 29 -35 38.5t-67 -3.5q-35 -14 -66 -56q-73 -97 -62 -233q7 -77 25 -107q6 -9 0 -19.5t-19 -8.5q-34 10 -46 118q-15 171 74 282q34 42 71 59q54 26 111 6q27 -9 43.5 -32.5t12.5 -49.5q-2 -15 -11 -27q-10 -9 -20.5 -14t-15 -6.5
t-22 -2.5t-21.5 -1l-15 -4q-15 -4 -27 -9.5t-28 -15.5t-26 -26.5t-13 -38.5q-12 -97 34.5 -162.5t137.5 -65.5q17 0 34.5 2.5t40.5 11t39.5 22.5t26.5 40t6 60q-6 26 -24.5 40t-43.5 14q-3 0 -17 -1.5t-23 -0.5t-14 7q-9 28 -2.5 65t18.5 68q20 52 61 87.5t88 46.5t97 -8
t85 -69q53 -78 57.5 -182t-40.5 -186q-29 -53 -71 -74.5t-103 -18.5q-4 1 -13 2t-14.5 2t-13 3.5t-12.5 6.5q-4 7 -6 18q3 22 22 18q30 -9 66 -9t68.5 24.5t47.5 58.5q19 42 20.5 100.5t-13.5 112.5t-53.5 92t-92.5 38q-51 0 -93 -23.5t-55 -73.5q-5 -19 -10 -51
q0 -10 9 -11q50 -5 78 -27q43 -40 42.5 -103t-34.5 -108q-44 -56 -123.5 -68t-140.5 22q-62 32 -93.5 107t-20 152.5t63.5 118.5zM320 268q-12 34 -66 30q-53 -22 -38 -72q8 -25 40.5 -30t50.5 13q25 23 13 59zM444 182l-3 24q-10 78 -101 98q25 -16 25 -61q0 -51 -44 -75
t-91.5 -7t-55.5 66q-9 49 25 82t84 39q61 7 115.5 -21t74.5 -82q30 -80 -9.5 -147.5t-123.5 -89.5q-58 -16 -120.5 -1.5t-108.5 54.5q-81 69 -81 183q0 69 30.5 125t84.5 90q75 47 176 42q85 -5 135 -55q6 -18 -3.5 -28.5t-27.5 0.5q-64 52 -159 40.5t-146 -74.5
q-49 -61 -49 -141q0 -74 56 -121t139 -47q125 0 166 66q3 5 12 41zM805 268q-12 34 -66 30q-53 -22 -38 -72q8 -25 40.5 -30t50.5 13q25 23 13 59zM929 182l-3 24q-10 78 -101 98q25 -16 25 -61q0 -51 -44 -75t-91.5 -7t-55.5 66q-9 49 25 82t84 39q61 7 115.5 -21t74.5 -82
q30 -80 -9.5 -147.5t-123.5 -89.5q-58 -16 -120.5 -1.5t-108.5 54.5q-81 69 -81 183q0 69 30.5 125t84.5 90q75 47 176 42q85 -5 135 -55q6 -18 -3.5 -28.5t-27.5 0.5q-64 52 -159 40.5t-146 -74.5q-49 -61 -49 -141q0 -74 56 -121t139 -47q125 0 166 66q3 5 12 41z" />
    <glyph glyph-name="sin.ngo" unicode="&#xd9f;&#xddc;" horiz-adv-x="1512" 
d="M1233 76q-3 9 3 17t17 7t20 -14q30 -43 64 -40t49 66t16 128q6 196 -63 202q-40 4 -66 -39q-11 -18 -25.5 -14t-14.5 24q12 38 52.5 57.5t79.5 9.5q40 -10 74 -61q23 -36 31 -98q16 -132 -17 -221q-22 -57 -65 -82q-40 -24 -91 -5.5t-64 63.5zM646 405q42 35 108 37
q33 0 33 16q0 29 -35 38.5t-67 -3.5q-35 -14 -66 -56q-73 -97 -62 -233q7 -77 25 -107q6 -9 0 -19.5t-19 -8.5q-34 10 -46 118q-15 171 74 282q34 42 71 59q54 26 111 6q27 -9 43.5 -32.5t12.5 -49.5q-2 -15 -11 -27q-10 -9 -20.5 -14t-15 -6.5t-22 -2.5t-21.5 -1l-15 -4
q-15 -4 -27 -9.5t-28 -15.5t-26 -26.5t-13 -38.5q-12 -97 34.5 -162.5t137.5 -65.5q17 0 34.5 2.5t40.5 11t39.5 22.5t26.5 40t6 60q-6 26 -24.5 40t-43.5 14q-3 0 -17 -1.5t-23 -0.5t-14 7q-9 28 -2.5 65t18.5 68q20 52 61 87.5t88 46.5t97 -8t85 -69q53 -78 57.5 -182
t-40.5 -186q-29 -53 -71 -74.5t-103 -18.5q-4 1 -13 2t-14.5 2t-13 3.5t-12.5 6.5q-4 7 -6 18q3 22 22 18q30 -9 66 -9t68.5 24.5t47.5 58.5q19 42 20.5 100.5t-13.5 112.5t-53.5 92t-92.5 38q-51 0 -93 -23.5t-55 -73.5q-5 -19 -10 -51q0 -10 9 -11q50 -5 78 -27
q43 -40 42.5 -103t-34.5 -108q-45 -56 -124.5 -68.5t-139.5 22.5q-62 33 -92.5 107.5t-19 151.5t61.5 119zM320 268q-12 34 -66 30q-53 -22 -38 -72q8 -25 40.5 -30t50.5 13q25 23 13 59zM444 182l-3 24q-10 78 -101 98q25 -16 25 -61q0 -51 -44 -75t-91.5 -7t-55.5 66
q-9 49 25 82t84 39q61 7 115.5 -21t74.5 -82q30 -80 -9.5 -147.5t-123.5 -89.5q-58 -16 -120.5 -1.5t-108.5 54.5q-81 69 -81 183q0 69 30.5 125t84.5 90q75 47 176 42q85 -5 135 -55q6 -18 -3.5 -28.5t-27.5 0.5q-64 52 -159 40.5t-146 -74.5q-49 -61 -49 -141
q0 -74 56 -121t139 -47q125 0 166 66q3 5 12 41z" />
    <glyph glyph-name="sin.ngoo" unicode="&#xd9f;&#xddd;" horiz-adv-x="1527" 
d="M1429 780q3 -12 3 -24v-47q6 -10 29 -10q28 1 34 42q7 42 -16 57q-13 8 -29 2t-21 -20zM1432 665v-242q2 -2 3.5 -5.5t2.5 -5.5q24 -41 31 -98q17 -141 -17 -221q-25 -57 -65 -82q-40 -24 -91 -5.5t-64 63.5q-2 9 4 16.5t16.5 7t19.5 -12.5q31 -42 64 -40q35 3 49.5 66.5
t14.5 126.5q0 196 -63 202q-37 3 -65 -39q-11 -17 -25.5 -13.5t-14.5 23.5q12 38 52 58t79 10q13 -4 26 -11l2 294q-4 28 -32 42q-6 5 -22 9q-18 6 -13.5 23.5t25.5 15.5q35 -9 55 -29q29 34 64 29q31 -5 43 -19q20 -20 25.5 -51.5t-3.5 -57.5q-13 -46 -48 -57q-26 -9 -53 3
zM637 405q46 35 108 37q33 0 33 16q0 29 -35 38.5t-67 -3.5q-35 -14 -66 -56q-73 -97 -62 -233q7 -77 25 -107q6 -9 0 -19.5t-19 -8.5q-34 10 -46 118q-15 171 74 282q34 42 71 59q54 26 111 6q27 -9 43.5 -32.5t12.5 -49.5q-2 -15 -11 -27q-10 -9 -20.5 -14t-15 -6.5
t-22 -2.5t-21.5 -1l-15 -4q-15 -4 -27 -9.5t-28 -15.5t-26 -26.5t-13 -38.5q-12 -97 34.5 -162.5t137.5 -65.5q17 0 34.5 2.5t40.5 11t39.5 22.5t26.5 40t6 60q-6 26 -24.5 40t-43.5 14q-3 0 -17 -1.5t-23 -0.5t-14 7q-9 28 -2.5 65t18.5 68q20 52 61 87.5t88 46.5t97 -8
t85 -69q53 -78 57.5 -182t-40.5 -186q-29 -53 -71 -74.5t-103 -18.5q-4 1 -13 2t-14.5 2t-13 3.5t-12.5 6.5q-5 7 -6 18q3 22 22 18q30 -9 66 -9t68.5 24.5t47.5 58.5q19 42 20.5 100.5t-13.5 112.5t-53.5 92t-92.5 38q-51 0 -93 -23.5t-55 -73.5q-5 -19 -10 -51
q0 -10 9 -11q50 -5 78 -27q43 -40 42.5 -103t-34.5 -108q-44 -56 -123.5 -68t-140.5 22q-62 32 -93.5 107t-20 152.5t63.5 118.5zM320 268q-12 34 -66 30q-53 -22 -38 -72q8 -25 40.5 -30t50.5 13q25 23 13 59zM444 182l-3 24q-10 78 -101 98q25 -16 25 -61q0 -51 -44 -75
t-91.5 -7t-55.5 66q-9 49 25 82t84 39q61 7 115.5 -21t74.5 -82q30 -80 -9.5 -147.5t-123.5 -89.5q-58 -16 -120.5 -1.5t-108.5 54.5q-81 69 -81 183q0 69 30.5 125t84.5 90q75 47 176 42q85 -5 135 -55q6 -18 -3.5 -28.5t-27.5 0.5q-64 52 -159 40.5t-146 -74.5
q-49 -61 -49 -141q0 -74 56 -121t139 -47q125 0 166 66q3 5 12 41z" />
    <glyph glyph-name="sin.ngau" unicode="&#xd9f;&#xdde;" horiz-adv-x="1603" 
d="M1323 484q20 -2 23 -17t-16 -23q-30 -8 -42.5 -44t0 -71t44.5 -40q16 -5 35.5 4t23.5 27q3 19 -4.5 35t-26.5 16q-18 5 -18 24q0 55 55 80.5t101 -4.5q25 -16 40 -44t20.5 -66t7 -62t0.5 -61q-4 -157 -112 -225q-44 -29 -110.5 -6.5t-78.5 75.5q0 20 16 24t24 -14
q8 -29 44 -42.5t65 -3.5q53 18 72 93.5t14 165.5q-9 142 -81 129q-24 -5 -32 -28q29 -13 41.5 -44t-0.5 -62q-24 -53 -93 -53q-38 0 -62.5 28t-29.5 67q-6 48 14.5 89.5t65.5 52.5zM639 405q42 35 108 37q33 0 33 16q0 29 -35 38.5t-67 -3.5q-35 -14 -66 -56
q-73 -97 -62 -233q7 -77 25 -107q6 -9 0 -19.5t-19 -8.5q-34 10 -46 118q-15 171 74 282q34 42 71 59q54 26 111 6q27 -9 43.5 -32.5t12.5 -49.5q-2 -15 -11 -27q-10 -9 -20.5 -14t-15 -6.5t-22 -2.5t-21.5 -1l-15 -4q-15 -4 -27 -9.5t-28 -15.5t-26 -26.5t-13 -38.5
q-12 -97 34.5 -162.5t137.5 -65.5q17 0 34.5 2.5t40.5 11t39.5 22.5t26.5 40t6 60q-6 26 -24.5 40t-43.5 14q-3 0 -17 -1.5t-23 -0.5t-14 7q-9 28 -2.5 65t18.5 68q20 52 61 87.5t88 46.5t97 -8t85 -69q53 -78 57.5 -182t-40.5 -186q-29 -53 -71 -74.5t-103 -18.5
q-4 1 -13 2t-14.5 2t-13 3.5t-12.5 6.5q-5 7 -6 18q3 22 22 18q30 -9 66 -9t68.5 24.5t47.5 58.5q19 42 20.5 100.5t-13.5 112.5t-53.5 92t-92.5 38q-51 0 -93 -23.5t-55 -73.5q-5 -19 -10 -51q0 -10 9 -11q50 -5 78 -27q43 -40 42.5 -103t-34.5 -108q-45 -56 -124.5 -68.5
t-139.5 22.5q-62 33 -92.5 107t-19.5 151t62 120zM320 268q-12 34 -66 30q-53 -22 -38 -72q8 -25 40.5 -30t50.5 13q25 23 13 59zM444 182l-3 24q-10 78 -101 98q25 -16 25 -61q0 -51 -44 -75t-91.5 -7t-55.5 66q-9 49 25 82t84 39q61 7 115.5 -21t74.5 -82
q30 -80 -9.5 -147.5t-123.5 -89.5q-58 -16 -120.5 -1.5t-108.5 54.5q-81 69 -81 183q0 69 30.5 125t84.5 90q75 47 176 42q85 -5 135 -55q6 -18 -3.5 -28.5t-27.5 0.5q-64 52 -159 40.5t-146 -74.5q-49 -61 -49 -141q0 -74 56 -121t139 -47q125 0 166 66q3 5 12 41z" />
    <glyph glyph-name="sin.ch" unicode="&#xda0;&#xdca;" horiz-adv-x="688" 
d="M610 361q0 93 -56 162t-145 92q-168 44 -316 -20q-20 -8 -29.5 8t9.5 29q2 1 5.5 2.5t4.5 1.5l-2 3q-28 34 -17 78q4 35 35.5 60t77.5 35.5t86.5 14t76.5 2.5q135 -5 230 -70q25 -16 37 -46.5t3 -58.5q-4 -22 -22.5 -20t-18.5 24q3 30 -19.5 52t-61 34t-74 18t-73.5 8
q-67 3 -152 -15t-85 -59q0 -32 27 -43q77 24 167 21.5t166 -32.5q189 -73 190 -284q0 -70 -24 -138q-39 -106 -126.5 -163t-198.5 -57q-75 0 -144 29.5t-110 89t-27 133.5q12 65 71 113q14 11 2 11h-53q-18 2 -18.5 21t18.5 21q51 0 143.5 0.5t143.5 0.5q21 0 19 16
q1 36 -27 52.5t-61.5 7.5t-46.5 -37q-14 -19 -37 -21.5t-37 6.5q-16 13 -15.5 27t10.5 27q37 46 104 51.5t113 -28.5q29 -20 39.5 -69.5t-11.5 -73.5h-22h-35q-12 0 -50 -0.5t-49 -0.5q-55 0 -100 -35t-54 -85q-9 -53 31.5 -96.5t97 -63.5t106.5 -20q121 0 212.5 86.5
t91.5 198.5z" />
    <glyph glyph-name="sin.chi" unicode="&#xda0;&#xdd2;" horiz-adv-x="709" 
d="M673 356q0 -70 -24 -138q-39 -106 -126 -163t-199 -57q-75 0 -144 29.5t-110 89t-27 133.5q12 65 71 113q14 11 2 11h-60q-18 2 -18 21t18 21q52 0 147 0.5t147 0.5q21 0 19 16q1 32 -20.5 48.5t-50.5 14.5t-49 -20q-12 -12 -15 -20h-1q-12 -19 -36 -21t-37 6
q-16 10 -16 27t10 27q37 47 104 52t114 -29q29 -20 39.5 -69.5t-11.5 -73.5h-22h-11.5h-13.5h-10q-11 0 -49.5 -0.5t-49.5 -0.5q-56 0 -100.5 -35t-53.5 -85q-9 -53 31.5 -96.5t97 -63.5t106.5 -20q121 0 212 86.5t91 198.5q0 58 -21 105t-56 77.5t-81.5 51t-95.5 28.5
t-100 7q-8 0 -29.5 -1t-33.5 -1.5t-32 0.5t-31.5 4t-25.5 9.5t-21 16t-11 25t-2 35.5q4 35 36 59.5t77.5 35.5t86.5 15t76 2q137 -7 230 -70q25 -16 37 -46.5t3 -58.5q-4 -22 -22.5 -20t-18.5 24q3 29 -19.5 51.5t-61 34.5t-74.5 18t-73 8q-69 3 -153.5 -14.5t-84.5 -58.5
q0 -40 101 -32q88 8 165.5 -5.5t140.5 -49t100.5 -100.5t38.5 -153z" />
    <glyph glyph-name="sin.chii" unicode="&#xda0;&#xdd3;" horiz-adv-x="700" 
d="M570 712q-12 17 -49 32q-13 -3 -23 -13q-13 -9 -14 -30t8 -33q9 -14 28 -20t37 4q16 12 18.5 31.5t-5.5 28.5zM404 660l15 -3q8 -1 42 -13q-17 20 -20 52q-4 35 28 64q-104 30 -226 10q-74 -11 -97 -25.5t-31 -39.5q0 -37 70 -34q147 4 219 -11zM661 361v-15
q0 -60 -24 -122q-40 -106 -127 -163.5t-198 -57.5q-75 0 -144 29.5t-110 89.5t-27 134q12 65 71 113q11 8 2 10h-53q-18 2 -18.5 21t18.5 21q51 0 143.5 0.5t143.5 0.5q21 0 19 16q1 32 -20.5 48.5t-50.5 14.5t-49 -20q-3 -3 -11.5 -14t-12.5 -15q-29 -24 -65 -5
q-31 20 -5 53q37 46 104 51.5t113 -28.5q29 -20 39.5 -69.5t-11.5 -73.5h-22h-11.5h-13.5h-10q-11 0 -49.5 -0.5t-49.5 -0.5q-55 0 -100 -34.5t-54 -84.5q-9 -54 31.5 -97.5t97 -63.5t106.5 -20q122 0 214 87t90 198q-2 63 -13 94q-21 59 -73 99t-110.5 56.5t-125.5 19.5
q-14 1 -54 -1t-67.5 -1.5t-56 11t-37.5 32.5q-15 38 0.5 69t50.5 49t71.5 27.5t68.5 11.5q163 10 254 -32q23 -11 37 -19t30 -23.5t25 -35.5q12 -27 -0.5 -61t-38.5 -42q-27 -9 -51 -6q83 -49 117 -136q17 -42 17 -115z" />
    <glyph glyph-name="sin.chu" unicode="&#xda0;&#xdd4;" horiz-adv-x="678" 
d="M601 -184v325q-99 -141 -284 -141q-75 0 -144 29.5t-110 89t-27 133.5q12 65 71 113q14 11 2 11h-60q-18 2 -18.5 21t18.5 21q52 0 147 0.5t147 0.5q21 0 19 16q1 35 -27 52t-62 8.5t-47 -37.5q-12 -19 -36 -21t-37 6q-16 10 -16 27t10 27q37 47 104 52t114 -29
q29 -20 39.5 -69.5t-11.5 -73.5h-22h-11.5h-13.5h-10q-12 0 -50 -0.5t-49 -0.5q-55 0 -100 -35t-54 -85q-9 -53 31.5 -96.5t97 -63.5t106.5 -20q92 0 167 52.5t111 134t23 166.5q-16 101 -83.5 175.5t-164.5 94.5q-65 16 -137.5 1.5t-127.5 -58.5q-4 -3 -12.5 -12
t-14.5 -13.5t-15 -5.5q-20 6 -16 21q9 35 77 73q74 39 157 43.5t162 -27.5q68 -28 119.5 -84.5t75.5 -124.5t27.5 -144.5t-23.5 -145.5v-426q-5 -21 -23 -21q-53 -3 -222.5 -1.5t-222.5 1.5q-49 0 -69 6q-44 13 -66 43.5t-10 73.5q8 29 25 44q47 47 137 25q18 -8 15.5 -23.5
t-22.5 -17.5q-57 15 -95 -8q-20 -12 -22 -36t13 -41q16 -18 54 -24q4 -1 23 -1h17q35 0 93 18t99 18q45 0 104 -18t88 -18h42z" />
    <glyph glyph-name="sin.chuu" unicode="&#xda0;&#xdd6;" horiz-adv-x="687" 
d="M598 -159v303v1q-96 -142 -284 -142q-120 0 -211 71t-71 181q12 67 72 113q14 11 2 11h-63q-18 2 -18 21t18 21q52 0 148.5 0.5t148.5 0.5q19 0 19 16q1 35 -27.5 52t-62.5 8.5t-46 -37.5q-14 -19 -37 -21.5t-36 6.5q-16 10 -16 27t10 27q37 46 104 51.5t113 -28.5
q29 -20 39.5 -69.5t-11.5 -73.5h-22h-35q-11 0 -49 -0.5t-49 -0.5q-57 0 -102 -35t-53 -85q-9 -53 31.5 -96.5t97 -63.5t106.5 -20q92 0 167 52.5t111 134t23 166.5q-16 102 -83 176.5t-164 93.5q-70 13 -142.5 -1t-122.5 -56q-4 -3 -12.5 -12t-15 -13.5t-15.5 -5.5
q-17 5 -16 21q9 35 77 73q72 39 157 43.5t163 -27.5q68 -28 119 -84t74.5 -123t27.5 -142.5t-21 -143.5v-429q-2 -14 -16 -18.5t-26 3.5q-45 25 -75.5 34.5t-56 9.5t-63.5 -2q-40 -1 -110 -23.5t-130 -27.5q-48 -4 -83 11q-36 15 -53.5 45t-7.5 67q8 28 24 44q50 46 138 25
q18 -8 15.5 -23.5t-22.5 -17.5q-57 15 -95 -8q-20 -12 -22 -36t13 -41q21 -24 54 -24q67 0 155 54q78 43 165.5 31t152.5 -64z" />
    <glyph glyph-name="sin.che" unicode="&#xda0;&#xdd9;" horiz-adv-x="1180" 
d="M525 421h297q20 0 20 16q1 35 -27.5 52t-62.5 8.5t-46 -37.5q-14 -19 -37 -21.5t-37 6.5q-15 10 -15 27t10 27q37 46 104 51.5t113 -28.5q29 -20 39.5 -69.5t-11.5 -73.5h-22h-11.5h-13.5h-10q-11 0 -49 -0.5t-50 -0.5q-55 0 -100 -35t-54 -85q-9 -53 31.5 -96.5
t97 -63.5t106.5 -20q92 0 167 52.5t111 134t23 166.5q-16 102 -83 176.5t-164 93.5q-70 13 -142.5 -1t-122.5 -56q-4 -3 -12.5 -12t-15 -13.5t-15.5 -5.5q-20 6 -16 21q9 35 77 73q74 39 157 43.5t162 -27.5q139 -59 194.5 -207.5t3.5 -293.5q-38 -106 -124 -163t-200 -57
q-120 0 -211 71t-71 181q12 67 72 113q11 11 1 11h-63q-18 2 -18 21.5t18 21.5zM320 268q-12 34 -66 30q-53 -22 -38 -72q8 -25 40.5 -30t50.5 13q25 23 13 59zM444 182l-3 24q-10 78 -101 98q25 -16 25 -61q0 -51 -44 -75t-91.5 -7t-55.5 66q-9 49 25 82t84 39
q61 7 115.5 -21t74.5 -82q30 -80 -9.5 -147.5t-123.5 -89.5q-58 -16 -120.5 -1.5t-108.5 54.5q-81 69 -81 183q0 69 30.5 125t84.5 90q75 47 176 42q85 -5 135 -55q6 -18 -3.5 -28.5t-27.5 0.5q-64 52 -159 40.5t-146 -74.5q-49 -61 -49 -141q0 -74 56 -121t139 -47
q125 0 166 66q3 5 12 41z" />
    <glyph glyph-name="sin.chee" unicode="&#xda0;&#xdda;" horiz-adv-x="1190" 
d="M1105 361q0 93 -56 162t-145 92q-168 44 -316 -20q-20 -8 -29.5 8t9.5 29q2 1 5.5 2.5t4.5 1.5l-2 3q-28 34 -17 78q4 35 35.5 60t77.5 35.5t86.5 14t76.5 2.5q135 -5 230 -70q25 -16 37 -46.5t3 -58.5q-4 -22 -22.5 -20t-18.5 24q3 30 -19.5 52t-61 34t-74 18t-73.5 8
q-67 3 -152 -15t-85 -59q0 -32 27 -43q77 24 167 21.5t166 -32.5q189 -73 190 -284q0 -70 -24 -138q-39 -106 -126.5 -163t-198.5 -57q-75 0 -144 29.5t-110 89t-27 133.5q12 65 71 113q14 11 2 11h-53q-18 2 -18.5 21t18.5 21q51 0 143.5 0.5t143.5 0.5q21 0 19 16
q1 36 -27 52.5t-61.5 7.5t-46.5 -37q-14 -19 -37 -21.5t-37 6.5q-16 13 -15.5 27t10.5 27q37 46 104 51.5t113 -28.5q29 -20 39.5 -69.5t-11.5 -73.5h-22h-35q-11 0 -49 -0.5t-50 -0.5q-55 0 -100 -35t-54 -85q-9 -53 31.5 -96.5t97 -63.5t106.5 -20q121 0 212.5 86.5
t91.5 198.5zM320 268q-12 34 -66 30q-53 -22 -38 -72q8 -25 40.5 -30t50.5 13q25 23 13 59zM444 182l-3 24q-10 78 -101 98q25 -16 25 -61q0 -51 -44 -75t-91.5 -7t-55.5 66q-9 49 25 82t84 39q61 7 115.5 -21t74.5 -82q30 -80 -9.5 -147.5t-123.5 -89.5
q-58 -16 -120.5 -1.5t-108.5 54.5q-81 69 -81 183q0 69 30.5 125t84.5 90q75 47 176 42q85 -5 135 -55q6 -18 -3.5 -28.5t-27.5 0.5q-64 52 -159 40.5t-146 -74.5q-49 -61 -49 -141q0 -74 56 -121t139 -47q125 0 166 66q3 5 12 41z" />
    <glyph glyph-name="sin.chai" unicode="&#xda0;&#xddb;" horiz-adv-x="1665" 
d="M1010 421h297q20 0 20 16q1 35 -27.5 52t-62.5 8.5t-46 -37.5q-14 -19 -37 -21.5t-37 6.5q-15 10 -15 27t10 27q37 46 104 51.5t113 -28.5q29 -20 39.5 -69.5t-11.5 -73.5h-22h-35q-11 0 -49 -0.5t-50 -0.5q-55 0 -100 -35t-54 -85q-9 -53 31.5 -96.5t97 -63.5t106.5 -20
q92 0 167 52.5t111 134t23 166.5q-16 102 -83 176.5t-164 93.5q-70 13 -142.5 -1t-122.5 -56q-4 -3 -12.5 -12t-15 -13.5t-15.5 -5.5q-20 6 -16 21q9 35 77 73q74 39 157 43.5t162 -27.5q139 -59 194.5 -207.5t3.5 -293.5q-38 -106 -124 -163t-200 -57q-120 0 -211 71
t-71 181q12 67 72 113q11 11 1 11h-63q-18 2 -18 21.5t18 21.5zM320 268q-12 34 -66 30q-53 -22 -38 -72q8 -25 40.5 -30t50.5 13q25 23 13 59zM444 182l-3 24q-10 78 -101 98q25 -16 25 -61q0 -51 -44 -75t-91.5 -7t-55.5 66q-9 49 25 82t84 39q61 7 115.5 -21t74.5 -82
q30 -80 -9.5 -147.5t-123.5 -89.5q-58 -16 -120.5 -1.5t-108.5 54.5q-81 69 -81 183q0 69 30.5 125t84.5 90q75 47 176 42q85 -5 135 -55q6 -18 -3.5 -28.5t-27.5 0.5q-64 52 -159 40.5t-146 -74.5q-49 -61 -49 -141q0 -74 56 -121t139 -47q125 0 166 66q3 5 12 41zM796 268
q-12 34 -66 30q-53 -22 -38 -72q8 -25 40.5 -30t50.5 13q25 23 13 59zM920 182l-3 24q-10 78 -101 98q25 -16 25 -61q0 -51 -44 -75t-91.5 -7t-55.5 66q-9 49 25 82t84 39q61 7 115.5 -21t74.5 -82q30 -80 -9.5 -147.5t-123.5 -89.5q-58 -16 -120.5 -1.5t-108.5 54.5
q-81 69 -81 183q0 69 30.5 125t84.5 90q75 47 176 42q85 -5 135 -55q6 -18 -3.5 -28.5t-27.5 0.5q-64 52 -159 40.5t-146 -74.5q-49 -61 -49 -141q0 -74 56 -121t139 -47q125 0 166 66q3 5 12 41z" />
    <glyph glyph-name="sin.cho" unicode="&#xda0;&#xddc;" horiz-adv-x="1448" 
d="M1175 76q-3 9 3 17t17 7t20 -14q30 -43 64 -40t49 66t16 128q6 196 -63 202q-40 4 -66 -39q-11 -18 -25.5 -14t-14.5 24q12 38 52.5 57.5t79.5 9.5q40 -10 74 -61q23 -36 31 -98q16 -132 -17 -221q-22 -57 -65 -82q-40 -24 -91 -5.5t-64 63.5zM532 421h297q20 0 20 16
q1 35 -27.5 52t-62.5 8.5t-46 -37.5q-14 -19 -37 -21.5t-37 6.5q-15 10 -15 27t10 27q37 46 104 51.5t113 -28.5q29 -20 39.5 -69.5t-11.5 -73.5h-22h-11.5h-13.5h-10q-11 0 -49 -0.5t-50 -0.5q-55 0 -100 -35t-54 -85q-9 -53 31.5 -96.5t97 -63.5t106.5 -20q92 0 167 52.5
t111 134t23 166.5q-16 102 -83 176.5t-164 93.5q-70 13 -142.5 -1t-122.5 -56q-4 -3 -12.5 -12t-15 -13.5t-15.5 -5.5q-20 6 -16 21q9 35 77 73q74 39 157 43.5t162 -27.5q139 -59 194.5 -207.5t3.5 -293.5q-38 -106 -124 -163t-200 -57q-120 0 -211 71t-71 181
q12 67 72 113q11 11 1 11h-63q-18 2 -18 21.5t18 21.5zM320 268q-12 34 -66 30q-53 -22 -38 -72q8 -25 40.5 -30t50.5 13q25 23 13 59zM444 182l-3 24q-10 78 -101 98q25 -16 25 -61q0 -51 -44 -75t-91.5 -7t-55.5 66q-9 49 25 82t84 39q61 7 115.5 -21t74.5 -82
q30 -80 -9.5 -147.5t-123.5 -89.5q-58 -16 -120.5 -1.5t-108.5 54.5q-81 69 -81 183q0 69 30.5 125t84.5 90q75 47 176 42q85 -5 135 -55q6 -18 -3.5 -28.5t-27.5 0.5q-64 52 -159 40.5t-146 -74.5q-49 -61 -49 -141q0 -74 56 -121t139 -47q125 0 166 66q3 5 12 41z" />
    <glyph glyph-name="sin.choo" unicode="&#xda0;&#xddd;" horiz-adv-x="1462" 
d="M1368 780q3 -12 3 -24v-47q6 -10 29 -10q28 1 34 42q7 42 -16 57q-13 8 -29 2t-21 -20zM1371 665v-242q1 -2 2.5 -5.5t3.5 -5.5q24 -41 31 -98q17 -141 -17 -221q-25 -57 -65 -82q-40 -24 -91 -5.5t-64 63.5q-2 9 4 16.5t16.5 7t19.5 -12.5q31 -42 64 -40q35 3 49.5 66.5
t14.5 126.5q0 196 -63 202q-37 3 -65 -39q-11 -17 -25.5 -13.5t-14.5 23.5q12 38 52 58t79 10q13 -4 26 -11l2 294q-4 28 -32 42q-6 5 -22 9q-18 6 -13.5 23.5t25.5 15.5q35 -9 55 -29q29 34 64 29q31 -5 43 -19q20 -20 25.5 -51.5t-3.5 -57.5q-13 -46 -48 -57q-26 -9 -53 3
zM530 421h297q20 0 20 16q1 35 -27.5 52t-62.5 8.5t-46 -37.5q-14 -19 -37 -21.5t-37 6.5q-15 10 -15 27t10 27q37 46 104 51.5t113 -28.5q29 -20 39.5 -69.5t-11.5 -73.5h-22h-11.5h-13.5h-10q-11 0 -49 -0.5t-50 -0.5q-55 0 -100 -35t-54 -85q-9 -53 31.5 -96.5t97 -63.5
t106.5 -20q92 0 167 52.5t111 134t23 166.5q-16 102 -83 176.5t-164 93.5q-70 13 -142.5 -1t-122.5 -56q-4 -3 -12.5 -12t-15 -13.5t-15.5 -5.5q-20 6 -16 21q9 35 77 73q74 39 157 43.5t162 -27.5q139 -59 194.5 -207.5t3.5 -293.5q-38 -106 -124 -163t-200 -57
q-120 0 -211 71t-71 181q12 67 72 113q11 11 1 11h-63q-18 2 -18 21.5t18 21.5zM320 268q-12 34 -66 30q-53 -22 -38 -72q8 -25 40.5 -30t50.5 13q25 23 13 59zM444 182l-3 24q-10 78 -101 98q25 -16 25 -61q0 -51 -44 -75t-91.5 -7t-55.5 66q-9 49 25 82t84 39
q61 7 115.5 -21t74.5 -82q30 -80 -9.5 -147.5t-123.5 -89.5q-58 -16 -120.5 -1.5t-108.5 54.5q-81 69 -81 183q0 69 30.5 125t84.5 90q75 47 176 42q85 -5 135 -55q6 -18 -3.5 -28.5t-27.5 0.5q-64 52 -159 40.5t-146 -74.5q-49 -61 -49 -141q0 -74 56 -121t139 -47
q125 0 166 66q3 5 12 41z" />
    <glyph glyph-name="sin.chau" unicode="&#xda0;&#xdde;" horiz-adv-x="1544" 
d="M1266 484q20 -2 23 -17t-16 -23q-30 -8 -42.5 -44t0 -71t44.5 -40q16 -5 35.5 4t23.5 27q3 19 -4.5 35t-26.5 16q-18 5 -18 24q0 55 55 80.5t101 -4.5q25 -16 40 -44t20.5 -66t7 -62t0.5 -61q-4 -157 -112 -225q-44 -29 -110.5 -6.5t-78.5 75.5q0 20 16 24t24 -14
q8 -29 44 -42.5t65 -3.5q53 18 72 93.5t14 165.5q-9 142 -81 129q-24 -5 -32 -28q29 -13 41.5 -44t-0.5 -62q-24 -53 -93 -53q-38 0 -62.5 28t-29.5 67q-6 48 14.5 89.5t65.5 52.5zM530 421h297q20 0 20 16q1 35 -27.5 52t-62.5 8.5t-46 -37.5q-14 -19 -37 -21.5t-37 6.5
q-15 10 -15 27t10 27q37 46 104 51.5t113 -28.5q29 -20 39.5 -69.5t-11.5 -73.5h-22h-11.5h-13.5h-10q-11 0 -49 -0.5t-50 -0.5q-55 0 -100 -35t-54 -85q-9 -53 31.5 -96.5t97 -63.5t106.5 -20q92 0 167 52.5t111 134t23 166.5q-16 102 -83 176.5t-164 93.5
q-70 13 -142.5 -1t-122.5 -56q-4 -3 -12.5 -12t-15 -13.5t-15.5 -5.5q-20 6 -16 21q9 35 77 73q74 39 157 43.5t162 -27.5q139 -59 194.5 -207.5t3.5 -293.5q-38 -106 -124 -163t-200 -57q-120 0 -211 71t-71 181q12 67 72 113q11 11 1 11h-63q-18 2 -18 21.5t18 21.5z
M320 268q-12 34 -66 30q-53 -22 -38 -72q8 -25 40.5 -30t50.5 13q25 23 13 59zM444 182l-3 24q-10 78 -101 98q25 -16 25 -61q0 -51 -44 -75t-91.5 -7t-55.5 66q-9 49 25 82t84 39q61 7 115.5 -21t74.5 -82q30 -80 -9.5 -147.5t-123.5 -89.5q-58 -16 -120.5 -1.5
t-108.5 54.5q-81 69 -81 183q0 69 30.5 125t84.5 90q75 47 176 42q85 -5 135 -55q6 -18 -3.5 -28.5t-27.5 0.5q-64 52 -159 40.5t-146 -74.5q-49 -61 -49 -141q0 -74 56 -121t139 -47q125 0 166 66q3 5 12 41z" />
    <glyph glyph-name="sin.chra" unicode="&#xda0;&#xdca;&#x200d;&#xdbb;" horiz-adv-x="704" 
d="M346 421q19 0 19 16q1 35 -27.5 52t-62.5 8.5t-46 -37.5q-12 -19 -36.5 -21t-36.5 6q-16 10 -16 27t10 27q37 47 104.5 52t112.5 -29q28 -20 39 -69.5t-10 -73.5h-22h-36q-11 0 -49 -0.5t-49 -0.5q-57 0 -102 -35t-53 -85q-9 -53 31.5 -96.5t97 -63.5t106.5 -20
q92 0 167.5 52.5t111.5 134t23 166.5q-16 101 -83.5 175.5t-164.5 94.5q-65 16 -137.5 1.5t-127.5 -58.5q-4 -3 -12.5 -12t-14.5 -13.5t-15 -5.5q-18 5 -17 21q4 15 19 30.5t26 23t32 19.5q72 40 158.5 44t161.5 -28q87 -37 144.5 -116t71 -171t-10.5 -189q3 -98 -14 -204
t-58 -158q-36 -46 -87 -65.5t-122 -26.5q-56 -5 -105 5q-139 28 -211 151q-6 19 7 26.5t27 -4.5q38 -64 83 -88q111 -59 264 -7q63 21 106 63.5t53 93.5q6 30 12 114q-47 -71 -122.5 -108t-164.5 -37q-121 0 -211 71t-70 181q12 65 71 113q14 11 2 11h-59q-18 2 -18 21
t18 21q52 0 146.5 0.5t146.5 0.5z" />
    </font>
</defs>
</svg>
